G04 #@! TF.GenerationSoftware,KiCad,Pcbnew,(5.1.0-0)*
G04 #@! TF.CreationDate,2020-02-04T17:27:52+00:00*
G04 #@! TF.ProjectId,z80,7a38302e-6b69-4636-9164-5f7063625858,rev?*
G04 #@! TF.SameCoordinates,Original*
G04 #@! TF.FileFunction,Legend,Bot*
G04 #@! TF.FilePolarity,Positive*
%FSLAX46Y46*%
G04 Gerber Fmt 4.6, Leading zero omitted, Abs format (unit mm)*
G04 Created by KiCad (PCBNEW (5.1.0-0)) date 2020-02-04 17:27:52*
%MOMM*%
%LPD*%
G04 APERTURE LIST*
%ADD10C,0.150000*%
G04 APERTURE END LIST*
D10*
X144452380Y-88119047D02*
X143452380Y-88119047D01*
X143928571Y-88119047D02*
X143928571Y-88690476D01*
X144452380Y-88690476D02*
X143452380Y-88690476D01*
X144452380Y-89595238D02*
X143928571Y-89595238D01*
X143833333Y-89547619D01*
X143785714Y-89452380D01*
X143785714Y-89261904D01*
X143833333Y-89166666D01*
X144404761Y-89595238D02*
X144452380Y-89500000D01*
X144452380Y-89261904D01*
X144404761Y-89166666D01*
X144309523Y-89119047D01*
X144214285Y-89119047D01*
X144119047Y-89166666D01*
X144071428Y-89261904D01*
X144071428Y-89500000D01*
X144023809Y-89595238D01*
X144452380Y-90071428D02*
X143785714Y-90071428D01*
X143880952Y-90071428D02*
X143833333Y-90119047D01*
X143785714Y-90214285D01*
X143785714Y-90357142D01*
X143833333Y-90452380D01*
X143928571Y-90500000D01*
X144452380Y-90500000D01*
X143928571Y-90500000D02*
X143833333Y-90547619D01*
X143785714Y-90642857D01*
X143785714Y-90785714D01*
X143833333Y-90880952D01*
X143928571Y-90928571D01*
X144452380Y-90928571D01*
X144452380Y-91404761D02*
X143785714Y-91404761D01*
X143452380Y-91404761D02*
X143500000Y-91357142D01*
X143547619Y-91404761D01*
X143500000Y-91452380D01*
X143452380Y-91404761D01*
X143547619Y-91404761D01*
X144404761Y-91833333D02*
X144452380Y-91928571D01*
X144452380Y-92119047D01*
X144404761Y-92214285D01*
X144309523Y-92261904D01*
X144261904Y-92261904D01*
X144166666Y-92214285D01*
X144119047Y-92119047D01*
X144119047Y-91976190D01*
X144071428Y-91880952D01*
X143976190Y-91833333D01*
X143928571Y-91833333D01*
X143833333Y-91880952D01*
X143785714Y-91976190D01*
X143785714Y-92119047D01*
X143833333Y-92214285D01*
X144452380Y-92690476D02*
X143452380Y-92690476D01*
X144452380Y-93119047D02*
X143928571Y-93119047D01*
X143833333Y-93071428D01*
X143785714Y-92976190D01*
X143785714Y-92833333D01*
X143833333Y-92738095D01*
X143880952Y-92690476D01*
X144404761Y-94309523D02*
X144452380Y-94452380D01*
X144452380Y-94690476D01*
X144404761Y-94785714D01*
X144357142Y-94833333D01*
X144261904Y-94880952D01*
X144166666Y-94880952D01*
X144071428Y-94833333D01*
X144023809Y-94785714D01*
X143976190Y-94690476D01*
X143928571Y-94500000D01*
X143880952Y-94404761D01*
X143833333Y-94357142D01*
X143738095Y-94309523D01*
X143642857Y-94309523D01*
X143547619Y-94357142D01*
X143500000Y-94404761D01*
X143452380Y-94500000D01*
X143452380Y-94738095D01*
X143500000Y-94880952D01*
X144452380Y-95738095D02*
X143928571Y-95738095D01*
X143833333Y-95690476D01*
X143785714Y-95595238D01*
X143785714Y-95404761D01*
X143833333Y-95309523D01*
X144404761Y-95738095D02*
X144452380Y-95642857D01*
X144452380Y-95404761D01*
X144404761Y-95309523D01*
X144309523Y-95261904D01*
X144214285Y-95261904D01*
X144119047Y-95309523D01*
X144071428Y-95404761D01*
X144071428Y-95642857D01*
X144023809Y-95738095D01*
X144452380Y-96214285D02*
X143785714Y-96214285D01*
X143880952Y-96214285D02*
X143833333Y-96261904D01*
X143785714Y-96357142D01*
X143785714Y-96500000D01*
X143833333Y-96595238D01*
X143928571Y-96642857D01*
X144452380Y-96642857D01*
X143928571Y-96642857D02*
X143833333Y-96690476D01*
X143785714Y-96785714D01*
X143785714Y-96928571D01*
X143833333Y-97023809D01*
X143928571Y-97071428D01*
X144452380Y-97071428D01*
X144404761Y-97500000D02*
X144452380Y-97595238D01*
X144452380Y-97785714D01*
X144404761Y-97880952D01*
X144309523Y-97928571D01*
X144261904Y-97928571D01*
X144166666Y-97880952D01*
X144119047Y-97785714D01*
X144119047Y-97642857D01*
X144071428Y-97547619D01*
X143976190Y-97500000D01*
X143928571Y-97500000D01*
X143833333Y-97547619D01*
X143785714Y-97642857D01*
X143785714Y-97785714D01*
X143833333Y-97880952D01*
X139452380Y-89809523D02*
X140452380Y-90142857D01*
X139452380Y-90476190D01*
X140404761Y-91190476D02*
X140452380Y-91095238D01*
X140452380Y-90904761D01*
X140404761Y-90809523D01*
X140309523Y-90761904D01*
X139928571Y-90761904D01*
X139833333Y-90809523D01*
X139785714Y-90904761D01*
X139785714Y-91095238D01*
X139833333Y-91190476D01*
X139928571Y-91238095D01*
X140023809Y-91238095D01*
X140119047Y-90761904D01*
X140452380Y-91666666D02*
X139785714Y-91666666D01*
X139976190Y-91666666D02*
X139880952Y-91714285D01*
X139833333Y-91761904D01*
X139785714Y-91857142D01*
X139785714Y-91952380D01*
X140404761Y-92238095D02*
X140452380Y-92333333D01*
X140452380Y-92523809D01*
X140404761Y-92619047D01*
X140309523Y-92666666D01*
X140261904Y-92666666D01*
X140166666Y-92619047D01*
X140119047Y-92523809D01*
X140119047Y-92380952D01*
X140071428Y-92285714D01*
X139976190Y-92238095D01*
X139928571Y-92238095D01*
X139833333Y-92285714D01*
X139785714Y-92380952D01*
X139785714Y-92523809D01*
X139833333Y-92619047D01*
X140452380Y-93095238D02*
X139785714Y-93095238D01*
X139452380Y-93095238D02*
X139500000Y-93047619D01*
X139547619Y-93095238D01*
X139500000Y-93142857D01*
X139452380Y-93095238D01*
X139547619Y-93095238D01*
X140452380Y-93714285D02*
X140404761Y-93619047D01*
X140357142Y-93571428D01*
X140261904Y-93523809D01*
X139976190Y-93523809D01*
X139880952Y-93571428D01*
X139833333Y-93619047D01*
X139785714Y-93714285D01*
X139785714Y-93857142D01*
X139833333Y-93952380D01*
X139880952Y-94000000D01*
X139976190Y-94047619D01*
X140261904Y-94047619D01*
X140357142Y-94000000D01*
X140404761Y-93952380D01*
X140452380Y-93857142D01*
X140452380Y-93714285D01*
X139785714Y-94476190D02*
X140452380Y-94476190D01*
X139880952Y-94476190D02*
X139833333Y-94523809D01*
X139785714Y-94619047D01*
X139785714Y-94761904D01*
X139833333Y-94857142D01*
X139928571Y-94904761D01*
X140452380Y-94904761D01*
X140452380Y-96666666D02*
X140452380Y-96095238D01*
X140452380Y-96380952D02*
X139452380Y-96380952D01*
X139595238Y-96285714D01*
X139690476Y-96190476D01*
X139738095Y-96095238D01*
X140357142Y-97095238D02*
X140404761Y-97142857D01*
X140452380Y-97095238D01*
X140404761Y-97047619D01*
X140357142Y-97095238D01*
X140452380Y-97095238D01*
X139452380Y-97761904D02*
X139452380Y-97857142D01*
X139500000Y-97952380D01*
X139547619Y-98000000D01*
X139642857Y-98047619D01*
X139833333Y-98095238D01*
X140071428Y-98095238D01*
X140261904Y-98047619D01*
X140357142Y-98000000D01*
X140404761Y-97952380D01*
X140452380Y-97857142D01*
X140452380Y-97761904D01*
X140404761Y-97666666D01*
X140357142Y-97619047D01*
X140261904Y-97571428D01*
X140071428Y-97523809D01*
X139833333Y-97523809D01*
X139642857Y-97571428D01*
X139547619Y-97619047D01*
X139500000Y-97666666D01*
X139452380Y-97761904D01*
M02*
