G04 #@! TF.GenerationSoftware,KiCad,Pcbnew,(5.1.0-0)*
G04 #@! TF.CreationDate,2020-02-04T17:27:52+00:00*
G04 #@! TF.ProjectId,z80,7a38302e-6b69-4636-9164-5f7063625858,rev?*
G04 #@! TF.SameCoordinates,Original*
G04 #@! TF.FileFunction,Copper,L1,Top*
G04 #@! TF.FilePolarity,Positive*
%FSLAX46Y46*%
G04 Gerber Fmt 4.6, Leading zero omitted, Abs format (unit mm)*
G04 Created by KiCad (PCBNEW (5.1.0-0)) date 2020-02-04 17:27:52*
%MOMM*%
%LPD*%
G04 APERTURE LIST*
%ADD10C,1.600000*%
%ADD11O,1.600000X1.600000*%
%ADD12C,1.800000*%
%ADD13R,1.800000X1.800000*%
%ADD14R,1.160000X1.160000*%
%ADD15C,1.160000*%
%ADD16R,1.159000X1.159000*%
%ADD17C,1.159000*%
%ADD18C,2.000000*%
%ADD19R,2.000000X0.500000*%
%ADD20R,1.700000X2.000000*%
%ADD21R,2.500000X1.100000*%
%ADD22O,3.500000X1.900000*%
%ADD23R,1.700000X1.700000*%
%ADD24O,1.700000X1.700000*%
%ADD25R,1.130000X1.130000*%
%ADD26C,1.130000*%
%ADD27R,1.600000X2.400000*%
%ADD28O,1.600000X2.400000*%
%ADD29R,2.400000X1.600000*%
%ADD30O,2.400000X1.600000*%
%ADD31R,1.650000X1.350000*%
%ADD32R,1.400000X1.400000*%
%ADD33C,1.400000*%
%ADD34C,0.800000*%
%ADD35C,0.250000*%
%ADD36C,0.300000*%
G04 APERTURE END LIST*
D10*
X125770000Y-85090000D03*
X128270000Y-85090000D03*
X120650000Y-88900000D03*
D11*
X120650000Y-78740000D03*
D12*
X134620000Y-59690000D03*
D13*
X132080000Y-59690000D03*
X170180000Y-59690000D03*
D12*
X172720000Y-59690000D03*
D14*
X171375000Y-67395000D03*
D15*
X171375000Y-69935000D03*
X171375000Y-72475000D03*
X171375000Y-75015000D03*
X171375000Y-77555000D03*
X171375000Y-80095000D03*
X171375000Y-82635000D03*
X171375000Y-85175000D03*
X171375000Y-87715000D03*
X171375000Y-90255000D03*
X171375000Y-92795000D03*
X171375000Y-95335000D03*
X171375000Y-97875000D03*
X171375000Y-100415000D03*
X179315000Y-100415000D03*
X179315000Y-97875000D03*
X179315000Y-95335000D03*
X179315000Y-92795000D03*
X179315000Y-90255000D03*
X179315000Y-87715000D03*
X179315000Y-85175000D03*
X179315000Y-82635000D03*
X179315000Y-80095000D03*
X179315000Y-77555000D03*
X179315000Y-75015000D03*
X179315000Y-72475000D03*
X179315000Y-69935000D03*
X179315000Y-67395000D03*
D16*
X152793000Y-68474000D03*
D17*
X152793000Y-71014000D03*
X152793000Y-73554000D03*
X152793000Y-76094000D03*
X152793000Y-78634000D03*
X152793000Y-81174000D03*
X152793000Y-83714000D03*
X152793000Y-86254000D03*
X152793000Y-88794000D03*
X152793000Y-91334000D03*
X152793000Y-93874000D03*
X152793000Y-96414000D03*
X152793000Y-98954000D03*
X152793000Y-101494000D03*
X168351000Y-101494000D03*
X168351000Y-98954000D03*
X168351000Y-96414000D03*
X168351000Y-93874000D03*
X168351000Y-91334000D03*
X168351000Y-88794000D03*
X168351000Y-86254000D03*
X168351000Y-83714000D03*
X168351000Y-81174000D03*
X168351000Y-78634000D03*
X168351000Y-76094000D03*
X168351000Y-73554000D03*
X168351000Y-71014000D03*
X168351000Y-68474000D03*
D18*
X166520000Y-129540000D03*
X166520000Y-134040000D03*
X160020000Y-129540000D03*
X160020000Y-134040000D03*
D12*
X180340000Y-59690000D03*
D13*
X177800000Y-59690000D03*
X185420000Y-59690000D03*
D12*
X187960000Y-59690000D03*
X149860000Y-59690000D03*
D13*
X147320000Y-59690000D03*
D19*
X117000000Y-82220000D03*
X117000000Y-83020000D03*
X117000000Y-83820000D03*
X117000000Y-84620000D03*
X117000000Y-85420000D03*
D20*
X116900000Y-79370000D03*
X111450000Y-79370000D03*
X116900000Y-88270000D03*
X111450000Y-88270000D03*
D21*
X128480000Y-70200000D03*
X128480000Y-68200000D03*
X128480000Y-72700000D03*
X128480000Y-65700000D03*
D22*
X125730000Y-74900000D03*
X125730000Y-63500000D03*
D23*
X127000000Y-58420000D03*
D24*
X124460000Y-58420000D03*
D23*
X157480000Y-123190000D03*
D24*
X157480000Y-120650000D03*
X160020000Y-123190000D03*
X160020000Y-120650000D03*
X162560000Y-123190000D03*
X162560000Y-120650000D03*
X165100000Y-123190000D03*
X165100000Y-120650000D03*
X167640000Y-123190000D03*
X167640000Y-120650000D03*
X170180000Y-123190000D03*
X170180000Y-120650000D03*
X172720000Y-123190000D03*
X172720000Y-120650000D03*
X175260000Y-123190000D03*
X175260000Y-120650000D03*
D13*
X154940000Y-59690000D03*
D12*
X157480000Y-59690000D03*
D13*
X162560000Y-59690000D03*
D12*
X165100000Y-59690000D03*
D18*
X147320000Y-134040000D03*
X147320000Y-129540000D03*
X153820000Y-134040000D03*
X153820000Y-129540000D03*
D10*
X182975000Y-100983000D03*
D11*
X193135000Y-100983000D03*
X193135000Y-84274100D03*
D10*
X182975000Y-84274100D03*
D11*
X193135000Y-105160000D03*
D10*
X182975000Y-105160000D03*
D11*
X193135000Y-109338000D03*
D10*
X182975000Y-109338000D03*
D11*
X193135000Y-113515000D03*
D10*
X182975000Y-113515000D03*
X182975000Y-80096800D03*
D11*
X193135000Y-80096800D03*
X193135000Y-88451400D03*
D10*
X182975000Y-88451400D03*
X182975000Y-92628600D03*
D11*
X193135000Y-92628600D03*
D10*
X182975000Y-75919500D03*
D11*
X193135000Y-75919500D03*
D10*
X182975000Y-96805900D03*
D11*
X193135000Y-96805900D03*
D10*
X182975000Y-67565000D03*
D11*
X193135000Y-67565000D03*
X193135000Y-71742300D03*
D10*
X182975000Y-71742300D03*
D18*
X141120000Y-129540000D03*
X141120000Y-134040000D03*
X134620000Y-129540000D03*
X134620000Y-134040000D03*
D12*
X142240000Y-59690000D03*
D13*
X139700000Y-59690000D03*
D25*
X134317000Y-68475000D03*
D26*
X134317000Y-71015000D03*
X134317000Y-73555000D03*
X134317000Y-76095000D03*
X134317000Y-78635000D03*
X134317000Y-81175000D03*
X134317000Y-83715000D03*
X134317000Y-86255000D03*
X134317000Y-88795000D03*
X134317000Y-91335000D03*
X134317000Y-93875000D03*
X134317000Y-96415000D03*
X134317000Y-98955000D03*
X134317000Y-101495000D03*
X134317000Y-104035000D03*
X134317000Y-106575000D03*
X134317000Y-109115000D03*
X134317000Y-111655000D03*
X134317000Y-114195000D03*
X134317000Y-116735000D03*
X149813000Y-116735000D03*
X149813000Y-114195000D03*
X149813000Y-111655000D03*
X149813000Y-109115000D03*
X149813000Y-106575000D03*
X149813000Y-104035000D03*
X149813000Y-101495000D03*
X149813000Y-98955000D03*
X149813000Y-96415000D03*
X149813000Y-93875000D03*
X149813000Y-91335000D03*
X149813000Y-88795000D03*
X149813000Y-86255000D03*
X149813000Y-83715000D03*
X149813000Y-81175000D03*
X149813000Y-78635000D03*
X149813000Y-76095000D03*
X149813000Y-73555000D03*
X149813000Y-71015000D03*
X149813000Y-68475000D03*
D27*
X157480000Y-114300000D03*
D28*
X175260000Y-106680000D03*
X160020000Y-114300000D03*
X172720000Y-106680000D03*
X162560000Y-114300000D03*
X170180000Y-106680000D03*
X165100000Y-114300000D03*
X167640000Y-106680000D03*
X167640000Y-114300000D03*
X165100000Y-106680000D03*
X170180000Y-114300000D03*
X162560000Y-106680000D03*
X172720000Y-114300000D03*
X160020000Y-106680000D03*
X175260000Y-114300000D03*
X157480000Y-106680000D03*
D18*
X172720000Y-134040000D03*
X172720000Y-129540000D03*
X179220000Y-134040000D03*
X179220000Y-129540000D03*
D10*
X124500000Y-104140000D03*
X127000000Y-104140000D03*
D18*
X116840000Y-123880000D03*
X116840000Y-119380000D03*
X123340000Y-123880000D03*
X123340000Y-119380000D03*
D11*
X110490000Y-92710000D03*
D10*
X110490000Y-102870000D03*
X114300000Y-102870000D03*
D11*
X114300000Y-92710000D03*
D29*
X121920000Y-92710000D03*
D30*
X129540000Y-100330000D03*
X121920000Y-95250000D03*
X129540000Y-97790000D03*
X121920000Y-97790000D03*
X129540000Y-95250000D03*
X121920000Y-100330000D03*
X129540000Y-92710000D03*
D31*
X125875000Y-82155000D03*
X128125000Y-82155000D03*
X128125000Y-80405000D03*
X125875000Y-80405000D03*
D32*
X118190000Y-108460000D03*
D33*
X120690000Y-108460000D03*
X123190000Y-108460000D03*
X118190000Y-111760000D03*
X120690000Y-111760000D03*
X123190000Y-111760000D03*
D34*
X169054600Y-111072400D03*
X152793000Y-65476800D03*
X178461800Y-107564000D03*
X172772600Y-102859300D03*
X153438900Y-108958100D03*
X158548200Y-73554000D03*
X145797500Y-117871100D03*
X145589600Y-84334000D03*
X160024600Y-75015000D03*
X153968300Y-121218900D03*
X161341800Y-77664000D03*
X144839000Y-89737800D03*
X161331200Y-81174000D03*
X146832800Y-117194600D03*
X146896100Y-89391400D03*
X163544300Y-83714000D03*
X146186000Y-116226600D03*
X146186000Y-91213700D03*
X164199500Y-91027400D03*
X161945600Y-90963600D03*
X151411900Y-116494800D03*
X158511900Y-93560800D03*
X144779700Y-94608200D03*
X157234600Y-94873800D03*
X155464500Y-97312300D03*
X157033000Y-97875000D03*
X154493300Y-95509200D03*
X160456900Y-68345200D03*
X158839500Y-96901600D03*
X154776800Y-91690300D03*
X166788800Y-87934500D03*
X162443100Y-93165300D03*
X161013200Y-91869900D03*
X165758900Y-118531600D03*
X165783700Y-86254000D03*
X174819800Y-84266600D03*
X175728100Y-83389600D03*
X174654400Y-78143300D03*
X181040000Y-65904500D03*
X184577900Y-67576300D03*
X177616400Y-77358400D03*
X152176000Y-118920600D03*
X177435700Y-75830800D03*
X177663700Y-73554000D03*
X173622600Y-111631200D03*
X159600900Y-64714800D03*
X160000000Y-61000000D03*
X143000000Y-64000000D03*
X138000000Y-62000000D03*
X182059700Y-120192000D03*
X143878100Y-129540000D03*
X188193200Y-65158100D03*
X185072300Y-103535700D03*
X188877800Y-73174000D03*
X186385200Y-67899800D03*
X138058700Y-71921900D03*
X168347800Y-58979300D03*
X191851200Y-97657200D03*
X141208800Y-68343800D03*
X137158100Y-105525100D03*
X152116300Y-107608400D03*
X125875000Y-83431400D03*
X189330100Y-71875800D03*
X187036100Y-63004700D03*
X181508900Y-80074000D03*
D35*
X171375000Y-68300300D02*
X170469700Y-69205600D01*
X170469700Y-69205600D02*
X170469700Y-100983800D01*
X170469700Y-100983800D02*
X169054600Y-102398900D01*
X169054600Y-102398900D02*
X169054600Y-111072400D01*
X171375000Y-67395000D02*
X171375000Y-68300300D01*
X152793000Y-68474000D02*
X152793000Y-65476800D01*
X172720000Y-122014700D02*
X173087400Y-122014700D01*
X173087400Y-122014700D02*
X173895300Y-121206800D01*
X173895300Y-121206800D02*
X173895300Y-120114500D01*
X173895300Y-120114500D02*
X178461800Y-115548000D01*
X178461800Y-115548000D02*
X178461800Y-107564000D01*
X172720000Y-123190000D02*
X172720000Y-122014700D01*
X171375000Y-69935000D02*
X172772600Y-71332600D01*
X172772600Y-71332600D02*
X172772600Y-102859300D01*
X149813000Y-76095000D02*
X150918800Y-77200800D01*
X150918800Y-77200800D02*
X150918800Y-96678400D01*
X150918800Y-96678400D02*
X151888100Y-97647700D01*
X151888100Y-97647700D02*
X151888100Y-99345800D01*
X151888100Y-99345800D02*
X152766300Y-100224000D01*
X152766300Y-100224000D02*
X152882900Y-100224000D01*
X152882900Y-100224000D02*
X153718100Y-101059200D01*
X153718100Y-101059200D02*
X153718100Y-108678900D01*
X153718100Y-108678900D02*
X153438900Y-108958100D01*
X152793000Y-73554000D02*
X158548200Y-73554000D01*
X145797500Y-117871100D02*
X145460700Y-117534300D01*
X145460700Y-117534300D02*
X145460700Y-115926200D01*
X145460700Y-115926200D02*
X145520800Y-115866100D01*
X145520800Y-115866100D02*
X145520800Y-92791500D01*
X145520800Y-92791500D02*
X145439900Y-92710600D01*
X145439900Y-92710600D02*
X145439900Y-90162700D01*
X145439900Y-90162700D02*
X145589600Y-90013000D01*
X145589600Y-90013000D02*
X145589600Y-84334000D01*
X152793000Y-76094000D02*
X158945600Y-76094000D01*
X158945600Y-76094000D02*
X160024600Y-75015000D01*
X153968300Y-121218900D02*
X153968300Y-119687100D01*
X153968300Y-119687100D02*
X152383500Y-118102300D01*
X152383500Y-118102300D02*
X149275300Y-118102300D01*
X149275300Y-118102300D02*
X148458700Y-117285700D01*
X148458700Y-117285700D02*
X148458700Y-116182900D01*
X148458700Y-116182900D02*
X149459600Y-115182000D01*
X149459600Y-115182000D02*
X150106700Y-115182000D01*
X150106700Y-115182000D02*
X154702700Y-110586000D01*
X154702700Y-110586000D02*
X154702700Y-102064200D01*
X154702700Y-102064200D02*
X159564800Y-97202100D01*
X159564800Y-97202100D02*
X159564800Y-96601100D01*
X159564800Y-96601100D02*
X159380500Y-96416800D01*
X159380500Y-96416800D02*
X159380500Y-88967900D01*
X159380500Y-88967900D02*
X164284000Y-84064400D01*
X164284000Y-84064400D02*
X164284000Y-80606200D01*
X164284000Y-80606200D02*
X161341800Y-77664000D01*
X152793000Y-78634000D02*
X153763000Y-77664000D01*
X153763000Y-77664000D02*
X161341800Y-77664000D01*
X144839000Y-89737800D02*
X139280100Y-95296700D01*
X139280100Y-95296700D02*
X139280100Y-134852000D01*
X139280100Y-134852000D02*
X140335600Y-135907500D01*
X140335600Y-135907500D02*
X149327000Y-135907500D01*
X149327000Y-135907500D02*
X152847700Y-132386800D01*
X152847700Y-132386800D02*
X159075100Y-132386800D01*
X159075100Y-132386800D02*
X162560000Y-128901900D01*
X162560000Y-128901900D02*
X162560000Y-123190000D01*
X152793000Y-81174000D02*
X161331200Y-81174000D01*
X146832800Y-117194600D02*
X146950000Y-117077400D01*
X146950000Y-117077400D02*
X146950000Y-89445300D01*
X146950000Y-89445300D02*
X146896100Y-89391400D01*
X152793000Y-83714000D02*
X163544300Y-83714000D01*
X146186000Y-116226600D02*
X146186000Y-91213700D01*
X163198000Y-91763900D02*
X163463000Y-91763900D01*
X163463000Y-91763900D02*
X164199500Y-91027400D01*
X163198000Y-91763900D02*
X162397700Y-90963600D01*
X162397700Y-90963600D02*
X161945600Y-90963600D01*
X151411900Y-116494800D02*
X156053600Y-111853100D01*
X156053600Y-111853100D02*
X156053600Y-103878600D01*
X156053600Y-103878600D02*
X163198000Y-96734200D01*
X163198000Y-96734200D02*
X163198000Y-91763900D01*
X158511900Y-93560800D02*
X155884900Y-90933800D01*
X155884900Y-90933800D02*
X153193200Y-90933800D01*
X153193200Y-90933800D02*
X152793000Y-91334000D01*
X144779700Y-94608200D02*
X139746800Y-99641100D01*
X139746800Y-99641100D02*
X139746800Y-134617600D01*
X139746800Y-134617600D02*
X140534800Y-135405600D01*
X140534800Y-135405600D02*
X141638500Y-135405600D01*
X141638500Y-135405600D02*
X145683600Y-131360500D01*
X145683600Y-131360500D02*
X145683600Y-129295100D01*
X145683600Y-129295100D02*
X151788700Y-123190000D01*
X151788700Y-123190000D02*
X157480000Y-123190000D01*
X152793000Y-93874000D02*
X156234800Y-93874000D01*
X156234800Y-93874000D02*
X157234600Y-94873800D01*
X152793000Y-96414000D02*
X153691300Y-97312300D01*
X153691300Y-97312300D02*
X155464500Y-97312300D01*
X154493300Y-95509200D02*
X154695100Y-95509200D01*
X154695100Y-95509200D02*
X157033000Y-97847100D01*
X157033000Y-97847100D02*
X157033000Y-97875000D01*
X160456900Y-68345200D02*
X166935700Y-74824000D01*
X166935700Y-74824000D02*
X168379400Y-74824000D01*
X168379400Y-74824000D02*
X169766500Y-76211100D01*
X169766500Y-76211100D02*
X169766500Y-100078500D01*
X169766500Y-100078500D02*
X168351000Y-101494000D01*
X154776800Y-91690300D02*
X155163900Y-91690300D01*
X155163900Y-91690300D02*
X158839500Y-95365900D01*
X158839500Y-95365900D02*
X158839500Y-96901600D01*
X168351000Y-93874000D02*
X169255900Y-92969100D01*
X169255900Y-92969100D02*
X169255900Y-88326000D01*
X169255900Y-88326000D02*
X168782300Y-87852400D01*
X168782300Y-87852400D02*
X166870900Y-87852400D01*
X166870900Y-87852400D02*
X166788800Y-87934500D01*
X162443100Y-93165300D02*
X161147700Y-91869900D01*
X161147700Y-91869900D02*
X161013200Y-91869900D01*
X167640000Y-114300000D02*
X167640000Y-115825300D01*
X167640000Y-115825300D02*
X170649900Y-115825300D01*
X170649900Y-115825300D02*
X171305400Y-115169800D01*
X171305400Y-115169800D02*
X171305400Y-112642000D01*
X171305400Y-112642000D02*
X173845400Y-110102000D01*
X173845400Y-110102000D02*
X173845400Y-105141600D01*
X173845400Y-105141600D02*
X177680400Y-101306600D01*
X177680400Y-101306600D02*
X177680400Y-89349600D01*
X177680400Y-89349600D02*
X179315000Y-87715000D01*
X165758900Y-118531600D02*
X164800100Y-118531600D01*
X164800100Y-118531600D02*
X161386300Y-115117800D01*
X161386300Y-115117800D02*
X161386300Y-99182800D01*
X161386300Y-99182800D02*
X165042500Y-95526600D01*
X165042500Y-95526600D02*
X165042500Y-86995200D01*
X165042500Y-86995200D02*
X165783700Y-86254000D01*
X179315000Y-85175000D02*
X175728200Y-85175000D01*
X175728200Y-85175000D02*
X174819800Y-84266600D01*
X168351000Y-83714000D02*
X167285600Y-83714000D01*
X167285600Y-83714000D02*
X160281100Y-90718500D01*
X160281100Y-90718500D02*
X160281100Y-96043600D01*
X160281100Y-96043600D02*
X160465400Y-96227900D01*
X160465400Y-96227900D02*
X160465400Y-98521600D01*
X160465400Y-98521600D02*
X155603300Y-103383700D01*
X155603300Y-103383700D02*
X155603300Y-110959200D01*
X155603300Y-110959200D02*
X149827500Y-116735000D01*
X149827500Y-116735000D02*
X149813000Y-116735000D01*
X175728100Y-83389600D02*
X178560400Y-83389600D01*
X178560400Y-83389600D02*
X179315000Y-82635000D01*
X184577900Y-67576300D02*
X184577900Y-103004400D01*
X184577900Y-103004400D02*
X184347000Y-103235300D01*
X184347000Y-103235300D02*
X184347000Y-115836100D01*
X184347000Y-115836100D02*
X175817700Y-124365400D01*
X175817700Y-124365400D02*
X172214100Y-124365400D01*
X172214100Y-124365400D02*
X171355300Y-123506600D01*
X171355300Y-123506600D02*
X171355300Y-122633200D01*
X171355300Y-122633200D02*
X170547400Y-121825300D01*
X170547400Y-121825300D02*
X170180000Y-121825300D01*
X176658200Y-77438200D02*
X179315000Y-80095000D01*
X181040000Y-65904500D02*
X180267100Y-66677400D01*
X180267100Y-66677400D02*
X180267100Y-67803100D01*
X180267100Y-67803100D02*
X179405200Y-68665000D01*
X179405200Y-68665000D02*
X179280600Y-68665000D01*
X179280600Y-68665000D02*
X176658200Y-71287400D01*
X176658200Y-71287400D02*
X176658200Y-77438200D01*
X174654400Y-78143300D02*
X175953100Y-78143300D01*
X175953100Y-78143300D02*
X176658200Y-77438200D01*
X170180000Y-120650000D02*
X170180000Y-121825300D01*
X166464700Y-120650000D02*
X166464700Y-120299700D01*
X166464700Y-120299700D02*
X165202900Y-119037900D01*
X165202900Y-119037900D02*
X162726900Y-119037900D01*
X162726900Y-119037900D02*
X158605400Y-114916400D01*
X158605400Y-114916400D02*
X158605400Y-112919000D01*
X158605400Y-112919000D02*
X158430100Y-112743700D01*
X158430100Y-112743700D02*
X156253200Y-112743700D01*
X156253200Y-112743700D02*
X151361200Y-117635700D01*
X151361200Y-117635700D02*
X149448800Y-117635700D01*
X149448800Y-117635700D02*
X148909000Y-117095900D01*
X148909000Y-117095900D02*
X148909000Y-116379700D01*
X148909000Y-116379700D02*
X149497100Y-115791600D01*
X149497100Y-115791600D02*
X150134000Y-115791600D01*
X150134000Y-115791600D02*
X155153000Y-110772600D01*
X155153000Y-110772600D02*
X155153000Y-102250800D01*
X155153000Y-102250800D02*
X160015100Y-97388700D01*
X160015100Y-97388700D02*
X160015100Y-96414500D01*
X160015100Y-96414500D02*
X159830800Y-96230200D01*
X159830800Y-96230200D02*
X159830800Y-89154500D01*
X159830800Y-89154500D02*
X165009200Y-83976100D01*
X165009200Y-83976100D02*
X165009200Y-78634000D01*
X149813000Y-71015000D02*
X151082000Y-72284000D01*
X151082000Y-72284000D02*
X158659200Y-72284000D01*
X158659200Y-72284000D02*
X165009200Y-78634000D01*
X165009200Y-78634000D02*
X168351000Y-78634000D01*
X167640000Y-120650000D02*
X166464700Y-120650000D01*
X177616400Y-77358400D02*
X179118400Y-77358400D01*
X179118400Y-77358400D02*
X179315000Y-77555000D01*
X152176000Y-118920600D02*
X152176000Y-118920500D01*
X152176000Y-118920500D02*
X149383100Y-118920500D01*
X149383100Y-118920500D02*
X148008400Y-117545800D01*
X148008400Y-117545800D02*
X148008400Y-114724200D01*
X148008400Y-114724200D02*
X149519700Y-113212900D01*
X149519700Y-113212900D02*
X150212400Y-113212900D01*
X150212400Y-113212900D02*
X154168400Y-109256900D01*
X154168400Y-109256900D02*
X154168400Y-98929900D01*
X154168400Y-98929900D02*
X153280600Y-98042100D01*
X153280600Y-98042100D02*
X153141400Y-98042100D01*
X153141400Y-98042100D02*
X151464000Y-96364700D01*
X151464000Y-96364700D02*
X151464000Y-75206000D01*
X151464000Y-75206000D02*
X149813000Y-73555000D01*
X177435700Y-75830800D02*
X178499200Y-75830800D01*
X178499200Y-75830800D02*
X179315000Y-75015000D01*
X178698100Y-73091900D02*
X178125800Y-73091900D01*
X178125800Y-73091900D02*
X177663700Y-73554000D01*
X178698100Y-73091900D02*
X179315000Y-72475000D01*
X173622600Y-111631200D02*
X176385400Y-108868400D01*
X176385400Y-108868400D02*
X176385400Y-105708500D01*
X176385400Y-105708500D02*
X180267200Y-101826700D01*
X180267200Y-101826700D02*
X180267200Y-74661000D01*
X180267200Y-74661000D02*
X178698100Y-73091900D01*
X168351000Y-73554000D02*
X159600900Y-64803900D01*
X159600900Y-64803900D02*
X159600900Y-64714800D01*
X129942700Y-92508600D02*
X132950600Y-92508600D01*
X132950600Y-92508600D02*
X134317000Y-93875000D01*
X129540000Y-92710000D02*
X129741400Y-92508600D01*
X129741400Y-92508600D02*
X129942700Y-92508600D01*
X129942700Y-92508600D02*
X129942700Y-72700000D01*
X168351000Y-66849500D02*
X168351000Y-68474000D01*
X179315000Y-67395000D02*
X179315000Y-62715200D01*
X179315000Y-62715200D02*
X181612100Y-60418100D01*
X181612100Y-60418100D02*
X181612100Y-59229000D01*
X181612100Y-59229000D02*
X180847700Y-58464600D01*
X180847700Y-58464600D02*
X176735900Y-58464600D01*
X176735900Y-58464600D02*
X168351000Y-66849500D01*
X129942700Y-72700000D02*
X133305400Y-69337300D01*
X133305400Y-69337300D02*
X133305400Y-59271800D01*
X133305400Y-59271800D02*
X134567100Y-58010100D01*
X134567100Y-58010100D02*
X158249700Y-58010100D01*
X158249700Y-58010100D02*
X167089100Y-66849500D01*
X167089100Y-66849500D02*
X168351000Y-66849500D01*
X128480000Y-72700000D02*
X129942700Y-72700000D01*
X182975000Y-75919500D02*
X184127500Y-77072000D01*
X184127500Y-77072000D02*
X184127500Y-95653400D01*
X184127500Y-95653400D02*
X182975000Y-96805900D01*
X182975000Y-71742300D02*
X182975000Y-75919500D01*
X124724700Y-80405000D02*
X124724700Y-84044700D01*
X124724700Y-84044700D02*
X125115000Y-84435000D01*
X125115000Y-84435000D02*
X125770000Y-85090000D01*
X120650000Y-88900000D02*
X125115000Y-84435000D01*
X125875000Y-80405000D02*
X124724700Y-80405000D01*
X117000000Y-82220000D02*
X118325300Y-82220000D01*
X114300000Y-93272600D02*
X118325300Y-89247300D01*
X118325300Y-89247300D02*
X118325300Y-82220000D01*
X114300000Y-93272600D02*
X114300000Y-93835300D01*
X114300000Y-92710000D02*
X114300000Y-93272600D01*
X114300000Y-93835300D02*
X110490000Y-97645300D01*
X110490000Y-97645300D02*
X110490000Y-102870000D01*
X182975000Y-67565000D02*
X182975000Y-71742300D01*
X165100000Y-112774700D02*
X166393400Y-111481300D01*
X166393400Y-111481300D02*
X166393400Y-90751600D01*
X166393400Y-90751600D02*
X168351000Y-88794000D01*
X165100000Y-114300000D02*
X165100000Y-112774700D01*
X143000000Y-64000000D02*
X140000000Y-64000000D01*
X140000000Y-64000000D02*
X138000000Y-62000000D01*
X138000000Y-62000000D02*
X138000000Y-62000000D01*
X172720000Y-129540000D02*
X179220000Y-129540000D01*
X152793000Y-101494000D02*
X151434500Y-100135500D01*
X151434500Y-100135500D02*
X151434500Y-98036500D01*
X151434500Y-98036500D02*
X149813000Y-96415000D01*
X179220000Y-129540000D02*
X182059700Y-126700300D01*
X182059700Y-126700300D02*
X182059700Y-120192000D01*
X157480000Y-115825300D02*
X158655400Y-117000700D01*
X158655400Y-117000700D02*
X158655400Y-128175400D01*
X141120000Y-129540000D02*
X143878100Y-129540000D01*
X158655400Y-128175400D02*
X160020000Y-129540000D01*
X153820000Y-129540000D02*
X157290800Y-129540000D01*
X157290800Y-129540000D02*
X158655400Y-128175400D01*
X147320000Y-129540000D02*
X153820000Y-129540000D01*
X125730000Y-75705900D02*
X121739400Y-75705900D01*
X121739400Y-75705900D02*
X118075300Y-79370000D01*
X125730000Y-74900000D02*
X125730000Y-75705900D01*
X128125000Y-82655100D02*
X129275400Y-81504700D01*
X129275400Y-81504700D02*
X129275400Y-79251300D01*
X129275400Y-79251300D02*
X125730000Y-75705900D01*
X128125000Y-82655100D02*
X128125000Y-83155300D01*
X128125000Y-82155000D02*
X128125000Y-82655100D01*
X128125000Y-83155300D02*
X128270000Y-83300300D01*
X128270000Y-83300300D02*
X128270000Y-85090000D01*
X115674700Y-85912200D02*
X116707200Y-86944700D01*
X116707200Y-86944700D02*
X116900000Y-86944700D01*
X115674700Y-85420000D02*
X115674700Y-85912200D01*
X115674700Y-85912200D02*
X113316900Y-88270000D01*
X113316900Y-88270000D02*
X111450000Y-88270000D01*
X182975000Y-88451400D02*
X182975000Y-84274100D01*
X182975000Y-80096800D02*
X182975000Y-84274100D01*
X129540000Y-100330000D02*
X131065300Y-100330000D01*
X127297600Y-92459700D02*
X127297600Y-86062400D01*
X127297600Y-86062400D02*
X128270000Y-85090000D01*
X131065300Y-100330000D02*
X131065300Y-94770800D01*
X131065300Y-94770800D02*
X130274500Y-93980000D01*
X130274500Y-93980000D02*
X128817900Y-93980000D01*
X128817900Y-93980000D02*
X127297600Y-92459700D01*
X127297600Y-92459700D02*
X123695600Y-92459700D01*
X123695600Y-92459700D02*
X123445300Y-92710000D01*
X127000000Y-104140000D02*
X127000000Y-102870000D01*
X127000000Y-102870000D02*
X129540000Y-100330000D01*
X121920000Y-92710000D02*
X123445300Y-92710000D01*
X114882400Y-80212300D02*
X114040100Y-79370000D01*
X114040100Y-79370000D02*
X112625300Y-79370000D01*
X115674700Y-85420000D02*
X115674700Y-81004600D01*
X115674700Y-81004600D02*
X114882400Y-80212300D01*
X114882400Y-80212300D02*
X115724700Y-79370000D01*
X116900000Y-79370000D02*
X115724700Y-79370000D01*
X116900000Y-79370000D02*
X118075300Y-79370000D01*
X111450000Y-79370000D02*
X112625300Y-79370000D01*
X117000000Y-85420000D02*
X115674700Y-85420000D01*
X116900000Y-88270000D02*
X116900000Y-86944700D01*
X126904700Y-65700000D02*
X126904700Y-73725300D01*
X126904700Y-73725300D02*
X125730000Y-74900000D01*
X125730000Y-63500000D02*
X125730000Y-64525300D01*
X125730000Y-64525300D02*
X126904700Y-65700000D01*
X124460000Y-58420000D02*
X124460000Y-62230000D01*
X124460000Y-62230000D02*
X125730000Y-63500000D01*
X128480000Y-65700000D02*
X126904700Y-65700000D01*
X182975000Y-105160000D02*
X182975000Y-100983000D01*
X182975000Y-109338000D02*
X182975000Y-105160000D01*
X182975000Y-113515000D02*
X182975000Y-109338000D01*
X182975000Y-88451400D02*
X182975000Y-92628600D01*
X157480000Y-114300000D02*
X157480000Y-115825300D01*
X121920000Y-97790000D02*
X120394700Y-97790000D01*
X120690000Y-108460000D02*
X120394700Y-108164700D01*
X120394700Y-108164700D02*
X120394700Y-97790000D01*
X193135000Y-91503300D02*
X188152400Y-86520700D01*
X188152400Y-86520700D02*
X188152400Y-65198900D01*
X188152400Y-65198900D02*
X188193200Y-65158100D01*
X193135000Y-92628600D02*
X193135000Y-91503300D01*
X166520000Y-134040000D02*
X166520000Y-133852300D01*
X166520000Y-133852300D02*
X174286300Y-126086000D01*
X174286300Y-126086000D02*
X174734000Y-126086000D01*
X174734000Y-126086000D02*
X185072300Y-115747700D01*
X185072300Y-115747700D02*
X185072300Y-103535700D01*
X160020000Y-134040000D02*
X166520000Y-134040000D01*
X193135000Y-87326100D02*
X188877800Y-83068900D01*
X188877800Y-83068900D02*
X188877800Y-73174000D01*
X193135000Y-88451400D02*
X193135000Y-87326100D01*
X193135000Y-80096800D02*
X193135000Y-78971500D01*
X162560000Y-59690000D02*
X163785300Y-59690000D01*
X163785300Y-59690000D02*
X163785300Y-59230500D01*
X163785300Y-59230500D02*
X165975500Y-57040300D01*
X165975500Y-57040300D02*
X188323100Y-57040300D01*
X188323100Y-57040300D02*
X192009700Y-60726900D01*
X192009700Y-60726900D02*
X192009700Y-77846200D01*
X192009700Y-77846200D02*
X193135000Y-78971500D01*
X193135000Y-108212700D02*
X186385200Y-101462900D01*
X186385200Y-101462900D02*
X186385200Y-67899800D01*
X193135000Y-109338000D02*
X193135000Y-108212700D01*
X134620000Y-59690000D02*
X147645000Y-72715000D01*
X147645000Y-72715000D02*
X147645000Y-100586400D01*
X147645000Y-100586400D02*
X150752000Y-103693400D01*
X150752000Y-103693400D02*
X150752000Y-110716000D01*
X150752000Y-110716000D02*
X149813000Y-111655000D01*
X170180000Y-59690000D02*
X171405300Y-59690000D01*
X193135000Y-113515000D02*
X193135000Y-112389700D01*
X193135000Y-112389700D02*
X185934800Y-105189500D01*
X185934800Y-105189500D02*
X185934800Y-68587400D01*
X185934800Y-68587400D02*
X185628000Y-68280600D01*
X185628000Y-68280600D02*
X185628000Y-63386800D01*
X185628000Y-63386800D02*
X187445200Y-61569600D01*
X187445200Y-61569600D02*
X187880400Y-61569600D01*
X187880400Y-61569600D02*
X189194700Y-60255300D01*
X189194700Y-60255300D02*
X189194700Y-59191600D01*
X189194700Y-59191600D02*
X188000600Y-57997500D01*
X188000600Y-57997500D02*
X172638300Y-57997500D01*
X172638300Y-57997500D02*
X171405300Y-59230500D01*
X171405300Y-59230500D02*
X171405300Y-59690000D01*
X138058700Y-71921900D02*
X137883500Y-72097100D01*
X137883500Y-72097100D02*
X137883500Y-108088500D01*
X137883500Y-108088500D02*
X134317000Y-111655000D01*
X180340000Y-59690000D02*
X173929100Y-66100900D01*
X173929100Y-66100900D02*
X173929100Y-103234200D01*
X173929100Y-103234200D02*
X171450000Y-105713300D01*
X171450000Y-105713300D02*
X171450000Y-111504700D01*
X171450000Y-111504700D02*
X170180000Y-112774700D01*
X170180000Y-114300000D02*
X170180000Y-112774700D01*
X187960000Y-59690000D02*
X187960000Y-60210800D01*
X187960000Y-60210800D02*
X180717600Y-67453200D01*
X180717600Y-67453200D02*
X180717600Y-102722800D01*
X180717600Y-102722800D02*
X176835800Y-106604600D01*
X176835800Y-106604600D02*
X176835800Y-109443800D01*
X176835800Y-109443800D02*
X173504900Y-112774700D01*
X173504900Y-112774700D02*
X172720000Y-112774700D01*
X172720000Y-114300000D02*
X172720000Y-112774700D01*
X162560000Y-112774700D02*
X163685400Y-111649300D01*
X163685400Y-111649300D02*
X163685400Y-98563100D01*
X163685400Y-98563100D02*
X165492900Y-96755600D01*
X165492900Y-96755600D02*
X165492900Y-87740000D01*
X165492900Y-87740000D02*
X168248900Y-84984000D01*
X168248900Y-84984000D02*
X168436100Y-84984000D01*
X168436100Y-84984000D02*
X169262900Y-84157200D01*
X169262900Y-84157200D02*
X169262900Y-78203400D01*
X169262900Y-78203400D02*
X168423900Y-77364400D01*
X168423900Y-77364400D02*
X168269800Y-77364400D01*
X168269800Y-77364400D02*
X158767700Y-67862300D01*
X158767700Y-67862300D02*
X158767700Y-59180100D01*
X158767700Y-59180100D02*
X158052200Y-58464600D01*
X158052200Y-58464600D02*
X151085400Y-58464600D01*
X151085400Y-58464600D02*
X149860000Y-59690000D01*
X162560000Y-114300000D02*
X162560000Y-112774700D01*
X191851200Y-97657200D02*
X187702000Y-93508000D01*
X187702000Y-93508000D02*
X187702000Y-66703600D01*
X187702000Y-66703600D02*
X187458400Y-66460000D01*
X187458400Y-66460000D02*
X187458400Y-64854900D01*
X187458400Y-64854900D02*
X189645100Y-62668200D01*
X189645100Y-62668200D02*
X189645100Y-59005000D01*
X189645100Y-59005000D02*
X188130800Y-57490700D01*
X188130800Y-57490700D02*
X169836400Y-57490700D01*
X169836400Y-57490700D02*
X168347800Y-58979300D01*
X149813000Y-101495000D02*
X150730800Y-100577200D01*
X150730800Y-100577200D02*
X150730800Y-98592100D01*
X150730800Y-98592100D02*
X148919000Y-96780300D01*
X148919000Y-96780300D02*
X148919000Y-68084700D01*
X148919000Y-68084700D02*
X157313700Y-59690000D01*
X157313700Y-59690000D02*
X157480000Y-59690000D01*
X141208800Y-68343800D02*
X141208800Y-89358700D01*
X141208800Y-89358700D02*
X138333800Y-92233700D01*
X138333800Y-92233700D02*
X138333800Y-110178200D01*
X138333800Y-110178200D02*
X134317000Y-114195000D01*
X149813000Y-98955000D02*
X148468600Y-97610600D01*
X148468600Y-97610600D02*
X148468600Y-65918600D01*
X148468600Y-65918600D02*
X142240000Y-59690000D01*
X134317000Y-78635000D02*
X137158100Y-81476100D01*
X137158100Y-81476100D02*
X137158100Y-105525100D01*
X148879800Y-112598500D02*
X147558100Y-113920200D01*
X147558100Y-113920200D02*
X147558100Y-126406200D01*
X147558100Y-126406200D02*
X144782900Y-129181400D01*
X144782900Y-129181400D02*
X144782900Y-130377100D01*
X144782900Y-130377100D02*
X141120000Y-134040000D01*
X148879800Y-112598500D02*
X150189900Y-112598500D01*
X150189900Y-112598500D02*
X152116300Y-110672100D01*
X152116300Y-110672100D02*
X152116300Y-107608400D01*
X149813000Y-104035000D02*
X148879800Y-104968200D01*
X148879800Y-104968200D02*
X148879800Y-112598500D01*
X125875000Y-83155300D02*
X125875000Y-83431400D01*
X125875000Y-82155000D02*
X125875000Y-83155300D01*
X193135000Y-84274100D02*
X193135000Y-83148800D01*
X193135000Y-83148800D02*
X191559300Y-81573100D01*
X191559300Y-81573100D02*
X191559300Y-74105000D01*
X191559300Y-74105000D02*
X189330100Y-71875800D01*
X193135000Y-99857700D02*
X192994300Y-99857700D01*
X192994300Y-99857700D02*
X187114200Y-93977600D01*
X187114200Y-93977600D02*
X187114200Y-67603000D01*
X187114200Y-67603000D02*
X186984100Y-67472900D01*
X186984100Y-67472900D02*
X186984100Y-63056700D01*
X186984100Y-63056700D02*
X187036100Y-63004700D01*
X193135000Y-100983000D02*
X193135000Y-99857700D01*
X153820000Y-134040000D02*
X158058800Y-134040000D01*
X158058800Y-134040000D02*
X166464600Y-125634200D01*
X166464600Y-125634200D02*
X166464600Y-122664400D01*
X166464600Y-122664400D02*
X167303600Y-121825400D01*
X167303600Y-121825400D02*
X168165600Y-121825400D01*
X168165600Y-121825400D02*
X168910000Y-121081000D01*
X168910000Y-121081000D02*
X168910000Y-120220600D01*
X168910000Y-120220600D02*
X173990000Y-115140600D01*
X173990000Y-115140600D02*
X173990000Y-113578400D01*
X173990000Y-113578400D02*
X177736400Y-109832000D01*
X177736400Y-109832000D02*
X177736400Y-106909500D01*
X177736400Y-106909500D02*
X181508900Y-103137000D01*
X181508900Y-103137000D02*
X181508900Y-80074000D01*
X129540000Y-97790000D02*
X128014700Y-97790000D01*
X128014700Y-97790000D02*
X128014700Y-100625300D01*
X128014700Y-100625300D02*
X124500000Y-104140000D01*
X129540000Y-95250000D02*
X129540000Y-97790000D01*
X121920000Y-95250000D02*
X123445300Y-95250000D01*
X123445300Y-95250000D02*
X123445300Y-101384700D01*
X123445300Y-101384700D02*
X123374600Y-101455400D01*
X123374600Y-101455400D02*
X123374600Y-107051800D01*
X123374600Y-107051800D02*
X124748300Y-108425500D01*
X124748300Y-108425500D02*
X124748300Y-122471700D01*
X124748300Y-122471700D02*
X123340000Y-123880000D01*
X128125000Y-80405000D02*
X128125000Y-79404700D01*
X118190000Y-108460000D02*
X118190000Y-107434700D01*
X118190000Y-107434700D02*
X118990800Y-106633900D01*
X118990800Y-106633900D02*
X118990800Y-85322600D01*
X118990800Y-85322600D02*
X124908700Y-79404700D01*
X124908700Y-79404700D02*
X128125000Y-79404700D01*
D36*
G36*
X192596409Y-53987914D02*
G01*
X193170102Y-54161122D01*
X193699224Y-54442462D01*
X194163625Y-54821218D01*
X194545612Y-55282961D01*
X194830640Y-55810108D01*
X195007848Y-56382577D01*
X195075000Y-57021479D01*
X195075001Y-133954754D01*
X195012087Y-134596406D01*
X194838878Y-135170101D01*
X194557540Y-135699221D01*
X194178782Y-136163625D01*
X193717039Y-136545612D01*
X193189888Y-136830642D01*
X192617422Y-137007849D01*
X191978522Y-137075000D01*
X113045236Y-137075000D01*
X112403594Y-137012087D01*
X111829899Y-136838878D01*
X111300779Y-136557540D01*
X110836375Y-136178782D01*
X110454388Y-135717039D01*
X110169358Y-135189888D01*
X109992151Y-134617422D01*
X109925000Y-133978522D01*
X109925000Y-133852866D01*
X132720000Y-133852866D01*
X132720000Y-134227134D01*
X132793016Y-134594209D01*
X132936242Y-134939987D01*
X133144174Y-135251179D01*
X133408821Y-135515826D01*
X133720013Y-135723758D01*
X134065791Y-135866984D01*
X134432866Y-135940000D01*
X134807134Y-135940000D01*
X135174209Y-135866984D01*
X135519987Y-135723758D01*
X135831179Y-135515826D01*
X136095826Y-135251179D01*
X136303758Y-134939987D01*
X136446984Y-134594209D01*
X136520000Y-134227134D01*
X136520000Y-133852866D01*
X136446984Y-133485791D01*
X136303758Y-133140013D01*
X136095826Y-132828821D01*
X135831179Y-132564174D01*
X135519987Y-132356242D01*
X135174209Y-132213016D01*
X134807134Y-132140000D01*
X134432866Y-132140000D01*
X134065791Y-132213016D01*
X133720013Y-132356242D01*
X133408821Y-132564174D01*
X133144174Y-132828821D01*
X132936242Y-133140013D01*
X132793016Y-133485791D01*
X132720000Y-133852866D01*
X109925000Y-133852866D01*
X109925000Y-130672726D01*
X133634353Y-130672726D01*
X133726785Y-130946341D01*
X134018311Y-131093577D01*
X134332960Y-131181109D01*
X134658640Y-131205574D01*
X134982835Y-131166032D01*
X135293086Y-131064002D01*
X135513215Y-130946341D01*
X135605647Y-130672726D01*
X134620000Y-129687078D01*
X133634353Y-130672726D01*
X109925000Y-130672726D01*
X109925000Y-129578640D01*
X132954426Y-129578640D01*
X132993968Y-129902835D01*
X133095998Y-130213086D01*
X133213659Y-130433215D01*
X133487274Y-130525647D01*
X134472922Y-129540000D01*
X134767078Y-129540000D01*
X135752726Y-130525647D01*
X136026341Y-130433215D01*
X136173577Y-130141689D01*
X136261109Y-129827040D01*
X136285574Y-129501360D01*
X136246032Y-129177165D01*
X136144002Y-128866914D01*
X136026341Y-128646785D01*
X135752726Y-128554353D01*
X134767078Y-129540000D01*
X134472922Y-129540000D01*
X133487274Y-128554353D01*
X133213659Y-128646785D01*
X133066423Y-128938311D01*
X132978891Y-129252960D01*
X132954426Y-129578640D01*
X109925000Y-129578640D01*
X109925000Y-128407274D01*
X133634353Y-128407274D01*
X134620000Y-129392922D01*
X135605647Y-128407274D01*
X135513215Y-128133659D01*
X135221689Y-127986423D01*
X134907040Y-127898891D01*
X134581360Y-127874426D01*
X134257165Y-127913968D01*
X133946914Y-128015998D01*
X133726785Y-128133659D01*
X133634353Y-128407274D01*
X109925000Y-128407274D01*
X109925000Y-123692866D01*
X114940000Y-123692866D01*
X114940000Y-124067134D01*
X115013016Y-124434209D01*
X115156242Y-124779987D01*
X115364174Y-125091179D01*
X115628821Y-125355826D01*
X115940013Y-125563758D01*
X116285791Y-125706984D01*
X116652866Y-125780000D01*
X117027134Y-125780000D01*
X117394209Y-125706984D01*
X117739987Y-125563758D01*
X118051179Y-125355826D01*
X118315826Y-125091179D01*
X118523758Y-124779987D01*
X118666984Y-124434209D01*
X118740000Y-124067134D01*
X118740000Y-123692866D01*
X118666984Y-123325791D01*
X118523758Y-122980013D01*
X118315826Y-122668821D01*
X118051179Y-122404174D01*
X117739987Y-122196242D01*
X117394209Y-122053016D01*
X117027134Y-121980000D01*
X116652866Y-121980000D01*
X116285791Y-122053016D01*
X115940013Y-122196242D01*
X115628821Y-122404174D01*
X115364174Y-122668821D01*
X115156242Y-122980013D01*
X115013016Y-123325791D01*
X114940000Y-123692866D01*
X109925000Y-123692866D01*
X109925000Y-120512726D01*
X115854353Y-120512726D01*
X115946785Y-120786341D01*
X116238311Y-120933577D01*
X116552960Y-121021109D01*
X116878640Y-121045574D01*
X117202835Y-121006032D01*
X117513086Y-120904002D01*
X117733215Y-120786341D01*
X117825647Y-120512726D01*
X116840000Y-119527078D01*
X115854353Y-120512726D01*
X109925000Y-120512726D01*
X109925000Y-119418640D01*
X115174426Y-119418640D01*
X115213968Y-119742835D01*
X115315998Y-120053086D01*
X115433659Y-120273215D01*
X115707274Y-120365647D01*
X116692922Y-119380000D01*
X116987078Y-119380000D01*
X117972726Y-120365647D01*
X118246341Y-120273215D01*
X118393577Y-119981689D01*
X118481109Y-119667040D01*
X118499768Y-119418640D01*
X121674426Y-119418640D01*
X121713968Y-119742835D01*
X121815998Y-120053086D01*
X121933659Y-120273215D01*
X122207274Y-120365647D01*
X123192922Y-119380000D01*
X122207274Y-118394353D01*
X121933659Y-118486785D01*
X121786423Y-118778311D01*
X121698891Y-119092960D01*
X121674426Y-119418640D01*
X118499768Y-119418640D01*
X118505574Y-119341360D01*
X118466032Y-119017165D01*
X118364002Y-118706914D01*
X118246341Y-118486785D01*
X117972726Y-118394353D01*
X116987078Y-119380000D01*
X116692922Y-119380000D01*
X115707274Y-118394353D01*
X115433659Y-118486785D01*
X115286423Y-118778311D01*
X115198891Y-119092960D01*
X115174426Y-119418640D01*
X109925000Y-119418640D01*
X109925000Y-118247274D01*
X115854353Y-118247274D01*
X116840000Y-119232922D01*
X117825647Y-118247274D01*
X117733215Y-117973659D01*
X117441689Y-117826423D01*
X117127040Y-117738891D01*
X116801360Y-117714426D01*
X116477165Y-117753968D01*
X116166914Y-117855998D01*
X115946785Y-117973659D01*
X115854353Y-118247274D01*
X109925000Y-118247274D01*
X109925000Y-104476036D01*
X109994128Y-104504670D01*
X110322565Y-104570000D01*
X110657435Y-104570000D01*
X110985872Y-104504670D01*
X111295252Y-104376521D01*
X111573687Y-104190477D01*
X111810477Y-103953687D01*
X111996521Y-103675252D01*
X112124670Y-103365872D01*
X112190000Y-103037435D01*
X112190000Y-102702565D01*
X112600000Y-102702565D01*
X112600000Y-103037435D01*
X112665330Y-103365872D01*
X112793479Y-103675252D01*
X112979523Y-103953687D01*
X113216313Y-104190477D01*
X113494748Y-104376521D01*
X113804128Y-104504670D01*
X114132565Y-104570000D01*
X114467435Y-104570000D01*
X114795872Y-104504670D01*
X115105252Y-104376521D01*
X115383687Y-104190477D01*
X115620477Y-103953687D01*
X115806521Y-103675252D01*
X115934670Y-103365872D01*
X116000000Y-103037435D01*
X116000000Y-102702565D01*
X115934670Y-102374128D01*
X115806521Y-102064748D01*
X115620477Y-101786313D01*
X115383687Y-101549523D01*
X115105252Y-101363479D01*
X114795872Y-101235330D01*
X114467435Y-101170000D01*
X114132565Y-101170000D01*
X113804128Y-101235330D01*
X113494748Y-101363479D01*
X113216313Y-101549523D01*
X112979523Y-101786313D01*
X112793479Y-102064748D01*
X112665330Y-102374128D01*
X112600000Y-102702565D01*
X112190000Y-102702565D01*
X112124670Y-102374128D01*
X111996521Y-102064748D01*
X111810477Y-101786313D01*
X111573687Y-101549523D01*
X111515000Y-101510310D01*
X111515000Y-98069867D01*
X114989181Y-94595688D01*
X115028291Y-94563591D01*
X115084908Y-94494604D01*
X115156380Y-94407515D01*
X115251558Y-94229449D01*
X115292424Y-94094732D01*
X115507897Y-93917897D01*
X115720337Y-93659039D01*
X115878194Y-93363709D01*
X115973875Y-93048293D01*
X117965801Y-91056368D01*
X117965800Y-106209332D01*
X117500824Y-106674309D01*
X117461710Y-106706409D01*
X117333621Y-106862485D01*
X117328790Y-106871524D01*
X117313569Y-106873023D01*
X117143919Y-106924486D01*
X116987568Y-107008057D01*
X116850525Y-107120525D01*
X116738057Y-107257568D01*
X116654486Y-107413919D01*
X116603023Y-107583569D01*
X116585646Y-107760000D01*
X116585646Y-109160000D01*
X116603023Y-109336431D01*
X116654486Y-109506081D01*
X116738057Y-109662432D01*
X116850525Y-109799475D01*
X116987568Y-109911943D01*
X117143919Y-109995514D01*
X117313569Y-110046977D01*
X117490000Y-110064354D01*
X118890000Y-110064354D01*
X119066431Y-110046977D01*
X119236081Y-109995514D01*
X119392432Y-109911943D01*
X119529475Y-109799475D01*
X119636420Y-109669162D01*
X119670059Y-109702801D01*
X119932116Y-109877902D01*
X120223297Y-109998513D01*
X120532414Y-110060000D01*
X120847586Y-110060000D01*
X121156703Y-109998513D01*
X121447884Y-109877902D01*
X121709941Y-109702801D01*
X121932801Y-109479941D01*
X121940000Y-109469167D01*
X121947199Y-109479941D01*
X122170059Y-109702801D01*
X122432116Y-109877902D01*
X122723297Y-109998513D01*
X123032414Y-110060000D01*
X123347586Y-110060000D01*
X123656703Y-109998513D01*
X123723300Y-109970928D01*
X123723300Y-110249072D01*
X123656703Y-110221487D01*
X123347586Y-110160000D01*
X123032414Y-110160000D01*
X122723297Y-110221487D01*
X122432116Y-110342098D01*
X122170059Y-110517199D01*
X121947199Y-110740059D01*
X121940000Y-110750833D01*
X121932801Y-110740059D01*
X121709941Y-110517199D01*
X121447884Y-110342098D01*
X121156703Y-110221487D01*
X120847586Y-110160000D01*
X120532414Y-110160000D01*
X120223297Y-110221487D01*
X119932116Y-110342098D01*
X119670059Y-110517199D01*
X119447199Y-110740059D01*
X119440000Y-110750833D01*
X119432801Y-110740059D01*
X119209941Y-110517199D01*
X118947884Y-110342098D01*
X118656703Y-110221487D01*
X118347586Y-110160000D01*
X118032414Y-110160000D01*
X117723297Y-110221487D01*
X117432116Y-110342098D01*
X117170059Y-110517199D01*
X116947199Y-110740059D01*
X116772098Y-111002116D01*
X116651487Y-111293297D01*
X116590000Y-111602414D01*
X116590000Y-111917586D01*
X116651487Y-112226703D01*
X116772098Y-112517884D01*
X116947199Y-112779941D01*
X117170059Y-113002801D01*
X117432116Y-113177902D01*
X117723297Y-113298513D01*
X118032414Y-113360000D01*
X118347586Y-113360000D01*
X118656703Y-113298513D01*
X118947884Y-113177902D01*
X119209941Y-113002801D01*
X119432801Y-112779941D01*
X119440000Y-112769167D01*
X119447199Y-112779941D01*
X119670059Y-113002801D01*
X119932116Y-113177902D01*
X120223297Y-113298513D01*
X120532414Y-113360000D01*
X120847586Y-113360000D01*
X121156703Y-113298513D01*
X121447884Y-113177902D01*
X121709941Y-113002801D01*
X121932801Y-112779941D01*
X121940000Y-112769167D01*
X121947199Y-112779941D01*
X122170059Y-113002801D01*
X122432116Y-113177902D01*
X122723297Y-113298513D01*
X123032414Y-113360000D01*
X123347586Y-113360000D01*
X123656703Y-113298513D01*
X123723300Y-113270928D01*
X123723301Y-117765670D01*
X123627040Y-117738891D01*
X123301360Y-117714426D01*
X122977165Y-117753968D01*
X122666914Y-117855998D01*
X122446785Y-117973659D01*
X122354353Y-118247274D01*
X123340000Y-119232922D01*
X123354143Y-119218780D01*
X123501221Y-119365858D01*
X123487078Y-119380000D01*
X123501221Y-119394143D01*
X123354143Y-119541221D01*
X123340000Y-119527078D01*
X122354353Y-120512726D01*
X122446785Y-120786341D01*
X122738311Y-120933577D01*
X123052960Y-121021109D01*
X123378640Y-121045574D01*
X123702835Y-121006032D01*
X123723301Y-120999302D01*
X123723301Y-122019020D01*
X123527134Y-121980000D01*
X123152866Y-121980000D01*
X122785791Y-122053016D01*
X122440013Y-122196242D01*
X122128821Y-122404174D01*
X121864174Y-122668821D01*
X121656242Y-122980013D01*
X121513016Y-123325791D01*
X121440000Y-123692866D01*
X121440000Y-124067134D01*
X121513016Y-124434209D01*
X121656242Y-124779987D01*
X121864174Y-125091179D01*
X122128821Y-125355826D01*
X122440013Y-125563758D01*
X122785791Y-125706984D01*
X123152866Y-125780000D01*
X123527134Y-125780000D01*
X123894209Y-125706984D01*
X124239987Y-125563758D01*
X124551179Y-125355826D01*
X124815826Y-125091179D01*
X125023758Y-124779987D01*
X125166984Y-124434209D01*
X125240000Y-124067134D01*
X125240000Y-123692866D01*
X125196316Y-123473253D01*
X125437481Y-123232088D01*
X125476591Y-123199991D01*
X125604680Y-123043915D01*
X125699858Y-122865848D01*
X125758469Y-122672635D01*
X125773300Y-122522051D01*
X125778259Y-122471700D01*
X125773300Y-122421349D01*
X125773300Y-108475842D01*
X125778258Y-108425499D01*
X125773300Y-108375156D01*
X125773300Y-108375149D01*
X125758469Y-108224565D01*
X125699858Y-108031352D01*
X125604680Y-107853285D01*
X125476591Y-107697209D01*
X125437481Y-107665112D01*
X124399600Y-106627233D01*
X124399600Y-105840000D01*
X124667435Y-105840000D01*
X124995872Y-105774670D01*
X125305252Y-105646521D01*
X125583687Y-105460477D01*
X125820477Y-105223687D01*
X125882926Y-105130225D01*
X126156853Y-105130225D01*
X126225173Y-105383394D01*
X126482635Y-105510664D01*
X126759980Y-105585260D01*
X127046547Y-105604315D01*
X127331327Y-105567098D01*
X127603374Y-105475038D01*
X127774827Y-105383394D01*
X127843147Y-105130225D01*
X127000000Y-104287078D01*
X126156853Y-105130225D01*
X125882926Y-105130225D01*
X125985566Y-104976614D01*
X126009775Y-104983147D01*
X126852922Y-104140000D01*
X127147078Y-104140000D01*
X127990225Y-104983147D01*
X128243394Y-104914827D01*
X128370664Y-104657365D01*
X128445260Y-104380020D01*
X128464315Y-104093453D01*
X128427098Y-103808673D01*
X128335038Y-103536626D01*
X128243394Y-103365173D01*
X127990225Y-103296853D01*
X127147078Y-104140000D01*
X126852922Y-104140000D01*
X126838780Y-104125858D01*
X126985858Y-103978780D01*
X127000000Y-103992922D01*
X127843147Y-103149775D01*
X127774827Y-102896606D01*
X127517365Y-102769336D01*
X127362016Y-102727553D01*
X128465341Y-101624228D01*
X128485964Y-101637218D01*
X128753557Y-101739696D01*
X129036000Y-101788000D01*
X129436000Y-101788000D01*
X129436000Y-100434000D01*
X129644000Y-100434000D01*
X129644000Y-101788000D01*
X130044000Y-101788000D01*
X130326443Y-101739696D01*
X130594036Y-101637218D01*
X130836494Y-101484504D01*
X131044501Y-101287423D01*
X131210062Y-101053549D01*
X131326816Y-100791869D01*
X131360112Y-100660220D01*
X131229312Y-100434000D01*
X129644000Y-100434000D01*
X129436000Y-100434000D01*
X129416000Y-100434000D01*
X129416000Y-100226000D01*
X129436000Y-100226000D01*
X129436000Y-100206000D01*
X129644000Y-100206000D01*
X129644000Y-100226000D01*
X131229312Y-100226000D01*
X131360112Y-99999780D01*
X131326816Y-99868131D01*
X131210062Y-99606451D01*
X131044501Y-99372577D01*
X130878955Y-99215727D01*
X130889039Y-99210337D01*
X131147897Y-98997897D01*
X131360337Y-98739039D01*
X131518194Y-98443709D01*
X131615402Y-98123258D01*
X131648225Y-97790000D01*
X131615402Y-97456742D01*
X131518194Y-97136291D01*
X131360337Y-96840961D01*
X131147897Y-96582103D01*
X131072225Y-96520000D01*
X131147897Y-96457897D01*
X131360337Y-96199039D01*
X131518194Y-95903709D01*
X131615402Y-95583258D01*
X131648225Y-95250000D01*
X131615402Y-94916742D01*
X131518194Y-94596291D01*
X131360337Y-94300961D01*
X131147897Y-94042103D01*
X131072225Y-93980000D01*
X131147897Y-93917897D01*
X131360337Y-93659039D01*
X131427385Y-93533600D01*
X132526033Y-93533600D01*
X132852000Y-93859568D01*
X132852000Y-94019290D01*
X132908299Y-94302325D01*
X133018733Y-94568938D01*
X133179060Y-94808883D01*
X133383117Y-95012940D01*
X133580758Y-95145000D01*
X133383117Y-95277060D01*
X133179060Y-95481117D01*
X133018733Y-95721062D01*
X132908299Y-95987675D01*
X132852000Y-96270710D01*
X132852000Y-96559290D01*
X132908299Y-96842325D01*
X133018733Y-97108938D01*
X133179060Y-97348883D01*
X133383117Y-97552940D01*
X133580758Y-97685000D01*
X133383117Y-97817060D01*
X133179060Y-98021117D01*
X133018733Y-98261062D01*
X132908299Y-98527675D01*
X132852000Y-98810710D01*
X132852000Y-99099290D01*
X132908299Y-99382325D01*
X133018733Y-99648938D01*
X133179060Y-99888883D01*
X133383117Y-100092940D01*
X133580758Y-100225000D01*
X133383117Y-100357060D01*
X133179060Y-100561117D01*
X133018733Y-100801062D01*
X132908299Y-101067675D01*
X132852000Y-101350710D01*
X132852000Y-101639290D01*
X132908299Y-101922325D01*
X133018733Y-102188938D01*
X133179060Y-102428883D01*
X133383117Y-102632940D01*
X133580758Y-102765000D01*
X133383117Y-102897060D01*
X133179060Y-103101117D01*
X133018733Y-103341062D01*
X132908299Y-103607675D01*
X132852000Y-103890710D01*
X132852000Y-104179290D01*
X132908299Y-104462325D01*
X133018733Y-104728938D01*
X133179060Y-104968883D01*
X133383117Y-105172940D01*
X133580758Y-105305000D01*
X133383117Y-105437060D01*
X133179060Y-105641117D01*
X133018733Y-105881062D01*
X132908299Y-106147675D01*
X132852000Y-106430710D01*
X132852000Y-106719290D01*
X132908299Y-107002325D01*
X133018733Y-107268938D01*
X133179060Y-107508883D01*
X133383117Y-107712940D01*
X133580758Y-107845000D01*
X133383117Y-107977060D01*
X133179060Y-108181117D01*
X133018733Y-108421062D01*
X132908299Y-108687675D01*
X132852000Y-108970710D01*
X132852000Y-109259290D01*
X132908299Y-109542325D01*
X133018733Y-109808938D01*
X133179060Y-110048883D01*
X133383117Y-110252940D01*
X133580758Y-110385000D01*
X133383117Y-110517060D01*
X133179060Y-110721117D01*
X133018733Y-110961062D01*
X132908299Y-111227675D01*
X132852000Y-111510710D01*
X132852000Y-111799290D01*
X132908299Y-112082325D01*
X133018733Y-112348938D01*
X133179060Y-112588883D01*
X133383117Y-112792940D01*
X133580758Y-112925000D01*
X133383117Y-113057060D01*
X133179060Y-113261117D01*
X133018733Y-113501062D01*
X132908299Y-113767675D01*
X132852000Y-114050710D01*
X132852000Y-114339290D01*
X132908299Y-114622325D01*
X133018733Y-114888938D01*
X133179060Y-115128883D01*
X133383117Y-115332940D01*
X133580758Y-115465000D01*
X133383117Y-115597060D01*
X133179060Y-115801117D01*
X133018733Y-116041062D01*
X132908299Y-116307675D01*
X132852000Y-116590710D01*
X132852000Y-116879290D01*
X132908299Y-117162325D01*
X133018733Y-117428938D01*
X133179060Y-117668883D01*
X133383117Y-117872940D01*
X133623062Y-118033267D01*
X133889675Y-118143701D01*
X134172710Y-118200000D01*
X134461290Y-118200000D01*
X134744325Y-118143701D01*
X135010938Y-118033267D01*
X135250883Y-117872940D01*
X135454940Y-117668883D01*
X135615267Y-117428938D01*
X135725701Y-117162325D01*
X135782000Y-116879290D01*
X135782000Y-116590710D01*
X135725701Y-116307675D01*
X135615267Y-116041062D01*
X135454940Y-115801117D01*
X135250883Y-115597060D01*
X135053242Y-115465000D01*
X135250883Y-115332940D01*
X135454940Y-115128883D01*
X135615267Y-114888938D01*
X135725701Y-114622325D01*
X135782000Y-114339290D01*
X135782000Y-114179567D01*
X138255100Y-111706467D01*
X138255101Y-134801640D01*
X138250141Y-134852000D01*
X138269931Y-135052934D01*
X138308237Y-135179209D01*
X138328543Y-135246148D01*
X138423721Y-135424215D01*
X138551810Y-135580291D01*
X138590924Y-135612392D01*
X139575212Y-136596681D01*
X139607309Y-136635791D01*
X139763385Y-136763880D01*
X139941452Y-136859058D01*
X140134665Y-136917669D01*
X140285249Y-136932500D01*
X140285259Y-136932500D01*
X140335599Y-136937458D01*
X140385939Y-136932500D01*
X149276650Y-136932500D01*
X149327000Y-136937459D01*
X149377350Y-136932500D01*
X149377351Y-136932500D01*
X149527935Y-136917669D01*
X149721148Y-136859058D01*
X149899215Y-136763880D01*
X150055291Y-136635791D01*
X150087397Y-136596670D01*
X152021381Y-134662687D01*
X152136242Y-134939987D01*
X152344174Y-135251179D01*
X152608821Y-135515826D01*
X152920013Y-135723758D01*
X153265791Y-135866984D01*
X153632866Y-135940000D01*
X154007134Y-135940000D01*
X154374209Y-135866984D01*
X154719987Y-135723758D01*
X155031179Y-135515826D01*
X155295826Y-135251179D01*
X155420227Y-135065000D01*
X158008450Y-135065000D01*
X158058800Y-135069959D01*
X158109150Y-135065000D01*
X158109151Y-135065000D01*
X158259735Y-135050169D01*
X158384562Y-135012303D01*
X158544174Y-135251179D01*
X158808821Y-135515826D01*
X159120013Y-135723758D01*
X159465791Y-135866984D01*
X159832866Y-135940000D01*
X160207134Y-135940000D01*
X160574209Y-135866984D01*
X160919987Y-135723758D01*
X161231179Y-135515826D01*
X161495826Y-135251179D01*
X161620227Y-135065000D01*
X164919773Y-135065000D01*
X165044174Y-135251179D01*
X165308821Y-135515826D01*
X165620013Y-135723758D01*
X165965791Y-135866984D01*
X166332866Y-135940000D01*
X166707134Y-135940000D01*
X167074209Y-135866984D01*
X167419987Y-135723758D01*
X167731179Y-135515826D01*
X167995826Y-135251179D01*
X168203758Y-134939987D01*
X168346984Y-134594209D01*
X168420000Y-134227134D01*
X168420000Y-133852866D01*
X170820000Y-133852866D01*
X170820000Y-134227134D01*
X170893016Y-134594209D01*
X171036242Y-134939987D01*
X171244174Y-135251179D01*
X171508821Y-135515826D01*
X171820013Y-135723758D01*
X172165791Y-135866984D01*
X172532866Y-135940000D01*
X172907134Y-135940000D01*
X173274209Y-135866984D01*
X173619987Y-135723758D01*
X173931179Y-135515826D01*
X174195826Y-135251179D01*
X174403758Y-134939987D01*
X174546984Y-134594209D01*
X174620000Y-134227134D01*
X174620000Y-133852866D01*
X177320000Y-133852866D01*
X177320000Y-134227134D01*
X177393016Y-134594209D01*
X177536242Y-134939987D01*
X177744174Y-135251179D01*
X178008821Y-135515826D01*
X178320013Y-135723758D01*
X178665791Y-135866984D01*
X179032866Y-135940000D01*
X179407134Y-135940000D01*
X179774209Y-135866984D01*
X180119987Y-135723758D01*
X180431179Y-135515826D01*
X180695826Y-135251179D01*
X180903758Y-134939987D01*
X181046984Y-134594209D01*
X181120000Y-134227134D01*
X181120000Y-133852866D01*
X181046984Y-133485791D01*
X180903758Y-133140013D01*
X180695826Y-132828821D01*
X180431179Y-132564174D01*
X180119987Y-132356242D01*
X179774209Y-132213016D01*
X179407134Y-132140000D01*
X179032866Y-132140000D01*
X178665791Y-132213016D01*
X178320013Y-132356242D01*
X178008821Y-132564174D01*
X177744174Y-132828821D01*
X177536242Y-133140013D01*
X177393016Y-133485791D01*
X177320000Y-133852866D01*
X174620000Y-133852866D01*
X174546984Y-133485791D01*
X174403758Y-133140013D01*
X174195826Y-132828821D01*
X173931179Y-132564174D01*
X173619987Y-132356242D01*
X173274209Y-132213016D01*
X172907134Y-132140000D01*
X172532866Y-132140000D01*
X172165791Y-132213016D01*
X171820013Y-132356242D01*
X171508821Y-132564174D01*
X171244174Y-132828821D01*
X171036242Y-133140013D01*
X170893016Y-133485791D01*
X170820000Y-133852866D01*
X168420000Y-133852866D01*
X168346984Y-133485791D01*
X168343789Y-133478078D01*
X170068095Y-131753772D01*
X187500000Y-131753772D01*
X187500000Y-132246228D01*
X187596074Y-132729223D01*
X187784529Y-133184194D01*
X188058124Y-133593657D01*
X188406343Y-133941876D01*
X188815806Y-134215471D01*
X189270777Y-134403926D01*
X189753772Y-134500000D01*
X190246228Y-134500000D01*
X190729223Y-134403926D01*
X191184194Y-134215471D01*
X191593657Y-133941876D01*
X191941876Y-133593657D01*
X192215471Y-133184194D01*
X192403926Y-132729223D01*
X192500000Y-132246228D01*
X192500000Y-131753772D01*
X192403926Y-131270777D01*
X192215471Y-130815806D01*
X191941876Y-130406343D01*
X191593657Y-130058124D01*
X191184194Y-129784529D01*
X190729223Y-129596074D01*
X190246228Y-129500000D01*
X189753772Y-129500000D01*
X189270777Y-129596074D01*
X188815806Y-129784529D01*
X188406343Y-130058124D01*
X188058124Y-130406343D01*
X187784529Y-130815806D01*
X187596074Y-131270777D01*
X187500000Y-131753772D01*
X170068095Y-131753772D01*
X171149141Y-130672726D01*
X171734353Y-130672726D01*
X171826785Y-130946341D01*
X172118311Y-131093577D01*
X172432960Y-131181109D01*
X172758640Y-131205574D01*
X173082835Y-131166032D01*
X173393086Y-131064002D01*
X173613215Y-130946341D01*
X173705647Y-130672726D01*
X178234353Y-130672726D01*
X178326785Y-130946341D01*
X178618311Y-131093577D01*
X178932960Y-131181109D01*
X179258640Y-131205574D01*
X179582835Y-131166032D01*
X179893086Y-131064002D01*
X180113215Y-130946341D01*
X180205647Y-130672726D01*
X179220000Y-129687078D01*
X178234353Y-130672726D01*
X173705647Y-130672726D01*
X172720000Y-129687078D01*
X171734353Y-130672726D01*
X171149141Y-130672726D01*
X171369716Y-130452152D01*
X171587274Y-130525647D01*
X172572922Y-129540000D01*
X172867078Y-129540000D01*
X173852726Y-130525647D01*
X174126341Y-130433215D01*
X174273577Y-130141689D01*
X174361109Y-129827040D01*
X174379768Y-129578640D01*
X177554426Y-129578640D01*
X177593968Y-129902835D01*
X177695998Y-130213086D01*
X177813659Y-130433215D01*
X178087274Y-130525647D01*
X179072922Y-129540000D01*
X179367078Y-129540000D01*
X180352726Y-130525647D01*
X180626341Y-130433215D01*
X180773577Y-130141689D01*
X180861109Y-129827040D01*
X180885574Y-129501360D01*
X180846032Y-129177165D01*
X180744002Y-128866914D01*
X180626341Y-128646785D01*
X180352726Y-128554353D01*
X179367078Y-129540000D01*
X179072922Y-129540000D01*
X178087274Y-128554353D01*
X177813659Y-128646785D01*
X177666423Y-128938311D01*
X177578891Y-129252960D01*
X177554426Y-129578640D01*
X174379768Y-129578640D01*
X174385574Y-129501360D01*
X174346032Y-129177165D01*
X174244002Y-128866914D01*
X174126341Y-128646785D01*
X173852726Y-128554353D01*
X172867078Y-129540000D01*
X172572922Y-129540000D01*
X172558780Y-129525858D01*
X172705858Y-129378780D01*
X172720000Y-129392922D01*
X173705647Y-128407274D01*
X178234353Y-128407274D01*
X179220000Y-129392922D01*
X180205647Y-128407274D01*
X180113215Y-128133659D01*
X179821689Y-127986423D01*
X179507040Y-127898891D01*
X179181360Y-127874426D01*
X178857165Y-127913968D01*
X178546914Y-128015998D01*
X178326785Y-128133659D01*
X178234353Y-128407274D01*
X173705647Y-128407274D01*
X173632152Y-128189716D01*
X174708428Y-127113440D01*
X174734000Y-127115959D01*
X174784350Y-127111000D01*
X174784351Y-127111000D01*
X174934935Y-127096169D01*
X175128148Y-127037558D01*
X175306215Y-126942380D01*
X175462291Y-126814291D01*
X175494397Y-126775170D01*
X185761476Y-116508092D01*
X185800591Y-116475991D01*
X185928680Y-116319915D01*
X186023858Y-116141848D01*
X186072358Y-115981966D01*
X186082469Y-115948636D01*
X186086245Y-115910291D01*
X186097300Y-115798051D01*
X186097300Y-115798044D01*
X186102258Y-115747701D01*
X186097300Y-115697358D01*
X186097300Y-106801567D01*
X191780937Y-112485206D01*
X191714663Y-112565961D01*
X191556806Y-112861291D01*
X191459598Y-113181742D01*
X191426775Y-113515000D01*
X191459598Y-113848258D01*
X191556806Y-114168709D01*
X191714663Y-114464039D01*
X191927103Y-114722897D01*
X192185961Y-114935337D01*
X192481291Y-115093194D01*
X192801742Y-115190402D01*
X193051490Y-115215000D01*
X193218510Y-115215000D01*
X193468258Y-115190402D01*
X193788709Y-115093194D01*
X194084039Y-114935337D01*
X194342897Y-114722897D01*
X194555337Y-114464039D01*
X194713194Y-114168709D01*
X194810402Y-113848258D01*
X194843225Y-113515000D01*
X194810402Y-113181742D01*
X194713194Y-112861291D01*
X194555337Y-112565961D01*
X194342897Y-112307103D01*
X194127424Y-112130268D01*
X194086558Y-111995552D01*
X193991380Y-111817485D01*
X193863291Y-111661409D01*
X193824181Y-111629312D01*
X193231581Y-111036713D01*
X193468258Y-111013402D01*
X193788709Y-110916194D01*
X194084039Y-110758337D01*
X194342897Y-110545897D01*
X194555337Y-110287039D01*
X194713194Y-109991709D01*
X194810402Y-109671258D01*
X194843225Y-109338000D01*
X194810402Y-109004742D01*
X194713194Y-108684291D01*
X194555337Y-108388961D01*
X194342897Y-108130103D01*
X194127424Y-107953268D01*
X194086558Y-107818551D01*
X193991380Y-107640485D01*
X193895388Y-107523519D01*
X193863291Y-107484409D01*
X193824181Y-107452312D01*
X193230671Y-106858802D01*
X193468258Y-106835402D01*
X193788709Y-106738194D01*
X194084039Y-106580337D01*
X194342897Y-106367897D01*
X194555337Y-106109039D01*
X194713194Y-105813709D01*
X194810402Y-105493258D01*
X194843225Y-105160000D01*
X194810402Y-104826742D01*
X194713194Y-104506291D01*
X194555337Y-104210961D01*
X194342897Y-103952103D01*
X194084039Y-103739663D01*
X193788709Y-103581806D01*
X193468258Y-103484598D01*
X193218510Y-103460000D01*
X193051490Y-103460000D01*
X192801742Y-103484598D01*
X192481291Y-103581806D01*
X192185961Y-103739663D01*
X191927103Y-103952103D01*
X191714663Y-104210961D01*
X191556806Y-104506291D01*
X191459598Y-104826742D01*
X191436198Y-105064329D01*
X187410200Y-101038333D01*
X187410200Y-95723167D01*
X191717516Y-100030485D01*
X191714663Y-100033961D01*
X191556806Y-100329291D01*
X191459598Y-100649742D01*
X191426775Y-100983000D01*
X191459598Y-101316258D01*
X191556806Y-101636709D01*
X191714663Y-101932039D01*
X191927103Y-102190897D01*
X192185961Y-102403337D01*
X192481291Y-102561194D01*
X192801742Y-102658402D01*
X193051490Y-102683000D01*
X193218510Y-102683000D01*
X193468258Y-102658402D01*
X193788709Y-102561194D01*
X194084039Y-102403337D01*
X194342897Y-102190897D01*
X194555337Y-101932039D01*
X194713194Y-101636709D01*
X194810402Y-101316258D01*
X194843225Y-100983000D01*
X194810402Y-100649742D01*
X194713194Y-100329291D01*
X194555337Y-100033961D01*
X194342897Y-99775103D01*
X194127424Y-99598268D01*
X194086558Y-99463552D01*
X193991380Y-99285485D01*
X193863291Y-99129409D01*
X193707215Y-99001320D01*
X193529148Y-98906142D01*
X193476271Y-98890102D01*
X193092069Y-98505900D01*
X193218510Y-98505900D01*
X193468258Y-98481302D01*
X193788709Y-98384094D01*
X194084039Y-98226237D01*
X194342897Y-98013797D01*
X194555337Y-97754939D01*
X194713194Y-97459609D01*
X194810402Y-97139158D01*
X194843225Y-96805900D01*
X194810402Y-96472642D01*
X194713194Y-96152191D01*
X194555337Y-95856861D01*
X194342897Y-95598003D01*
X194084039Y-95385563D01*
X193788709Y-95227706D01*
X193468258Y-95130498D01*
X193218510Y-95105900D01*
X193051490Y-95105900D01*
X192801742Y-95130498D01*
X192481291Y-95227706D01*
X192185961Y-95385563D01*
X191927103Y-95598003D01*
X191714663Y-95856861D01*
X191640040Y-95996471D01*
X188727000Y-93083433D01*
X188727000Y-88544868D01*
X191780937Y-91598806D01*
X191714663Y-91679561D01*
X191556806Y-91974891D01*
X191459598Y-92295342D01*
X191426775Y-92628600D01*
X191459598Y-92961858D01*
X191556806Y-93282309D01*
X191714663Y-93577639D01*
X191927103Y-93836497D01*
X192185961Y-94048937D01*
X192481291Y-94206794D01*
X192801742Y-94304002D01*
X193051490Y-94328600D01*
X193218510Y-94328600D01*
X193468258Y-94304002D01*
X193788709Y-94206794D01*
X194084039Y-94048937D01*
X194342897Y-93836497D01*
X194555337Y-93577639D01*
X194713194Y-93282309D01*
X194810402Y-92961858D01*
X194843225Y-92628600D01*
X194810402Y-92295342D01*
X194713194Y-91974891D01*
X194555337Y-91679561D01*
X194342897Y-91420703D01*
X194127424Y-91243868D01*
X194086558Y-91109152D01*
X193991380Y-90931085D01*
X193863291Y-90775009D01*
X193824181Y-90742912D01*
X193231399Y-90150131D01*
X193468258Y-90126802D01*
X193788709Y-90029594D01*
X194084039Y-89871737D01*
X194342897Y-89659297D01*
X194555337Y-89400439D01*
X194713194Y-89105109D01*
X194810402Y-88784658D01*
X194843225Y-88451400D01*
X194810402Y-88118142D01*
X194713194Y-87797691D01*
X194555337Y-87502361D01*
X194342897Y-87243503D01*
X194127424Y-87066668D01*
X194086558Y-86931952D01*
X193991380Y-86753885D01*
X193863291Y-86597809D01*
X193824176Y-86565708D01*
X193231307Y-85972840D01*
X193468258Y-85949502D01*
X193788709Y-85852294D01*
X194084039Y-85694437D01*
X194342897Y-85481997D01*
X194555337Y-85223139D01*
X194713194Y-84927809D01*
X194810402Y-84607358D01*
X194843225Y-84274100D01*
X194810402Y-83940842D01*
X194713194Y-83620391D01*
X194555337Y-83325061D01*
X194342897Y-83066203D01*
X194127424Y-82889368D01*
X194086558Y-82754652D01*
X193991380Y-82576585D01*
X193863291Y-82420509D01*
X193824181Y-82388412D01*
X193231308Y-81795540D01*
X193468258Y-81772202D01*
X193788709Y-81674994D01*
X194084039Y-81517137D01*
X194342897Y-81304697D01*
X194555337Y-81045839D01*
X194713194Y-80750509D01*
X194810402Y-80430058D01*
X194843225Y-80096800D01*
X194810402Y-79763542D01*
X194713194Y-79443091D01*
X194555337Y-79147761D01*
X194342897Y-78888903D01*
X194127424Y-78712068D01*
X194086558Y-78577351D01*
X193991380Y-78399285D01*
X193895388Y-78282319D01*
X193863291Y-78243209D01*
X193824181Y-78211112D01*
X193231307Y-77618240D01*
X193468258Y-77594902D01*
X193788709Y-77497694D01*
X194084039Y-77339837D01*
X194342897Y-77127397D01*
X194555337Y-76868539D01*
X194713194Y-76573209D01*
X194810402Y-76252758D01*
X194843225Y-75919500D01*
X194810402Y-75586242D01*
X194713194Y-75265791D01*
X194555337Y-74970461D01*
X194342897Y-74711603D01*
X194084039Y-74499163D01*
X193788709Y-74341306D01*
X193468258Y-74244098D01*
X193218510Y-74219500D01*
X193051490Y-74219500D01*
X193034700Y-74221154D01*
X193034700Y-73440646D01*
X193051490Y-73442300D01*
X193218510Y-73442300D01*
X193468258Y-73417702D01*
X193788709Y-73320494D01*
X194084039Y-73162637D01*
X194342897Y-72950197D01*
X194555337Y-72691339D01*
X194713194Y-72396009D01*
X194810402Y-72075558D01*
X194843225Y-71742300D01*
X194810402Y-71409042D01*
X194713194Y-71088591D01*
X194555337Y-70793261D01*
X194342897Y-70534403D01*
X194084039Y-70321963D01*
X193788709Y-70164106D01*
X193468258Y-70066898D01*
X193218510Y-70042300D01*
X193051490Y-70042300D01*
X193034700Y-70043954D01*
X193034700Y-69263346D01*
X193051490Y-69265000D01*
X193218510Y-69265000D01*
X193468258Y-69240402D01*
X193788709Y-69143194D01*
X194084039Y-68985337D01*
X194342897Y-68772897D01*
X194555337Y-68514039D01*
X194713194Y-68218709D01*
X194810402Y-67898258D01*
X194843225Y-67565000D01*
X194810402Y-67231742D01*
X194713194Y-66911291D01*
X194555337Y-66615961D01*
X194342897Y-66357103D01*
X194084039Y-66144663D01*
X193788709Y-65986806D01*
X193468258Y-65889598D01*
X193218510Y-65865000D01*
X193051490Y-65865000D01*
X193034700Y-65866654D01*
X193034700Y-60777251D01*
X193039659Y-60726900D01*
X193019869Y-60525965D01*
X192961258Y-60332751D01*
X192866080Y-60154685D01*
X192770088Y-60037719D01*
X192737991Y-59998609D01*
X192698881Y-59966512D01*
X189083497Y-56351130D01*
X189051391Y-56312009D01*
X188895315Y-56183920D01*
X188717248Y-56088742D01*
X188524035Y-56030131D01*
X188373451Y-56015300D01*
X188373450Y-56015300D01*
X188323100Y-56010341D01*
X188272750Y-56015300D01*
X166025851Y-56015300D01*
X165975500Y-56010341D01*
X165774565Y-56030131D01*
X165581351Y-56088742D01*
X165403285Y-56183920D01*
X165247209Y-56312009D01*
X165215112Y-56351119D01*
X163656977Y-57909256D01*
X163636431Y-57903023D01*
X163460000Y-57885646D01*
X161660000Y-57885646D01*
X161483569Y-57903023D01*
X161313919Y-57954486D01*
X161157568Y-58038057D01*
X161020525Y-58150525D01*
X160908057Y-58287568D01*
X160824486Y-58443919D01*
X160773023Y-58613569D01*
X160755646Y-58790000D01*
X160755646Y-59066479D01*
X159010097Y-57320930D01*
X158977991Y-57281809D01*
X158821915Y-57153720D01*
X158643848Y-57058542D01*
X158450635Y-56999931D01*
X158300051Y-56985100D01*
X158300050Y-56985100D01*
X158249700Y-56980141D01*
X158199350Y-56985100D01*
X134617442Y-56985100D01*
X134567099Y-56980142D01*
X134516756Y-56985100D01*
X134516749Y-56985100D01*
X134384765Y-56998099D01*
X134366164Y-56999931D01*
X134332191Y-57010237D01*
X134172952Y-57058542D01*
X133994885Y-57153720D01*
X133838809Y-57281809D01*
X133806712Y-57320919D01*
X133208741Y-57918891D01*
X133156431Y-57903023D01*
X132980000Y-57885646D01*
X131180000Y-57885646D01*
X131003569Y-57903023D01*
X130833919Y-57954486D01*
X130677568Y-58038057D01*
X130540525Y-58150525D01*
X130428057Y-58287568D01*
X130344486Y-58443919D01*
X130293023Y-58613569D01*
X130275646Y-58790000D01*
X130275646Y-60590000D01*
X130293023Y-60766431D01*
X130344486Y-60936081D01*
X130428057Y-61092432D01*
X130540525Y-61229475D01*
X130677568Y-61341943D01*
X130833919Y-61425514D01*
X131003569Y-61476977D01*
X131180000Y-61494354D01*
X132280401Y-61494354D01*
X132280400Y-68912731D01*
X130634354Y-70558778D01*
X130634354Y-69650000D01*
X130616977Y-69473569D01*
X130565514Y-69303919D01*
X130509968Y-69200000D01*
X130565514Y-69096081D01*
X130616977Y-68926431D01*
X130634354Y-68750000D01*
X130634354Y-67650000D01*
X130616977Y-67473569D01*
X130565514Y-67303919D01*
X130481943Y-67147568D01*
X130369475Y-67010525D01*
X130232432Y-66898057D01*
X130076081Y-66814486D01*
X130072056Y-66813265D01*
X130097334Y-66799754D01*
X130197528Y-66717528D01*
X130279754Y-66617334D01*
X130340854Y-66503024D01*
X130378480Y-66378991D01*
X130391184Y-66250000D01*
X130388000Y-65968500D01*
X130223500Y-65804000D01*
X128584000Y-65804000D01*
X128584000Y-65824000D01*
X128376000Y-65824000D01*
X128376000Y-65804000D01*
X126736500Y-65804000D01*
X126710555Y-65829945D01*
X126654321Y-65773711D01*
X126416833Y-65615027D01*
X126152949Y-65505723D01*
X125872813Y-65450000D01*
X125587187Y-65450000D01*
X125307051Y-65505723D01*
X125043167Y-65615027D01*
X124805679Y-65773711D01*
X124603711Y-65975679D01*
X124445027Y-66213167D01*
X124335723Y-66477051D01*
X124280000Y-66757187D01*
X124280000Y-67042813D01*
X124335723Y-67322949D01*
X124445027Y-67586833D01*
X124603711Y-67824321D01*
X124805679Y-68026289D01*
X125043167Y-68184973D01*
X125307051Y-68294277D01*
X125587187Y-68350000D01*
X125872813Y-68350000D01*
X126152949Y-68294277D01*
X126325646Y-68222744D01*
X126325646Y-68750000D01*
X126343023Y-68926431D01*
X126394486Y-69096081D01*
X126450032Y-69200000D01*
X126394486Y-69303919D01*
X126343023Y-69473569D01*
X126325646Y-69650000D01*
X126325646Y-70177256D01*
X126152949Y-70105723D01*
X125872813Y-70050000D01*
X125587187Y-70050000D01*
X125307051Y-70105723D01*
X125043167Y-70215027D01*
X124805679Y-70373711D01*
X124603711Y-70575679D01*
X124445027Y-70813167D01*
X124335723Y-71077051D01*
X124280000Y-71357187D01*
X124280000Y-71642813D01*
X124335723Y-71922949D01*
X124445027Y-72186833D01*
X124603711Y-72424321D01*
X124805679Y-72626289D01*
X125043167Y-72784973D01*
X125307051Y-72894277D01*
X125587187Y-72950000D01*
X125872813Y-72950000D01*
X126152949Y-72894277D01*
X126325646Y-72822744D01*
X126325646Y-73250000D01*
X126329783Y-73292000D01*
X125834000Y-73292000D01*
X125834000Y-74796000D01*
X127969749Y-74796000D01*
X128098608Y-74546261D01*
X128055397Y-74380728D01*
X127952593Y-74154354D01*
X128917701Y-74154354D01*
X128917701Y-78754892D01*
X128853291Y-78676409D01*
X128697215Y-78548320D01*
X128519148Y-78453142D01*
X128325935Y-78394531D01*
X128324189Y-78394359D01*
X128175351Y-78379700D01*
X128125000Y-78374741D01*
X128074650Y-78379700D01*
X124959039Y-78379700D01*
X124908699Y-78374742D01*
X124858359Y-78379700D01*
X124858349Y-78379700D01*
X124707765Y-78394531D01*
X124514552Y-78453142D01*
X124336485Y-78548320D01*
X124180409Y-78676409D01*
X124148312Y-78715519D01*
X119350300Y-83513533D01*
X119350300Y-82270351D01*
X119355259Y-82220000D01*
X119335469Y-82019065D01*
X119276858Y-81825852D01*
X119181680Y-81647785D01*
X119053591Y-81491709D01*
X118897515Y-81363620D01*
X118719448Y-81268442D01*
X118526235Y-81209831D01*
X118478189Y-81205099D01*
X118346081Y-81134486D01*
X118176431Y-81083023D01*
X118000000Y-81065646D01*
X116000000Y-81065646D01*
X115823569Y-81083023D01*
X115653919Y-81134486D01*
X115621435Y-81151849D01*
X115540664Y-80956851D01*
X115387451Y-80727552D01*
X115192448Y-80532549D01*
X114963149Y-80379336D01*
X114940610Y-80370000D01*
X115388816Y-80370000D01*
X115401520Y-80498991D01*
X115439146Y-80623024D01*
X115500246Y-80737334D01*
X115582472Y-80837528D01*
X115682666Y-80919754D01*
X115796976Y-80980854D01*
X115921009Y-81018480D01*
X116050000Y-81031184D01*
X116631500Y-81028000D01*
X116796000Y-80863500D01*
X116796000Y-79474000D01*
X117004000Y-79474000D01*
X117004000Y-80863500D01*
X117168500Y-81028000D01*
X117750000Y-81031184D01*
X117878991Y-81018480D01*
X118003024Y-80980854D01*
X118117334Y-80919754D01*
X118217528Y-80837528D01*
X118299754Y-80737334D01*
X118360854Y-80623024D01*
X118398480Y-80498991D01*
X118411184Y-80370000D01*
X118408000Y-79638500D01*
X118243500Y-79474000D01*
X117004000Y-79474000D01*
X116796000Y-79474000D01*
X115556500Y-79474000D01*
X115392000Y-79638500D01*
X115388816Y-80370000D01*
X114940610Y-80370000D01*
X114708365Y-80273801D01*
X114437888Y-80220000D01*
X114162112Y-80220000D01*
X113891635Y-80273801D01*
X113636851Y-80379336D01*
X113407552Y-80532549D01*
X113212549Y-80727552D01*
X113059336Y-80956851D01*
X112953801Y-81211635D01*
X112900000Y-81482112D01*
X112900000Y-81757888D01*
X112953801Y-82028365D01*
X113059336Y-82283149D01*
X113212549Y-82512448D01*
X113407552Y-82707451D01*
X113636851Y-82860664D01*
X113891635Y-82966199D01*
X114162112Y-83020000D01*
X114437888Y-83020000D01*
X114708365Y-82966199D01*
X114963149Y-82860664D01*
X115095646Y-82772132D01*
X115095646Y-83270000D01*
X115110420Y-83420000D01*
X115095646Y-83570000D01*
X115095646Y-84070000D01*
X115110420Y-84220000D01*
X115095646Y-84370000D01*
X115095646Y-84867868D01*
X114963149Y-84779336D01*
X114708365Y-84673801D01*
X114437888Y-84620000D01*
X114162112Y-84620000D01*
X113891635Y-84673801D01*
X113636851Y-84779336D01*
X113407552Y-84932549D01*
X113212549Y-85127552D01*
X113059336Y-85356851D01*
X112953801Y-85611635D01*
X112900000Y-85882112D01*
X112900000Y-86157888D01*
X112953801Y-86428365D01*
X113059336Y-86683149D01*
X113212549Y-86912448D01*
X113407552Y-87107451D01*
X113636851Y-87260664D01*
X113891635Y-87366199D01*
X114162112Y-87420000D01*
X114437888Y-87420000D01*
X114708365Y-87366199D01*
X114940609Y-87270000D01*
X115388816Y-87270000D01*
X115392000Y-88001500D01*
X115556500Y-88166000D01*
X116796000Y-88166000D01*
X116796000Y-86776500D01*
X116631500Y-86612000D01*
X116050000Y-86608816D01*
X115921009Y-86621520D01*
X115796976Y-86659146D01*
X115682666Y-86720246D01*
X115582472Y-86802472D01*
X115500246Y-86902666D01*
X115439146Y-87016976D01*
X115401520Y-87141009D01*
X115388816Y-87270000D01*
X114940609Y-87270000D01*
X114963149Y-87260664D01*
X115192448Y-87107451D01*
X115387451Y-86912448D01*
X115540664Y-86683149D01*
X115646199Y-86428365D01*
X115682394Y-86246398D01*
X115750312Y-86282226D01*
X115874549Y-86319174D01*
X116003607Y-86331174D01*
X116731500Y-86328000D01*
X116896000Y-86163500D01*
X116896000Y-85774354D01*
X117104000Y-85774354D01*
X117104000Y-86163500D01*
X117268500Y-86328000D01*
X117300300Y-86328139D01*
X117300300Y-86611278D01*
X117168500Y-86612000D01*
X117004000Y-86776500D01*
X117004000Y-88166000D01*
X117024000Y-88166000D01*
X117024000Y-88374000D01*
X117004000Y-88374000D01*
X117004000Y-88394000D01*
X116796000Y-88394000D01*
X116796000Y-88374000D01*
X115556500Y-88374000D01*
X115392000Y-88538500D01*
X115388816Y-89270000D01*
X115401520Y-89398991D01*
X115439146Y-89523024D01*
X115500246Y-89637334D01*
X115582472Y-89737528D01*
X115682666Y-89819754D01*
X115796976Y-89880854D01*
X115921009Y-89918480D01*
X116050000Y-89931184D01*
X116192629Y-89930403D01*
X114978158Y-91144874D01*
X114953709Y-91131806D01*
X114633258Y-91034598D01*
X114383510Y-91010000D01*
X114216490Y-91010000D01*
X113966742Y-91034598D01*
X113646291Y-91131806D01*
X113350961Y-91289663D01*
X113092103Y-91502103D01*
X112879663Y-91760961D01*
X112721806Y-92056291D01*
X112624598Y-92376742D01*
X112591775Y-92710000D01*
X112624598Y-93043258D01*
X112721806Y-93363709D01*
X112879663Y-93659039D01*
X112945937Y-93739794D01*
X109925000Y-96760733D01*
X109925000Y-94315104D01*
X110156742Y-94385402D01*
X110406490Y-94410000D01*
X110573510Y-94410000D01*
X110823258Y-94385402D01*
X111143709Y-94288194D01*
X111439039Y-94130337D01*
X111697897Y-93917897D01*
X111910337Y-93659039D01*
X112068194Y-93363709D01*
X112165402Y-93043258D01*
X112198225Y-92710000D01*
X112165402Y-92376742D01*
X112068194Y-92056291D01*
X111910337Y-91760961D01*
X111697897Y-91502103D01*
X111439039Y-91289663D01*
X111143709Y-91131806D01*
X110823258Y-91034598D01*
X110573510Y-91010000D01*
X110406490Y-91010000D01*
X110156742Y-91034598D01*
X109925000Y-91104896D01*
X109925000Y-89270000D01*
X109938816Y-89270000D01*
X109951520Y-89398991D01*
X109989146Y-89523024D01*
X110050246Y-89637334D01*
X110132472Y-89737528D01*
X110232666Y-89819754D01*
X110346976Y-89880854D01*
X110471009Y-89918480D01*
X110600000Y-89931184D01*
X111181500Y-89928000D01*
X111346000Y-89763500D01*
X111346000Y-88374000D01*
X111554000Y-88374000D01*
X111554000Y-89763500D01*
X111718500Y-89928000D01*
X112300000Y-89931184D01*
X112428991Y-89918480D01*
X112553024Y-89880854D01*
X112667334Y-89819754D01*
X112767528Y-89737528D01*
X112849754Y-89637334D01*
X112910854Y-89523024D01*
X112948480Y-89398991D01*
X112961184Y-89270000D01*
X112958000Y-88538500D01*
X112793500Y-88374000D01*
X111554000Y-88374000D01*
X111346000Y-88374000D01*
X110106500Y-88374000D01*
X109942000Y-88538500D01*
X109938816Y-89270000D01*
X109925000Y-89270000D01*
X109925000Y-87270000D01*
X109938816Y-87270000D01*
X109942000Y-88001500D01*
X110106500Y-88166000D01*
X111346000Y-88166000D01*
X111346000Y-86776500D01*
X111554000Y-86776500D01*
X111554000Y-88166000D01*
X112793500Y-88166000D01*
X112958000Y-88001500D01*
X112961184Y-87270000D01*
X112948480Y-87141009D01*
X112910854Y-87016976D01*
X112849754Y-86902666D01*
X112767528Y-86802472D01*
X112667334Y-86720246D01*
X112553024Y-86659146D01*
X112428991Y-86621520D01*
X112300000Y-86608816D01*
X111718500Y-86612000D01*
X111554000Y-86776500D01*
X111346000Y-86776500D01*
X111181500Y-86612000D01*
X110600000Y-86608816D01*
X110471009Y-86621520D01*
X110346976Y-86659146D01*
X110232666Y-86720246D01*
X110132472Y-86802472D01*
X110050246Y-86902666D01*
X109989146Y-87016976D01*
X109951520Y-87141009D01*
X109938816Y-87270000D01*
X109925000Y-87270000D01*
X109925000Y-80370000D01*
X109938816Y-80370000D01*
X109951520Y-80498991D01*
X109989146Y-80623024D01*
X110050246Y-80737334D01*
X110132472Y-80837528D01*
X110232666Y-80919754D01*
X110346976Y-80980854D01*
X110471009Y-81018480D01*
X110600000Y-81031184D01*
X111181500Y-81028000D01*
X111346000Y-80863500D01*
X111346000Y-79474000D01*
X111554000Y-79474000D01*
X111554000Y-80863500D01*
X111718500Y-81028000D01*
X112300000Y-81031184D01*
X112428991Y-81018480D01*
X112553024Y-80980854D01*
X112667334Y-80919754D01*
X112767528Y-80837528D01*
X112849754Y-80737334D01*
X112910854Y-80623024D01*
X112948480Y-80498991D01*
X112961184Y-80370000D01*
X112958000Y-79638500D01*
X112793500Y-79474000D01*
X111554000Y-79474000D01*
X111346000Y-79474000D01*
X110106500Y-79474000D01*
X109942000Y-79638500D01*
X109938816Y-80370000D01*
X109925000Y-80370000D01*
X109925000Y-78370000D01*
X109938816Y-78370000D01*
X109942000Y-79101500D01*
X110106500Y-79266000D01*
X111346000Y-79266000D01*
X111346000Y-77876500D01*
X111554000Y-77876500D01*
X111554000Y-79266000D01*
X112793500Y-79266000D01*
X112958000Y-79101500D01*
X112961184Y-78370000D01*
X115388816Y-78370000D01*
X115392000Y-79101500D01*
X115556500Y-79266000D01*
X116796000Y-79266000D01*
X116796000Y-77876500D01*
X117004000Y-77876500D01*
X117004000Y-79266000D01*
X118243500Y-79266000D01*
X118408000Y-79101500D01*
X118409573Y-78740000D01*
X118941775Y-78740000D01*
X118974598Y-79073258D01*
X119071806Y-79393709D01*
X119229663Y-79689039D01*
X119442103Y-79947897D01*
X119700961Y-80160337D01*
X119996291Y-80318194D01*
X120316742Y-80415402D01*
X120566490Y-80440000D01*
X120733510Y-80440000D01*
X120983258Y-80415402D01*
X121303709Y-80318194D01*
X121599039Y-80160337D01*
X121857897Y-79947897D01*
X122070337Y-79689039D01*
X122228194Y-79393709D01*
X122325402Y-79073258D01*
X122358225Y-78740000D01*
X122325402Y-78406742D01*
X122228194Y-78086291D01*
X122070337Y-77790961D01*
X121857897Y-77532103D01*
X121599039Y-77319663D01*
X121303709Y-77161806D01*
X120983258Y-77064598D01*
X120733510Y-77040000D01*
X120566490Y-77040000D01*
X120316742Y-77064598D01*
X119996291Y-77161806D01*
X119700961Y-77319663D01*
X119442103Y-77532103D01*
X119229663Y-77790961D01*
X119071806Y-78086291D01*
X118974598Y-78406742D01*
X118941775Y-78740000D01*
X118409573Y-78740000D01*
X118411184Y-78370000D01*
X118398480Y-78241009D01*
X118360854Y-78116976D01*
X118299754Y-78002666D01*
X118217528Y-77902472D01*
X118117334Y-77820246D01*
X118003024Y-77759146D01*
X117878991Y-77721520D01*
X117750000Y-77708816D01*
X117168500Y-77712000D01*
X117004000Y-77876500D01*
X116796000Y-77876500D01*
X116631500Y-77712000D01*
X116050000Y-77708816D01*
X115921009Y-77721520D01*
X115796976Y-77759146D01*
X115682666Y-77820246D01*
X115582472Y-77902472D01*
X115500246Y-78002666D01*
X115439146Y-78116976D01*
X115401520Y-78241009D01*
X115388816Y-78370000D01*
X112961184Y-78370000D01*
X112948480Y-78241009D01*
X112910854Y-78116976D01*
X112849754Y-78002666D01*
X112767528Y-77902472D01*
X112667334Y-77820246D01*
X112553024Y-77759146D01*
X112428991Y-77721520D01*
X112300000Y-77708816D01*
X111718500Y-77712000D01*
X111554000Y-77876500D01*
X111346000Y-77876500D01*
X111181500Y-77712000D01*
X110600000Y-77708816D01*
X110471009Y-77721520D01*
X110346976Y-77759146D01*
X110232666Y-77820246D01*
X110132472Y-77902472D01*
X110050246Y-78002666D01*
X109989146Y-78116976D01*
X109951520Y-78241009D01*
X109938816Y-78370000D01*
X109925000Y-78370000D01*
X109925000Y-75253739D01*
X123361392Y-75253739D01*
X123404603Y-75419272D01*
X123535218Y-75706885D01*
X123719434Y-75963489D01*
X123950171Y-76179224D01*
X124218562Y-76345799D01*
X124514293Y-76456813D01*
X124826000Y-76508000D01*
X125626000Y-76508000D01*
X125626000Y-75004000D01*
X125834000Y-75004000D01*
X125834000Y-76508000D01*
X126634000Y-76508000D01*
X126945707Y-76456813D01*
X127241438Y-76345799D01*
X127509829Y-76179224D01*
X127740566Y-75963489D01*
X127924782Y-75706885D01*
X128055397Y-75419272D01*
X128098608Y-75253739D01*
X127969749Y-75004000D01*
X125834000Y-75004000D01*
X125626000Y-75004000D01*
X123490251Y-75004000D01*
X123361392Y-75253739D01*
X109925000Y-75253739D01*
X109925000Y-74546261D01*
X123361392Y-74546261D01*
X123490251Y-74796000D01*
X125626000Y-74796000D01*
X125626000Y-73292000D01*
X124826000Y-73292000D01*
X124514293Y-73343187D01*
X124218562Y-73454201D01*
X123950171Y-73620776D01*
X123719434Y-73836511D01*
X123535218Y-74093115D01*
X123404603Y-74380728D01*
X123361392Y-74546261D01*
X109925000Y-74546261D01*
X109925000Y-63853739D01*
X123361392Y-63853739D01*
X123404603Y-64019272D01*
X123535218Y-64306885D01*
X123719434Y-64563489D01*
X123950171Y-64779224D01*
X124218562Y-64945799D01*
X124514293Y-65056813D01*
X124826000Y-65108000D01*
X125626000Y-65108000D01*
X125626000Y-63604000D01*
X125834000Y-63604000D01*
X125834000Y-65108000D01*
X126572952Y-65108000D01*
X126568816Y-65150000D01*
X126572000Y-65431500D01*
X126736500Y-65596000D01*
X128376000Y-65596000D01*
X128376000Y-64656500D01*
X128584000Y-64656500D01*
X128584000Y-65596000D01*
X130223500Y-65596000D01*
X130388000Y-65431500D01*
X130391184Y-65150000D01*
X130378480Y-65021009D01*
X130340854Y-64896976D01*
X130279754Y-64782666D01*
X130197528Y-64682472D01*
X130097334Y-64600246D01*
X129983024Y-64539146D01*
X129858991Y-64501520D01*
X129730000Y-64488816D01*
X128748500Y-64492000D01*
X128584000Y-64656500D01*
X128376000Y-64656500D01*
X128211500Y-64492000D01*
X127792863Y-64490642D01*
X127924782Y-64306885D01*
X128055397Y-64019272D01*
X128098608Y-63853739D01*
X127969749Y-63604000D01*
X125834000Y-63604000D01*
X125626000Y-63604000D01*
X123490251Y-63604000D01*
X123361392Y-63853739D01*
X109925000Y-63853739D01*
X109925000Y-63146261D01*
X123361392Y-63146261D01*
X123490251Y-63396000D01*
X125626000Y-63396000D01*
X125626000Y-63376000D01*
X125834000Y-63376000D01*
X125834000Y-63396000D01*
X127969749Y-63396000D01*
X128098608Y-63146261D01*
X128055397Y-62980728D01*
X127924782Y-62693115D01*
X127740566Y-62436511D01*
X127509829Y-62220776D01*
X127241438Y-62054201D01*
X126945707Y-61943187D01*
X126634000Y-61892000D01*
X124826000Y-61892000D01*
X124514293Y-61943187D01*
X124218562Y-62054201D01*
X123950171Y-62220776D01*
X123719434Y-62436511D01*
X123535218Y-62693115D01*
X123404603Y-62980728D01*
X123361392Y-63146261D01*
X109925000Y-63146261D01*
X109925000Y-58753772D01*
X112500000Y-58753772D01*
X112500000Y-59246228D01*
X112596074Y-59729223D01*
X112784529Y-60184194D01*
X113058124Y-60593657D01*
X113406343Y-60941876D01*
X113815806Y-61215471D01*
X114270777Y-61403926D01*
X114753772Y-61500000D01*
X115246228Y-61500000D01*
X115729223Y-61403926D01*
X116184194Y-61215471D01*
X116593657Y-60941876D01*
X116941876Y-60593657D01*
X117215471Y-60184194D01*
X117403926Y-59729223D01*
X117500000Y-59246228D01*
X117500000Y-58758062D01*
X122990378Y-58758062D01*
X123084569Y-59038275D01*
X123231617Y-59294728D01*
X123425871Y-59517566D01*
X123659866Y-59698225D01*
X123924610Y-59829763D01*
X124121939Y-59889619D01*
X124356000Y-59759469D01*
X124356000Y-58524000D01*
X123120087Y-58524000D01*
X122990378Y-58758062D01*
X117500000Y-58758062D01*
X117500000Y-58753772D01*
X117403926Y-58270777D01*
X117325707Y-58081938D01*
X122990378Y-58081938D01*
X123120087Y-58316000D01*
X124356000Y-58316000D01*
X124356000Y-57080531D01*
X124564000Y-57080531D01*
X124564000Y-58316000D01*
X124584000Y-58316000D01*
X124584000Y-58524000D01*
X124564000Y-58524000D01*
X124564000Y-59759469D01*
X124798061Y-59889619D01*
X124995390Y-59829763D01*
X125260134Y-59698225D01*
X125329689Y-59644524D01*
X125398057Y-59772432D01*
X125510525Y-59909475D01*
X125647568Y-60021943D01*
X125803919Y-60105514D01*
X125973569Y-60156977D01*
X126150000Y-60174354D01*
X127850000Y-60174354D01*
X128026431Y-60156977D01*
X128196081Y-60105514D01*
X128352432Y-60021943D01*
X128489475Y-59909475D01*
X128601943Y-59772432D01*
X128685514Y-59616081D01*
X128736977Y-59446431D01*
X128754354Y-59270000D01*
X128754354Y-57570000D01*
X128736977Y-57393569D01*
X128685514Y-57223919D01*
X128601943Y-57067568D01*
X128489475Y-56930525D01*
X128352432Y-56818057D01*
X128196081Y-56734486D01*
X128026431Y-56683023D01*
X127850000Y-56665646D01*
X126150000Y-56665646D01*
X125973569Y-56683023D01*
X125803919Y-56734486D01*
X125647568Y-56818057D01*
X125510525Y-56930525D01*
X125398057Y-57067568D01*
X125329689Y-57195476D01*
X125260134Y-57141775D01*
X124995390Y-57010237D01*
X124798061Y-56950381D01*
X124564000Y-57080531D01*
X124356000Y-57080531D01*
X124121939Y-56950381D01*
X123924610Y-57010237D01*
X123659866Y-57141775D01*
X123425871Y-57322434D01*
X123231617Y-57545272D01*
X123084569Y-57801725D01*
X122990378Y-58081938D01*
X117325707Y-58081938D01*
X117215471Y-57815806D01*
X116941876Y-57406343D01*
X116593657Y-57058124D01*
X116184194Y-56784529D01*
X115729223Y-56596074D01*
X115246228Y-56500000D01*
X114753772Y-56500000D01*
X114270777Y-56596074D01*
X113815806Y-56784529D01*
X113406343Y-57058124D01*
X113058124Y-57406343D01*
X112784529Y-57815806D01*
X112596074Y-58270777D01*
X112500000Y-58753772D01*
X109925000Y-58753772D01*
X109925000Y-57045236D01*
X109987914Y-56403591D01*
X110161122Y-55829898D01*
X110442462Y-55300776D01*
X110821218Y-54836375D01*
X111282961Y-54454388D01*
X111810108Y-54169360D01*
X112382577Y-53992152D01*
X113021479Y-53925000D01*
X191954764Y-53925000D01*
X192596409Y-53987914D01*
X192596409Y-53987914D01*
G37*
X192596409Y-53987914D02*
X193170102Y-54161122D01*
X193699224Y-54442462D01*
X194163625Y-54821218D01*
X194545612Y-55282961D01*
X194830640Y-55810108D01*
X195007848Y-56382577D01*
X195075000Y-57021479D01*
X195075001Y-133954754D01*
X195012087Y-134596406D01*
X194838878Y-135170101D01*
X194557540Y-135699221D01*
X194178782Y-136163625D01*
X193717039Y-136545612D01*
X193189888Y-136830642D01*
X192617422Y-137007849D01*
X191978522Y-137075000D01*
X113045236Y-137075000D01*
X112403594Y-137012087D01*
X111829899Y-136838878D01*
X111300779Y-136557540D01*
X110836375Y-136178782D01*
X110454388Y-135717039D01*
X110169358Y-135189888D01*
X109992151Y-134617422D01*
X109925000Y-133978522D01*
X109925000Y-133852866D01*
X132720000Y-133852866D01*
X132720000Y-134227134D01*
X132793016Y-134594209D01*
X132936242Y-134939987D01*
X133144174Y-135251179D01*
X133408821Y-135515826D01*
X133720013Y-135723758D01*
X134065791Y-135866984D01*
X134432866Y-135940000D01*
X134807134Y-135940000D01*
X135174209Y-135866984D01*
X135519987Y-135723758D01*
X135831179Y-135515826D01*
X136095826Y-135251179D01*
X136303758Y-134939987D01*
X136446984Y-134594209D01*
X136520000Y-134227134D01*
X136520000Y-133852866D01*
X136446984Y-133485791D01*
X136303758Y-133140013D01*
X136095826Y-132828821D01*
X135831179Y-132564174D01*
X135519987Y-132356242D01*
X135174209Y-132213016D01*
X134807134Y-132140000D01*
X134432866Y-132140000D01*
X134065791Y-132213016D01*
X133720013Y-132356242D01*
X133408821Y-132564174D01*
X133144174Y-132828821D01*
X132936242Y-133140013D01*
X132793016Y-133485791D01*
X132720000Y-133852866D01*
X109925000Y-133852866D01*
X109925000Y-130672726D01*
X133634353Y-130672726D01*
X133726785Y-130946341D01*
X134018311Y-131093577D01*
X134332960Y-131181109D01*
X134658640Y-131205574D01*
X134982835Y-131166032D01*
X135293086Y-131064002D01*
X135513215Y-130946341D01*
X135605647Y-130672726D01*
X134620000Y-129687078D01*
X133634353Y-130672726D01*
X109925000Y-130672726D01*
X109925000Y-129578640D01*
X132954426Y-129578640D01*
X132993968Y-129902835D01*
X133095998Y-130213086D01*
X133213659Y-130433215D01*
X133487274Y-130525647D01*
X134472922Y-129540000D01*
X134767078Y-129540000D01*
X135752726Y-130525647D01*
X136026341Y-130433215D01*
X136173577Y-130141689D01*
X136261109Y-129827040D01*
X136285574Y-129501360D01*
X136246032Y-129177165D01*
X136144002Y-128866914D01*
X136026341Y-128646785D01*
X135752726Y-128554353D01*
X134767078Y-129540000D01*
X134472922Y-129540000D01*
X133487274Y-128554353D01*
X133213659Y-128646785D01*
X133066423Y-128938311D01*
X132978891Y-129252960D01*
X132954426Y-129578640D01*
X109925000Y-129578640D01*
X109925000Y-128407274D01*
X133634353Y-128407274D01*
X134620000Y-129392922D01*
X135605647Y-128407274D01*
X135513215Y-128133659D01*
X135221689Y-127986423D01*
X134907040Y-127898891D01*
X134581360Y-127874426D01*
X134257165Y-127913968D01*
X133946914Y-128015998D01*
X133726785Y-128133659D01*
X133634353Y-128407274D01*
X109925000Y-128407274D01*
X109925000Y-123692866D01*
X114940000Y-123692866D01*
X114940000Y-124067134D01*
X115013016Y-124434209D01*
X115156242Y-124779987D01*
X115364174Y-125091179D01*
X115628821Y-125355826D01*
X115940013Y-125563758D01*
X116285791Y-125706984D01*
X116652866Y-125780000D01*
X117027134Y-125780000D01*
X117394209Y-125706984D01*
X117739987Y-125563758D01*
X118051179Y-125355826D01*
X118315826Y-125091179D01*
X118523758Y-124779987D01*
X118666984Y-124434209D01*
X118740000Y-124067134D01*
X118740000Y-123692866D01*
X118666984Y-123325791D01*
X118523758Y-122980013D01*
X118315826Y-122668821D01*
X118051179Y-122404174D01*
X117739987Y-122196242D01*
X117394209Y-122053016D01*
X117027134Y-121980000D01*
X116652866Y-121980000D01*
X116285791Y-122053016D01*
X115940013Y-122196242D01*
X115628821Y-122404174D01*
X115364174Y-122668821D01*
X115156242Y-122980013D01*
X115013016Y-123325791D01*
X114940000Y-123692866D01*
X109925000Y-123692866D01*
X109925000Y-120512726D01*
X115854353Y-120512726D01*
X115946785Y-120786341D01*
X116238311Y-120933577D01*
X116552960Y-121021109D01*
X116878640Y-121045574D01*
X117202835Y-121006032D01*
X117513086Y-120904002D01*
X117733215Y-120786341D01*
X117825647Y-120512726D01*
X116840000Y-119527078D01*
X115854353Y-120512726D01*
X109925000Y-120512726D01*
X109925000Y-119418640D01*
X115174426Y-119418640D01*
X115213968Y-119742835D01*
X115315998Y-120053086D01*
X115433659Y-120273215D01*
X115707274Y-120365647D01*
X116692922Y-119380000D01*
X116987078Y-119380000D01*
X117972726Y-120365647D01*
X118246341Y-120273215D01*
X118393577Y-119981689D01*
X118481109Y-119667040D01*
X118499768Y-119418640D01*
X121674426Y-119418640D01*
X121713968Y-119742835D01*
X121815998Y-120053086D01*
X121933659Y-120273215D01*
X122207274Y-120365647D01*
X123192922Y-119380000D01*
X122207274Y-118394353D01*
X121933659Y-118486785D01*
X121786423Y-118778311D01*
X121698891Y-119092960D01*
X121674426Y-119418640D01*
X118499768Y-119418640D01*
X118505574Y-119341360D01*
X118466032Y-119017165D01*
X118364002Y-118706914D01*
X118246341Y-118486785D01*
X117972726Y-118394353D01*
X116987078Y-119380000D01*
X116692922Y-119380000D01*
X115707274Y-118394353D01*
X115433659Y-118486785D01*
X115286423Y-118778311D01*
X115198891Y-119092960D01*
X115174426Y-119418640D01*
X109925000Y-119418640D01*
X109925000Y-118247274D01*
X115854353Y-118247274D01*
X116840000Y-119232922D01*
X117825647Y-118247274D01*
X117733215Y-117973659D01*
X117441689Y-117826423D01*
X117127040Y-117738891D01*
X116801360Y-117714426D01*
X116477165Y-117753968D01*
X116166914Y-117855998D01*
X115946785Y-117973659D01*
X115854353Y-118247274D01*
X109925000Y-118247274D01*
X109925000Y-104476036D01*
X109994128Y-104504670D01*
X110322565Y-104570000D01*
X110657435Y-104570000D01*
X110985872Y-104504670D01*
X111295252Y-104376521D01*
X111573687Y-104190477D01*
X111810477Y-103953687D01*
X111996521Y-103675252D01*
X112124670Y-103365872D01*
X112190000Y-103037435D01*
X112190000Y-102702565D01*
X112600000Y-102702565D01*
X112600000Y-103037435D01*
X112665330Y-103365872D01*
X112793479Y-103675252D01*
X112979523Y-103953687D01*
X113216313Y-104190477D01*
X113494748Y-104376521D01*
X113804128Y-104504670D01*
X114132565Y-104570000D01*
X114467435Y-104570000D01*
X114795872Y-104504670D01*
X115105252Y-104376521D01*
X115383687Y-104190477D01*
X115620477Y-103953687D01*
X115806521Y-103675252D01*
X115934670Y-103365872D01*
X116000000Y-103037435D01*
X116000000Y-102702565D01*
X115934670Y-102374128D01*
X115806521Y-102064748D01*
X115620477Y-101786313D01*
X115383687Y-101549523D01*
X115105252Y-101363479D01*
X114795872Y-101235330D01*
X114467435Y-101170000D01*
X114132565Y-101170000D01*
X113804128Y-101235330D01*
X113494748Y-101363479D01*
X113216313Y-101549523D01*
X112979523Y-101786313D01*
X112793479Y-102064748D01*
X112665330Y-102374128D01*
X112600000Y-102702565D01*
X112190000Y-102702565D01*
X112124670Y-102374128D01*
X111996521Y-102064748D01*
X111810477Y-101786313D01*
X111573687Y-101549523D01*
X111515000Y-101510310D01*
X111515000Y-98069867D01*
X114989181Y-94595688D01*
X115028291Y-94563591D01*
X115084908Y-94494604D01*
X115156380Y-94407515D01*
X115251558Y-94229449D01*
X115292424Y-94094732D01*
X115507897Y-93917897D01*
X115720337Y-93659039D01*
X115878194Y-93363709D01*
X115973875Y-93048293D01*
X117965801Y-91056368D01*
X117965800Y-106209332D01*
X117500824Y-106674309D01*
X117461710Y-106706409D01*
X117333621Y-106862485D01*
X117328790Y-106871524D01*
X117313569Y-106873023D01*
X117143919Y-106924486D01*
X116987568Y-107008057D01*
X116850525Y-107120525D01*
X116738057Y-107257568D01*
X116654486Y-107413919D01*
X116603023Y-107583569D01*
X116585646Y-107760000D01*
X116585646Y-109160000D01*
X116603023Y-109336431D01*
X116654486Y-109506081D01*
X116738057Y-109662432D01*
X116850525Y-109799475D01*
X116987568Y-109911943D01*
X117143919Y-109995514D01*
X117313569Y-110046977D01*
X117490000Y-110064354D01*
X118890000Y-110064354D01*
X119066431Y-110046977D01*
X119236081Y-109995514D01*
X119392432Y-109911943D01*
X119529475Y-109799475D01*
X119636420Y-109669162D01*
X119670059Y-109702801D01*
X119932116Y-109877902D01*
X120223297Y-109998513D01*
X120532414Y-110060000D01*
X120847586Y-110060000D01*
X121156703Y-109998513D01*
X121447884Y-109877902D01*
X121709941Y-109702801D01*
X121932801Y-109479941D01*
X121940000Y-109469167D01*
X121947199Y-109479941D01*
X122170059Y-109702801D01*
X122432116Y-109877902D01*
X122723297Y-109998513D01*
X123032414Y-110060000D01*
X123347586Y-110060000D01*
X123656703Y-109998513D01*
X123723300Y-109970928D01*
X123723300Y-110249072D01*
X123656703Y-110221487D01*
X123347586Y-110160000D01*
X123032414Y-110160000D01*
X122723297Y-110221487D01*
X122432116Y-110342098D01*
X122170059Y-110517199D01*
X121947199Y-110740059D01*
X121940000Y-110750833D01*
X121932801Y-110740059D01*
X121709941Y-110517199D01*
X121447884Y-110342098D01*
X121156703Y-110221487D01*
X120847586Y-110160000D01*
X120532414Y-110160000D01*
X120223297Y-110221487D01*
X119932116Y-110342098D01*
X119670059Y-110517199D01*
X119447199Y-110740059D01*
X119440000Y-110750833D01*
X119432801Y-110740059D01*
X119209941Y-110517199D01*
X118947884Y-110342098D01*
X118656703Y-110221487D01*
X118347586Y-110160000D01*
X118032414Y-110160000D01*
X117723297Y-110221487D01*
X117432116Y-110342098D01*
X117170059Y-110517199D01*
X116947199Y-110740059D01*
X116772098Y-111002116D01*
X116651487Y-111293297D01*
X116590000Y-111602414D01*
X116590000Y-111917586D01*
X116651487Y-112226703D01*
X116772098Y-112517884D01*
X116947199Y-112779941D01*
X117170059Y-113002801D01*
X117432116Y-113177902D01*
X117723297Y-113298513D01*
X118032414Y-113360000D01*
X118347586Y-113360000D01*
X118656703Y-113298513D01*
X118947884Y-113177902D01*
X119209941Y-113002801D01*
X119432801Y-112779941D01*
X119440000Y-112769167D01*
X119447199Y-112779941D01*
X119670059Y-113002801D01*
X119932116Y-113177902D01*
X120223297Y-113298513D01*
X120532414Y-113360000D01*
X120847586Y-113360000D01*
X121156703Y-113298513D01*
X121447884Y-113177902D01*
X121709941Y-113002801D01*
X121932801Y-112779941D01*
X121940000Y-112769167D01*
X121947199Y-112779941D01*
X122170059Y-113002801D01*
X122432116Y-113177902D01*
X122723297Y-113298513D01*
X123032414Y-113360000D01*
X123347586Y-113360000D01*
X123656703Y-113298513D01*
X123723300Y-113270928D01*
X123723301Y-117765670D01*
X123627040Y-117738891D01*
X123301360Y-117714426D01*
X122977165Y-117753968D01*
X122666914Y-117855998D01*
X122446785Y-117973659D01*
X122354353Y-118247274D01*
X123340000Y-119232922D01*
X123354143Y-119218780D01*
X123501221Y-119365858D01*
X123487078Y-119380000D01*
X123501221Y-119394143D01*
X123354143Y-119541221D01*
X123340000Y-119527078D01*
X122354353Y-120512726D01*
X122446785Y-120786341D01*
X122738311Y-120933577D01*
X123052960Y-121021109D01*
X123378640Y-121045574D01*
X123702835Y-121006032D01*
X123723301Y-120999302D01*
X123723301Y-122019020D01*
X123527134Y-121980000D01*
X123152866Y-121980000D01*
X122785791Y-122053016D01*
X122440013Y-122196242D01*
X122128821Y-122404174D01*
X121864174Y-122668821D01*
X121656242Y-122980013D01*
X121513016Y-123325791D01*
X121440000Y-123692866D01*
X121440000Y-124067134D01*
X121513016Y-124434209D01*
X121656242Y-124779987D01*
X121864174Y-125091179D01*
X122128821Y-125355826D01*
X122440013Y-125563758D01*
X122785791Y-125706984D01*
X123152866Y-125780000D01*
X123527134Y-125780000D01*
X123894209Y-125706984D01*
X124239987Y-125563758D01*
X124551179Y-125355826D01*
X124815826Y-125091179D01*
X125023758Y-124779987D01*
X125166984Y-124434209D01*
X125240000Y-124067134D01*
X125240000Y-123692866D01*
X125196316Y-123473253D01*
X125437481Y-123232088D01*
X125476591Y-123199991D01*
X125604680Y-123043915D01*
X125699858Y-122865848D01*
X125758469Y-122672635D01*
X125773300Y-122522051D01*
X125778259Y-122471700D01*
X125773300Y-122421349D01*
X125773300Y-108475842D01*
X125778258Y-108425499D01*
X125773300Y-108375156D01*
X125773300Y-108375149D01*
X125758469Y-108224565D01*
X125699858Y-108031352D01*
X125604680Y-107853285D01*
X125476591Y-107697209D01*
X125437481Y-107665112D01*
X124399600Y-106627233D01*
X124399600Y-105840000D01*
X124667435Y-105840000D01*
X124995872Y-105774670D01*
X125305252Y-105646521D01*
X125583687Y-105460477D01*
X125820477Y-105223687D01*
X125882926Y-105130225D01*
X126156853Y-105130225D01*
X126225173Y-105383394D01*
X126482635Y-105510664D01*
X126759980Y-105585260D01*
X127046547Y-105604315D01*
X127331327Y-105567098D01*
X127603374Y-105475038D01*
X127774827Y-105383394D01*
X127843147Y-105130225D01*
X127000000Y-104287078D01*
X126156853Y-105130225D01*
X125882926Y-105130225D01*
X125985566Y-104976614D01*
X126009775Y-104983147D01*
X126852922Y-104140000D01*
X127147078Y-104140000D01*
X127990225Y-104983147D01*
X128243394Y-104914827D01*
X128370664Y-104657365D01*
X128445260Y-104380020D01*
X128464315Y-104093453D01*
X128427098Y-103808673D01*
X128335038Y-103536626D01*
X128243394Y-103365173D01*
X127990225Y-103296853D01*
X127147078Y-104140000D01*
X126852922Y-104140000D01*
X126838780Y-104125858D01*
X126985858Y-103978780D01*
X127000000Y-103992922D01*
X127843147Y-103149775D01*
X127774827Y-102896606D01*
X127517365Y-102769336D01*
X127362016Y-102727553D01*
X128465341Y-101624228D01*
X128485964Y-101637218D01*
X128753557Y-101739696D01*
X129036000Y-101788000D01*
X129436000Y-101788000D01*
X129436000Y-100434000D01*
X129644000Y-100434000D01*
X129644000Y-101788000D01*
X130044000Y-101788000D01*
X130326443Y-101739696D01*
X130594036Y-101637218D01*
X130836494Y-101484504D01*
X131044501Y-101287423D01*
X131210062Y-101053549D01*
X131326816Y-100791869D01*
X131360112Y-100660220D01*
X131229312Y-100434000D01*
X129644000Y-100434000D01*
X129436000Y-100434000D01*
X129416000Y-100434000D01*
X129416000Y-100226000D01*
X129436000Y-100226000D01*
X129436000Y-100206000D01*
X129644000Y-100206000D01*
X129644000Y-100226000D01*
X131229312Y-100226000D01*
X131360112Y-99999780D01*
X131326816Y-99868131D01*
X131210062Y-99606451D01*
X131044501Y-99372577D01*
X130878955Y-99215727D01*
X130889039Y-99210337D01*
X131147897Y-98997897D01*
X131360337Y-98739039D01*
X131518194Y-98443709D01*
X131615402Y-98123258D01*
X131648225Y-97790000D01*
X131615402Y-97456742D01*
X131518194Y-97136291D01*
X131360337Y-96840961D01*
X131147897Y-96582103D01*
X131072225Y-96520000D01*
X131147897Y-96457897D01*
X131360337Y-96199039D01*
X131518194Y-95903709D01*
X131615402Y-95583258D01*
X131648225Y-95250000D01*
X131615402Y-94916742D01*
X131518194Y-94596291D01*
X131360337Y-94300961D01*
X131147897Y-94042103D01*
X131072225Y-93980000D01*
X131147897Y-93917897D01*
X131360337Y-93659039D01*
X131427385Y-93533600D01*
X132526033Y-93533600D01*
X132852000Y-93859568D01*
X132852000Y-94019290D01*
X132908299Y-94302325D01*
X133018733Y-94568938D01*
X133179060Y-94808883D01*
X133383117Y-95012940D01*
X133580758Y-95145000D01*
X133383117Y-95277060D01*
X133179060Y-95481117D01*
X133018733Y-95721062D01*
X132908299Y-95987675D01*
X132852000Y-96270710D01*
X132852000Y-96559290D01*
X132908299Y-96842325D01*
X133018733Y-97108938D01*
X133179060Y-97348883D01*
X133383117Y-97552940D01*
X133580758Y-97685000D01*
X133383117Y-97817060D01*
X133179060Y-98021117D01*
X133018733Y-98261062D01*
X132908299Y-98527675D01*
X132852000Y-98810710D01*
X132852000Y-99099290D01*
X132908299Y-99382325D01*
X133018733Y-99648938D01*
X133179060Y-99888883D01*
X133383117Y-100092940D01*
X133580758Y-100225000D01*
X133383117Y-100357060D01*
X133179060Y-100561117D01*
X133018733Y-100801062D01*
X132908299Y-101067675D01*
X132852000Y-101350710D01*
X132852000Y-101639290D01*
X132908299Y-101922325D01*
X133018733Y-102188938D01*
X133179060Y-102428883D01*
X133383117Y-102632940D01*
X133580758Y-102765000D01*
X133383117Y-102897060D01*
X133179060Y-103101117D01*
X133018733Y-103341062D01*
X132908299Y-103607675D01*
X132852000Y-103890710D01*
X132852000Y-104179290D01*
X132908299Y-104462325D01*
X133018733Y-104728938D01*
X133179060Y-104968883D01*
X133383117Y-105172940D01*
X133580758Y-105305000D01*
X133383117Y-105437060D01*
X133179060Y-105641117D01*
X133018733Y-105881062D01*
X132908299Y-106147675D01*
X132852000Y-106430710D01*
X132852000Y-106719290D01*
X132908299Y-107002325D01*
X133018733Y-107268938D01*
X133179060Y-107508883D01*
X133383117Y-107712940D01*
X133580758Y-107845000D01*
X133383117Y-107977060D01*
X133179060Y-108181117D01*
X133018733Y-108421062D01*
X132908299Y-108687675D01*
X132852000Y-108970710D01*
X132852000Y-109259290D01*
X132908299Y-109542325D01*
X133018733Y-109808938D01*
X133179060Y-110048883D01*
X133383117Y-110252940D01*
X133580758Y-110385000D01*
X133383117Y-110517060D01*
X133179060Y-110721117D01*
X133018733Y-110961062D01*
X132908299Y-111227675D01*
X132852000Y-111510710D01*
X132852000Y-111799290D01*
X132908299Y-112082325D01*
X133018733Y-112348938D01*
X133179060Y-112588883D01*
X133383117Y-112792940D01*
X133580758Y-112925000D01*
X133383117Y-113057060D01*
X133179060Y-113261117D01*
X133018733Y-113501062D01*
X132908299Y-113767675D01*
X132852000Y-114050710D01*
X132852000Y-114339290D01*
X132908299Y-114622325D01*
X133018733Y-114888938D01*
X133179060Y-115128883D01*
X133383117Y-115332940D01*
X133580758Y-115465000D01*
X133383117Y-115597060D01*
X133179060Y-115801117D01*
X133018733Y-116041062D01*
X132908299Y-116307675D01*
X132852000Y-116590710D01*
X132852000Y-116879290D01*
X132908299Y-117162325D01*
X133018733Y-117428938D01*
X133179060Y-117668883D01*
X133383117Y-117872940D01*
X133623062Y-118033267D01*
X133889675Y-118143701D01*
X134172710Y-118200000D01*
X134461290Y-118200000D01*
X134744325Y-118143701D01*
X135010938Y-118033267D01*
X135250883Y-117872940D01*
X135454940Y-117668883D01*
X135615267Y-117428938D01*
X135725701Y-117162325D01*
X135782000Y-116879290D01*
X135782000Y-116590710D01*
X135725701Y-116307675D01*
X135615267Y-116041062D01*
X135454940Y-115801117D01*
X135250883Y-115597060D01*
X135053242Y-115465000D01*
X135250883Y-115332940D01*
X135454940Y-115128883D01*
X135615267Y-114888938D01*
X135725701Y-114622325D01*
X135782000Y-114339290D01*
X135782000Y-114179567D01*
X138255100Y-111706467D01*
X138255101Y-134801640D01*
X138250141Y-134852000D01*
X138269931Y-135052934D01*
X138308237Y-135179209D01*
X138328543Y-135246148D01*
X138423721Y-135424215D01*
X138551810Y-135580291D01*
X138590924Y-135612392D01*
X139575212Y-136596681D01*
X139607309Y-136635791D01*
X139763385Y-136763880D01*
X139941452Y-136859058D01*
X140134665Y-136917669D01*
X140285249Y-136932500D01*
X140285259Y-136932500D01*
X140335599Y-136937458D01*
X140385939Y-136932500D01*
X149276650Y-136932500D01*
X149327000Y-136937459D01*
X149377350Y-136932500D01*
X149377351Y-136932500D01*
X149527935Y-136917669D01*
X149721148Y-136859058D01*
X149899215Y-136763880D01*
X150055291Y-136635791D01*
X150087397Y-136596670D01*
X152021381Y-134662687D01*
X152136242Y-134939987D01*
X152344174Y-135251179D01*
X152608821Y-135515826D01*
X152920013Y-135723758D01*
X153265791Y-135866984D01*
X153632866Y-135940000D01*
X154007134Y-135940000D01*
X154374209Y-135866984D01*
X154719987Y-135723758D01*
X155031179Y-135515826D01*
X155295826Y-135251179D01*
X155420227Y-135065000D01*
X158008450Y-135065000D01*
X158058800Y-135069959D01*
X158109150Y-135065000D01*
X158109151Y-135065000D01*
X158259735Y-135050169D01*
X158384562Y-135012303D01*
X158544174Y-135251179D01*
X158808821Y-135515826D01*
X159120013Y-135723758D01*
X159465791Y-135866984D01*
X159832866Y-135940000D01*
X160207134Y-135940000D01*
X160574209Y-135866984D01*
X160919987Y-135723758D01*
X161231179Y-135515826D01*
X161495826Y-135251179D01*
X161620227Y-135065000D01*
X164919773Y-135065000D01*
X165044174Y-135251179D01*
X165308821Y-135515826D01*
X165620013Y-135723758D01*
X165965791Y-135866984D01*
X166332866Y-135940000D01*
X166707134Y-135940000D01*
X167074209Y-135866984D01*
X167419987Y-135723758D01*
X167731179Y-135515826D01*
X167995826Y-135251179D01*
X168203758Y-134939987D01*
X168346984Y-134594209D01*
X168420000Y-134227134D01*
X168420000Y-133852866D01*
X170820000Y-133852866D01*
X170820000Y-134227134D01*
X170893016Y-134594209D01*
X171036242Y-134939987D01*
X171244174Y-135251179D01*
X171508821Y-135515826D01*
X171820013Y-135723758D01*
X172165791Y-135866984D01*
X172532866Y-135940000D01*
X172907134Y-135940000D01*
X173274209Y-135866984D01*
X173619987Y-135723758D01*
X173931179Y-135515826D01*
X174195826Y-135251179D01*
X174403758Y-134939987D01*
X174546984Y-134594209D01*
X174620000Y-134227134D01*
X174620000Y-133852866D01*
X177320000Y-133852866D01*
X177320000Y-134227134D01*
X177393016Y-134594209D01*
X177536242Y-134939987D01*
X177744174Y-135251179D01*
X178008821Y-135515826D01*
X178320013Y-135723758D01*
X178665791Y-135866984D01*
X179032866Y-135940000D01*
X179407134Y-135940000D01*
X179774209Y-135866984D01*
X180119987Y-135723758D01*
X180431179Y-135515826D01*
X180695826Y-135251179D01*
X180903758Y-134939987D01*
X181046984Y-134594209D01*
X181120000Y-134227134D01*
X181120000Y-133852866D01*
X181046984Y-133485791D01*
X180903758Y-133140013D01*
X180695826Y-132828821D01*
X180431179Y-132564174D01*
X180119987Y-132356242D01*
X179774209Y-132213016D01*
X179407134Y-132140000D01*
X179032866Y-132140000D01*
X178665791Y-132213016D01*
X178320013Y-132356242D01*
X178008821Y-132564174D01*
X177744174Y-132828821D01*
X177536242Y-133140013D01*
X177393016Y-133485791D01*
X177320000Y-133852866D01*
X174620000Y-133852866D01*
X174546984Y-133485791D01*
X174403758Y-133140013D01*
X174195826Y-132828821D01*
X173931179Y-132564174D01*
X173619987Y-132356242D01*
X173274209Y-132213016D01*
X172907134Y-132140000D01*
X172532866Y-132140000D01*
X172165791Y-132213016D01*
X171820013Y-132356242D01*
X171508821Y-132564174D01*
X171244174Y-132828821D01*
X171036242Y-133140013D01*
X170893016Y-133485791D01*
X170820000Y-133852866D01*
X168420000Y-133852866D01*
X168346984Y-133485791D01*
X168343789Y-133478078D01*
X170068095Y-131753772D01*
X187500000Y-131753772D01*
X187500000Y-132246228D01*
X187596074Y-132729223D01*
X187784529Y-133184194D01*
X188058124Y-133593657D01*
X188406343Y-133941876D01*
X188815806Y-134215471D01*
X189270777Y-134403926D01*
X189753772Y-134500000D01*
X190246228Y-134500000D01*
X190729223Y-134403926D01*
X191184194Y-134215471D01*
X191593657Y-133941876D01*
X191941876Y-133593657D01*
X192215471Y-133184194D01*
X192403926Y-132729223D01*
X192500000Y-132246228D01*
X192500000Y-131753772D01*
X192403926Y-131270777D01*
X192215471Y-130815806D01*
X191941876Y-130406343D01*
X191593657Y-130058124D01*
X191184194Y-129784529D01*
X190729223Y-129596074D01*
X190246228Y-129500000D01*
X189753772Y-129500000D01*
X189270777Y-129596074D01*
X188815806Y-129784529D01*
X188406343Y-130058124D01*
X188058124Y-130406343D01*
X187784529Y-130815806D01*
X187596074Y-131270777D01*
X187500000Y-131753772D01*
X170068095Y-131753772D01*
X171149141Y-130672726D01*
X171734353Y-130672726D01*
X171826785Y-130946341D01*
X172118311Y-131093577D01*
X172432960Y-131181109D01*
X172758640Y-131205574D01*
X173082835Y-131166032D01*
X173393086Y-131064002D01*
X173613215Y-130946341D01*
X173705647Y-130672726D01*
X178234353Y-130672726D01*
X178326785Y-130946341D01*
X178618311Y-131093577D01*
X178932960Y-131181109D01*
X179258640Y-131205574D01*
X179582835Y-131166032D01*
X179893086Y-131064002D01*
X180113215Y-130946341D01*
X180205647Y-130672726D01*
X179220000Y-129687078D01*
X178234353Y-130672726D01*
X173705647Y-130672726D01*
X172720000Y-129687078D01*
X171734353Y-130672726D01*
X171149141Y-130672726D01*
X171369716Y-130452152D01*
X171587274Y-130525647D01*
X172572922Y-129540000D01*
X172867078Y-129540000D01*
X173852726Y-130525647D01*
X174126341Y-130433215D01*
X174273577Y-130141689D01*
X174361109Y-129827040D01*
X174379768Y-129578640D01*
X177554426Y-129578640D01*
X177593968Y-129902835D01*
X177695998Y-130213086D01*
X177813659Y-130433215D01*
X178087274Y-130525647D01*
X179072922Y-129540000D01*
X179367078Y-129540000D01*
X180352726Y-130525647D01*
X180626341Y-130433215D01*
X180773577Y-130141689D01*
X180861109Y-129827040D01*
X180885574Y-129501360D01*
X180846032Y-129177165D01*
X180744002Y-128866914D01*
X180626341Y-128646785D01*
X180352726Y-128554353D01*
X179367078Y-129540000D01*
X179072922Y-129540000D01*
X178087274Y-128554353D01*
X177813659Y-128646785D01*
X177666423Y-128938311D01*
X177578891Y-129252960D01*
X177554426Y-129578640D01*
X174379768Y-129578640D01*
X174385574Y-129501360D01*
X174346032Y-129177165D01*
X174244002Y-128866914D01*
X174126341Y-128646785D01*
X173852726Y-128554353D01*
X172867078Y-129540000D01*
X172572922Y-129540000D01*
X172558780Y-129525858D01*
X172705858Y-129378780D01*
X172720000Y-129392922D01*
X173705647Y-128407274D01*
X178234353Y-128407274D01*
X179220000Y-129392922D01*
X180205647Y-128407274D01*
X180113215Y-128133659D01*
X179821689Y-127986423D01*
X179507040Y-127898891D01*
X179181360Y-127874426D01*
X178857165Y-127913968D01*
X178546914Y-128015998D01*
X178326785Y-128133659D01*
X178234353Y-128407274D01*
X173705647Y-128407274D01*
X173632152Y-128189716D01*
X174708428Y-127113440D01*
X174734000Y-127115959D01*
X174784350Y-127111000D01*
X174784351Y-127111000D01*
X174934935Y-127096169D01*
X175128148Y-127037558D01*
X175306215Y-126942380D01*
X175462291Y-126814291D01*
X175494397Y-126775170D01*
X185761476Y-116508092D01*
X185800591Y-116475991D01*
X185928680Y-116319915D01*
X186023858Y-116141848D01*
X186072358Y-115981966D01*
X186082469Y-115948636D01*
X186086245Y-115910291D01*
X186097300Y-115798051D01*
X186097300Y-115798044D01*
X186102258Y-115747701D01*
X186097300Y-115697358D01*
X186097300Y-106801567D01*
X191780937Y-112485206D01*
X191714663Y-112565961D01*
X191556806Y-112861291D01*
X191459598Y-113181742D01*
X191426775Y-113515000D01*
X191459598Y-113848258D01*
X191556806Y-114168709D01*
X191714663Y-114464039D01*
X191927103Y-114722897D01*
X192185961Y-114935337D01*
X192481291Y-115093194D01*
X192801742Y-115190402D01*
X193051490Y-115215000D01*
X193218510Y-115215000D01*
X193468258Y-115190402D01*
X193788709Y-115093194D01*
X194084039Y-114935337D01*
X194342897Y-114722897D01*
X194555337Y-114464039D01*
X194713194Y-114168709D01*
X194810402Y-113848258D01*
X194843225Y-113515000D01*
X194810402Y-113181742D01*
X194713194Y-112861291D01*
X194555337Y-112565961D01*
X194342897Y-112307103D01*
X194127424Y-112130268D01*
X194086558Y-111995552D01*
X193991380Y-111817485D01*
X193863291Y-111661409D01*
X193824181Y-111629312D01*
X193231581Y-111036713D01*
X193468258Y-111013402D01*
X193788709Y-110916194D01*
X194084039Y-110758337D01*
X194342897Y-110545897D01*
X194555337Y-110287039D01*
X194713194Y-109991709D01*
X194810402Y-109671258D01*
X194843225Y-109338000D01*
X194810402Y-109004742D01*
X194713194Y-108684291D01*
X194555337Y-108388961D01*
X194342897Y-108130103D01*
X194127424Y-107953268D01*
X194086558Y-107818551D01*
X193991380Y-107640485D01*
X193895388Y-107523519D01*
X193863291Y-107484409D01*
X193824181Y-107452312D01*
X193230671Y-106858802D01*
X193468258Y-106835402D01*
X193788709Y-106738194D01*
X194084039Y-106580337D01*
X194342897Y-106367897D01*
X194555337Y-106109039D01*
X194713194Y-105813709D01*
X194810402Y-105493258D01*
X194843225Y-105160000D01*
X194810402Y-104826742D01*
X194713194Y-104506291D01*
X194555337Y-104210961D01*
X194342897Y-103952103D01*
X194084039Y-103739663D01*
X193788709Y-103581806D01*
X193468258Y-103484598D01*
X193218510Y-103460000D01*
X193051490Y-103460000D01*
X192801742Y-103484598D01*
X192481291Y-103581806D01*
X192185961Y-103739663D01*
X191927103Y-103952103D01*
X191714663Y-104210961D01*
X191556806Y-104506291D01*
X191459598Y-104826742D01*
X191436198Y-105064329D01*
X187410200Y-101038333D01*
X187410200Y-95723167D01*
X191717516Y-100030485D01*
X191714663Y-100033961D01*
X191556806Y-100329291D01*
X191459598Y-100649742D01*
X191426775Y-100983000D01*
X191459598Y-101316258D01*
X191556806Y-101636709D01*
X191714663Y-101932039D01*
X191927103Y-102190897D01*
X192185961Y-102403337D01*
X192481291Y-102561194D01*
X192801742Y-102658402D01*
X193051490Y-102683000D01*
X193218510Y-102683000D01*
X193468258Y-102658402D01*
X193788709Y-102561194D01*
X194084039Y-102403337D01*
X194342897Y-102190897D01*
X194555337Y-101932039D01*
X194713194Y-101636709D01*
X194810402Y-101316258D01*
X194843225Y-100983000D01*
X194810402Y-100649742D01*
X194713194Y-100329291D01*
X194555337Y-100033961D01*
X194342897Y-99775103D01*
X194127424Y-99598268D01*
X194086558Y-99463552D01*
X193991380Y-99285485D01*
X193863291Y-99129409D01*
X193707215Y-99001320D01*
X193529148Y-98906142D01*
X193476271Y-98890102D01*
X193092069Y-98505900D01*
X193218510Y-98505900D01*
X193468258Y-98481302D01*
X193788709Y-98384094D01*
X194084039Y-98226237D01*
X194342897Y-98013797D01*
X194555337Y-97754939D01*
X194713194Y-97459609D01*
X194810402Y-97139158D01*
X194843225Y-96805900D01*
X194810402Y-96472642D01*
X194713194Y-96152191D01*
X194555337Y-95856861D01*
X194342897Y-95598003D01*
X194084039Y-95385563D01*
X193788709Y-95227706D01*
X193468258Y-95130498D01*
X193218510Y-95105900D01*
X193051490Y-95105900D01*
X192801742Y-95130498D01*
X192481291Y-95227706D01*
X192185961Y-95385563D01*
X191927103Y-95598003D01*
X191714663Y-95856861D01*
X191640040Y-95996471D01*
X188727000Y-93083433D01*
X188727000Y-88544868D01*
X191780937Y-91598806D01*
X191714663Y-91679561D01*
X191556806Y-91974891D01*
X191459598Y-92295342D01*
X191426775Y-92628600D01*
X191459598Y-92961858D01*
X191556806Y-93282309D01*
X191714663Y-93577639D01*
X191927103Y-93836497D01*
X192185961Y-94048937D01*
X192481291Y-94206794D01*
X192801742Y-94304002D01*
X193051490Y-94328600D01*
X193218510Y-94328600D01*
X193468258Y-94304002D01*
X193788709Y-94206794D01*
X194084039Y-94048937D01*
X194342897Y-93836497D01*
X194555337Y-93577639D01*
X194713194Y-93282309D01*
X194810402Y-92961858D01*
X194843225Y-92628600D01*
X194810402Y-92295342D01*
X194713194Y-91974891D01*
X194555337Y-91679561D01*
X194342897Y-91420703D01*
X194127424Y-91243868D01*
X194086558Y-91109152D01*
X193991380Y-90931085D01*
X193863291Y-90775009D01*
X193824181Y-90742912D01*
X193231399Y-90150131D01*
X193468258Y-90126802D01*
X193788709Y-90029594D01*
X194084039Y-89871737D01*
X194342897Y-89659297D01*
X194555337Y-89400439D01*
X194713194Y-89105109D01*
X194810402Y-88784658D01*
X194843225Y-88451400D01*
X194810402Y-88118142D01*
X194713194Y-87797691D01*
X194555337Y-87502361D01*
X194342897Y-87243503D01*
X194127424Y-87066668D01*
X194086558Y-86931952D01*
X193991380Y-86753885D01*
X193863291Y-86597809D01*
X193824176Y-86565708D01*
X193231307Y-85972840D01*
X193468258Y-85949502D01*
X193788709Y-85852294D01*
X194084039Y-85694437D01*
X194342897Y-85481997D01*
X194555337Y-85223139D01*
X194713194Y-84927809D01*
X194810402Y-84607358D01*
X194843225Y-84274100D01*
X194810402Y-83940842D01*
X194713194Y-83620391D01*
X194555337Y-83325061D01*
X194342897Y-83066203D01*
X194127424Y-82889368D01*
X194086558Y-82754652D01*
X193991380Y-82576585D01*
X193863291Y-82420509D01*
X193824181Y-82388412D01*
X193231308Y-81795540D01*
X193468258Y-81772202D01*
X193788709Y-81674994D01*
X194084039Y-81517137D01*
X194342897Y-81304697D01*
X194555337Y-81045839D01*
X194713194Y-80750509D01*
X194810402Y-80430058D01*
X194843225Y-80096800D01*
X194810402Y-79763542D01*
X194713194Y-79443091D01*
X194555337Y-79147761D01*
X194342897Y-78888903D01*
X194127424Y-78712068D01*
X194086558Y-78577351D01*
X193991380Y-78399285D01*
X193895388Y-78282319D01*
X193863291Y-78243209D01*
X193824181Y-78211112D01*
X193231307Y-77618240D01*
X193468258Y-77594902D01*
X193788709Y-77497694D01*
X194084039Y-77339837D01*
X194342897Y-77127397D01*
X194555337Y-76868539D01*
X194713194Y-76573209D01*
X194810402Y-76252758D01*
X194843225Y-75919500D01*
X194810402Y-75586242D01*
X194713194Y-75265791D01*
X194555337Y-74970461D01*
X194342897Y-74711603D01*
X194084039Y-74499163D01*
X193788709Y-74341306D01*
X193468258Y-74244098D01*
X193218510Y-74219500D01*
X193051490Y-74219500D01*
X193034700Y-74221154D01*
X193034700Y-73440646D01*
X193051490Y-73442300D01*
X193218510Y-73442300D01*
X193468258Y-73417702D01*
X193788709Y-73320494D01*
X194084039Y-73162637D01*
X194342897Y-72950197D01*
X194555337Y-72691339D01*
X194713194Y-72396009D01*
X194810402Y-72075558D01*
X194843225Y-71742300D01*
X194810402Y-71409042D01*
X194713194Y-71088591D01*
X194555337Y-70793261D01*
X194342897Y-70534403D01*
X194084039Y-70321963D01*
X193788709Y-70164106D01*
X193468258Y-70066898D01*
X193218510Y-70042300D01*
X193051490Y-70042300D01*
X193034700Y-70043954D01*
X193034700Y-69263346D01*
X193051490Y-69265000D01*
X193218510Y-69265000D01*
X193468258Y-69240402D01*
X193788709Y-69143194D01*
X194084039Y-68985337D01*
X194342897Y-68772897D01*
X194555337Y-68514039D01*
X194713194Y-68218709D01*
X194810402Y-67898258D01*
X194843225Y-67565000D01*
X194810402Y-67231742D01*
X194713194Y-66911291D01*
X194555337Y-66615961D01*
X194342897Y-66357103D01*
X194084039Y-66144663D01*
X193788709Y-65986806D01*
X193468258Y-65889598D01*
X193218510Y-65865000D01*
X193051490Y-65865000D01*
X193034700Y-65866654D01*
X193034700Y-60777251D01*
X193039659Y-60726900D01*
X193019869Y-60525965D01*
X192961258Y-60332751D01*
X192866080Y-60154685D01*
X192770088Y-60037719D01*
X192737991Y-59998609D01*
X192698881Y-59966512D01*
X189083497Y-56351130D01*
X189051391Y-56312009D01*
X188895315Y-56183920D01*
X188717248Y-56088742D01*
X188524035Y-56030131D01*
X188373451Y-56015300D01*
X188373450Y-56015300D01*
X188323100Y-56010341D01*
X188272750Y-56015300D01*
X166025851Y-56015300D01*
X165975500Y-56010341D01*
X165774565Y-56030131D01*
X165581351Y-56088742D01*
X165403285Y-56183920D01*
X165247209Y-56312009D01*
X165215112Y-56351119D01*
X163656977Y-57909256D01*
X163636431Y-57903023D01*
X163460000Y-57885646D01*
X161660000Y-57885646D01*
X161483569Y-57903023D01*
X161313919Y-57954486D01*
X161157568Y-58038057D01*
X161020525Y-58150525D01*
X160908057Y-58287568D01*
X160824486Y-58443919D01*
X160773023Y-58613569D01*
X160755646Y-58790000D01*
X160755646Y-59066479D01*
X159010097Y-57320930D01*
X158977991Y-57281809D01*
X158821915Y-57153720D01*
X158643848Y-57058542D01*
X158450635Y-56999931D01*
X158300051Y-56985100D01*
X158300050Y-56985100D01*
X158249700Y-56980141D01*
X158199350Y-56985100D01*
X134617442Y-56985100D01*
X134567099Y-56980142D01*
X134516756Y-56985100D01*
X134516749Y-56985100D01*
X134384765Y-56998099D01*
X134366164Y-56999931D01*
X134332191Y-57010237D01*
X134172952Y-57058542D01*
X133994885Y-57153720D01*
X133838809Y-57281809D01*
X133806712Y-57320919D01*
X133208741Y-57918891D01*
X133156431Y-57903023D01*
X132980000Y-57885646D01*
X131180000Y-57885646D01*
X131003569Y-57903023D01*
X130833919Y-57954486D01*
X130677568Y-58038057D01*
X130540525Y-58150525D01*
X130428057Y-58287568D01*
X130344486Y-58443919D01*
X130293023Y-58613569D01*
X130275646Y-58790000D01*
X130275646Y-60590000D01*
X130293023Y-60766431D01*
X130344486Y-60936081D01*
X130428057Y-61092432D01*
X130540525Y-61229475D01*
X130677568Y-61341943D01*
X130833919Y-61425514D01*
X131003569Y-61476977D01*
X131180000Y-61494354D01*
X132280401Y-61494354D01*
X132280400Y-68912731D01*
X130634354Y-70558778D01*
X130634354Y-69650000D01*
X130616977Y-69473569D01*
X130565514Y-69303919D01*
X130509968Y-69200000D01*
X130565514Y-69096081D01*
X130616977Y-68926431D01*
X130634354Y-68750000D01*
X130634354Y-67650000D01*
X130616977Y-67473569D01*
X130565514Y-67303919D01*
X130481943Y-67147568D01*
X130369475Y-67010525D01*
X130232432Y-66898057D01*
X130076081Y-66814486D01*
X130072056Y-66813265D01*
X130097334Y-66799754D01*
X130197528Y-66717528D01*
X130279754Y-66617334D01*
X130340854Y-66503024D01*
X130378480Y-66378991D01*
X130391184Y-66250000D01*
X130388000Y-65968500D01*
X130223500Y-65804000D01*
X128584000Y-65804000D01*
X128584000Y-65824000D01*
X128376000Y-65824000D01*
X128376000Y-65804000D01*
X126736500Y-65804000D01*
X126710555Y-65829945D01*
X126654321Y-65773711D01*
X126416833Y-65615027D01*
X126152949Y-65505723D01*
X125872813Y-65450000D01*
X125587187Y-65450000D01*
X125307051Y-65505723D01*
X125043167Y-65615027D01*
X124805679Y-65773711D01*
X124603711Y-65975679D01*
X124445027Y-66213167D01*
X124335723Y-66477051D01*
X124280000Y-66757187D01*
X124280000Y-67042813D01*
X124335723Y-67322949D01*
X124445027Y-67586833D01*
X124603711Y-67824321D01*
X124805679Y-68026289D01*
X125043167Y-68184973D01*
X125307051Y-68294277D01*
X125587187Y-68350000D01*
X125872813Y-68350000D01*
X126152949Y-68294277D01*
X126325646Y-68222744D01*
X126325646Y-68750000D01*
X126343023Y-68926431D01*
X126394486Y-69096081D01*
X126450032Y-69200000D01*
X126394486Y-69303919D01*
X126343023Y-69473569D01*
X126325646Y-69650000D01*
X126325646Y-70177256D01*
X126152949Y-70105723D01*
X125872813Y-70050000D01*
X125587187Y-70050000D01*
X125307051Y-70105723D01*
X125043167Y-70215027D01*
X124805679Y-70373711D01*
X124603711Y-70575679D01*
X124445027Y-70813167D01*
X124335723Y-71077051D01*
X124280000Y-71357187D01*
X124280000Y-71642813D01*
X124335723Y-71922949D01*
X124445027Y-72186833D01*
X124603711Y-72424321D01*
X124805679Y-72626289D01*
X125043167Y-72784973D01*
X125307051Y-72894277D01*
X125587187Y-72950000D01*
X125872813Y-72950000D01*
X126152949Y-72894277D01*
X126325646Y-72822744D01*
X126325646Y-73250000D01*
X126329783Y-73292000D01*
X125834000Y-73292000D01*
X125834000Y-74796000D01*
X127969749Y-74796000D01*
X128098608Y-74546261D01*
X128055397Y-74380728D01*
X127952593Y-74154354D01*
X128917701Y-74154354D01*
X128917701Y-78754892D01*
X128853291Y-78676409D01*
X128697215Y-78548320D01*
X128519148Y-78453142D01*
X128325935Y-78394531D01*
X128324189Y-78394359D01*
X128175351Y-78379700D01*
X128125000Y-78374741D01*
X128074650Y-78379700D01*
X124959039Y-78379700D01*
X124908699Y-78374742D01*
X124858359Y-78379700D01*
X124858349Y-78379700D01*
X124707765Y-78394531D01*
X124514552Y-78453142D01*
X124336485Y-78548320D01*
X124180409Y-78676409D01*
X124148312Y-78715519D01*
X119350300Y-83513533D01*
X119350300Y-82270351D01*
X119355259Y-82220000D01*
X119335469Y-82019065D01*
X119276858Y-81825852D01*
X119181680Y-81647785D01*
X119053591Y-81491709D01*
X118897515Y-81363620D01*
X118719448Y-81268442D01*
X118526235Y-81209831D01*
X118478189Y-81205099D01*
X118346081Y-81134486D01*
X118176431Y-81083023D01*
X118000000Y-81065646D01*
X116000000Y-81065646D01*
X115823569Y-81083023D01*
X115653919Y-81134486D01*
X115621435Y-81151849D01*
X115540664Y-80956851D01*
X115387451Y-80727552D01*
X115192448Y-80532549D01*
X114963149Y-80379336D01*
X114940610Y-80370000D01*
X115388816Y-80370000D01*
X115401520Y-80498991D01*
X115439146Y-80623024D01*
X115500246Y-80737334D01*
X115582472Y-80837528D01*
X115682666Y-80919754D01*
X115796976Y-80980854D01*
X115921009Y-81018480D01*
X116050000Y-81031184D01*
X116631500Y-81028000D01*
X116796000Y-80863500D01*
X116796000Y-79474000D01*
X117004000Y-79474000D01*
X117004000Y-80863500D01*
X117168500Y-81028000D01*
X117750000Y-81031184D01*
X117878991Y-81018480D01*
X118003024Y-80980854D01*
X118117334Y-80919754D01*
X118217528Y-80837528D01*
X118299754Y-80737334D01*
X118360854Y-80623024D01*
X118398480Y-80498991D01*
X118411184Y-80370000D01*
X118408000Y-79638500D01*
X118243500Y-79474000D01*
X117004000Y-79474000D01*
X116796000Y-79474000D01*
X115556500Y-79474000D01*
X115392000Y-79638500D01*
X115388816Y-80370000D01*
X114940610Y-80370000D01*
X114708365Y-80273801D01*
X114437888Y-80220000D01*
X114162112Y-80220000D01*
X113891635Y-80273801D01*
X113636851Y-80379336D01*
X113407552Y-80532549D01*
X113212549Y-80727552D01*
X113059336Y-80956851D01*
X112953801Y-81211635D01*
X112900000Y-81482112D01*
X112900000Y-81757888D01*
X112953801Y-82028365D01*
X113059336Y-82283149D01*
X113212549Y-82512448D01*
X113407552Y-82707451D01*
X113636851Y-82860664D01*
X113891635Y-82966199D01*
X114162112Y-83020000D01*
X114437888Y-83020000D01*
X114708365Y-82966199D01*
X114963149Y-82860664D01*
X115095646Y-82772132D01*
X115095646Y-83270000D01*
X115110420Y-83420000D01*
X115095646Y-83570000D01*
X115095646Y-84070000D01*
X115110420Y-84220000D01*
X115095646Y-84370000D01*
X115095646Y-84867868D01*
X114963149Y-84779336D01*
X114708365Y-84673801D01*
X114437888Y-84620000D01*
X114162112Y-84620000D01*
X113891635Y-84673801D01*
X113636851Y-84779336D01*
X113407552Y-84932549D01*
X113212549Y-85127552D01*
X113059336Y-85356851D01*
X112953801Y-85611635D01*
X112900000Y-85882112D01*
X112900000Y-86157888D01*
X112953801Y-86428365D01*
X113059336Y-86683149D01*
X113212549Y-86912448D01*
X113407552Y-87107451D01*
X113636851Y-87260664D01*
X113891635Y-87366199D01*
X114162112Y-87420000D01*
X114437888Y-87420000D01*
X114708365Y-87366199D01*
X114940609Y-87270000D01*
X115388816Y-87270000D01*
X115392000Y-88001500D01*
X115556500Y-88166000D01*
X116796000Y-88166000D01*
X116796000Y-86776500D01*
X116631500Y-86612000D01*
X116050000Y-86608816D01*
X115921009Y-86621520D01*
X115796976Y-86659146D01*
X115682666Y-86720246D01*
X115582472Y-86802472D01*
X115500246Y-86902666D01*
X115439146Y-87016976D01*
X115401520Y-87141009D01*
X115388816Y-87270000D01*
X114940609Y-87270000D01*
X114963149Y-87260664D01*
X115192448Y-87107451D01*
X115387451Y-86912448D01*
X115540664Y-86683149D01*
X115646199Y-86428365D01*
X115682394Y-86246398D01*
X115750312Y-86282226D01*
X115874549Y-86319174D01*
X116003607Y-86331174D01*
X116731500Y-86328000D01*
X116896000Y-86163500D01*
X116896000Y-85774354D01*
X117104000Y-85774354D01*
X117104000Y-86163500D01*
X117268500Y-86328000D01*
X117300300Y-86328139D01*
X117300300Y-86611278D01*
X117168500Y-86612000D01*
X117004000Y-86776500D01*
X117004000Y-88166000D01*
X117024000Y-88166000D01*
X117024000Y-88374000D01*
X117004000Y-88374000D01*
X117004000Y-88394000D01*
X116796000Y-88394000D01*
X116796000Y-88374000D01*
X115556500Y-88374000D01*
X115392000Y-88538500D01*
X115388816Y-89270000D01*
X115401520Y-89398991D01*
X115439146Y-89523024D01*
X115500246Y-89637334D01*
X115582472Y-89737528D01*
X115682666Y-89819754D01*
X115796976Y-89880854D01*
X115921009Y-89918480D01*
X116050000Y-89931184D01*
X116192629Y-89930403D01*
X114978158Y-91144874D01*
X114953709Y-91131806D01*
X114633258Y-91034598D01*
X114383510Y-91010000D01*
X114216490Y-91010000D01*
X113966742Y-91034598D01*
X113646291Y-91131806D01*
X113350961Y-91289663D01*
X113092103Y-91502103D01*
X112879663Y-91760961D01*
X112721806Y-92056291D01*
X112624598Y-92376742D01*
X112591775Y-92710000D01*
X112624598Y-93043258D01*
X112721806Y-93363709D01*
X112879663Y-93659039D01*
X112945937Y-93739794D01*
X109925000Y-96760733D01*
X109925000Y-94315104D01*
X110156742Y-94385402D01*
X110406490Y-94410000D01*
X110573510Y-94410000D01*
X110823258Y-94385402D01*
X111143709Y-94288194D01*
X111439039Y-94130337D01*
X111697897Y-93917897D01*
X111910337Y-93659039D01*
X112068194Y-93363709D01*
X112165402Y-93043258D01*
X112198225Y-92710000D01*
X112165402Y-92376742D01*
X112068194Y-92056291D01*
X111910337Y-91760961D01*
X111697897Y-91502103D01*
X111439039Y-91289663D01*
X111143709Y-91131806D01*
X110823258Y-91034598D01*
X110573510Y-91010000D01*
X110406490Y-91010000D01*
X110156742Y-91034598D01*
X109925000Y-91104896D01*
X109925000Y-89270000D01*
X109938816Y-89270000D01*
X109951520Y-89398991D01*
X109989146Y-89523024D01*
X110050246Y-89637334D01*
X110132472Y-89737528D01*
X110232666Y-89819754D01*
X110346976Y-89880854D01*
X110471009Y-89918480D01*
X110600000Y-89931184D01*
X111181500Y-89928000D01*
X111346000Y-89763500D01*
X111346000Y-88374000D01*
X111554000Y-88374000D01*
X111554000Y-89763500D01*
X111718500Y-89928000D01*
X112300000Y-89931184D01*
X112428991Y-89918480D01*
X112553024Y-89880854D01*
X112667334Y-89819754D01*
X112767528Y-89737528D01*
X112849754Y-89637334D01*
X112910854Y-89523024D01*
X112948480Y-89398991D01*
X112961184Y-89270000D01*
X112958000Y-88538500D01*
X112793500Y-88374000D01*
X111554000Y-88374000D01*
X111346000Y-88374000D01*
X110106500Y-88374000D01*
X109942000Y-88538500D01*
X109938816Y-89270000D01*
X109925000Y-89270000D01*
X109925000Y-87270000D01*
X109938816Y-87270000D01*
X109942000Y-88001500D01*
X110106500Y-88166000D01*
X111346000Y-88166000D01*
X111346000Y-86776500D01*
X111554000Y-86776500D01*
X111554000Y-88166000D01*
X112793500Y-88166000D01*
X112958000Y-88001500D01*
X112961184Y-87270000D01*
X112948480Y-87141009D01*
X112910854Y-87016976D01*
X112849754Y-86902666D01*
X112767528Y-86802472D01*
X112667334Y-86720246D01*
X112553024Y-86659146D01*
X112428991Y-86621520D01*
X112300000Y-86608816D01*
X111718500Y-86612000D01*
X111554000Y-86776500D01*
X111346000Y-86776500D01*
X111181500Y-86612000D01*
X110600000Y-86608816D01*
X110471009Y-86621520D01*
X110346976Y-86659146D01*
X110232666Y-86720246D01*
X110132472Y-86802472D01*
X110050246Y-86902666D01*
X109989146Y-87016976D01*
X109951520Y-87141009D01*
X109938816Y-87270000D01*
X109925000Y-87270000D01*
X109925000Y-80370000D01*
X109938816Y-80370000D01*
X109951520Y-80498991D01*
X109989146Y-80623024D01*
X110050246Y-80737334D01*
X110132472Y-80837528D01*
X110232666Y-80919754D01*
X110346976Y-80980854D01*
X110471009Y-81018480D01*
X110600000Y-81031184D01*
X111181500Y-81028000D01*
X111346000Y-80863500D01*
X111346000Y-79474000D01*
X111554000Y-79474000D01*
X111554000Y-80863500D01*
X111718500Y-81028000D01*
X112300000Y-81031184D01*
X112428991Y-81018480D01*
X112553024Y-80980854D01*
X112667334Y-80919754D01*
X112767528Y-80837528D01*
X112849754Y-80737334D01*
X112910854Y-80623024D01*
X112948480Y-80498991D01*
X112961184Y-80370000D01*
X112958000Y-79638500D01*
X112793500Y-79474000D01*
X111554000Y-79474000D01*
X111346000Y-79474000D01*
X110106500Y-79474000D01*
X109942000Y-79638500D01*
X109938816Y-80370000D01*
X109925000Y-80370000D01*
X109925000Y-78370000D01*
X109938816Y-78370000D01*
X109942000Y-79101500D01*
X110106500Y-79266000D01*
X111346000Y-79266000D01*
X111346000Y-77876500D01*
X111554000Y-77876500D01*
X111554000Y-79266000D01*
X112793500Y-79266000D01*
X112958000Y-79101500D01*
X112961184Y-78370000D01*
X115388816Y-78370000D01*
X115392000Y-79101500D01*
X115556500Y-79266000D01*
X116796000Y-79266000D01*
X116796000Y-77876500D01*
X117004000Y-77876500D01*
X117004000Y-79266000D01*
X118243500Y-79266000D01*
X118408000Y-79101500D01*
X118409573Y-78740000D01*
X118941775Y-78740000D01*
X118974598Y-79073258D01*
X119071806Y-79393709D01*
X119229663Y-79689039D01*
X119442103Y-79947897D01*
X119700961Y-80160337D01*
X119996291Y-80318194D01*
X120316742Y-80415402D01*
X120566490Y-80440000D01*
X120733510Y-80440000D01*
X120983258Y-80415402D01*
X121303709Y-80318194D01*
X121599039Y-80160337D01*
X121857897Y-79947897D01*
X122070337Y-79689039D01*
X122228194Y-79393709D01*
X122325402Y-79073258D01*
X122358225Y-78740000D01*
X122325402Y-78406742D01*
X122228194Y-78086291D01*
X122070337Y-77790961D01*
X121857897Y-77532103D01*
X121599039Y-77319663D01*
X121303709Y-77161806D01*
X120983258Y-77064598D01*
X120733510Y-77040000D01*
X120566490Y-77040000D01*
X120316742Y-77064598D01*
X119996291Y-77161806D01*
X119700961Y-77319663D01*
X119442103Y-77532103D01*
X119229663Y-77790961D01*
X119071806Y-78086291D01*
X118974598Y-78406742D01*
X118941775Y-78740000D01*
X118409573Y-78740000D01*
X118411184Y-78370000D01*
X118398480Y-78241009D01*
X118360854Y-78116976D01*
X118299754Y-78002666D01*
X118217528Y-77902472D01*
X118117334Y-77820246D01*
X118003024Y-77759146D01*
X117878991Y-77721520D01*
X117750000Y-77708816D01*
X117168500Y-77712000D01*
X117004000Y-77876500D01*
X116796000Y-77876500D01*
X116631500Y-77712000D01*
X116050000Y-77708816D01*
X115921009Y-77721520D01*
X115796976Y-77759146D01*
X115682666Y-77820246D01*
X115582472Y-77902472D01*
X115500246Y-78002666D01*
X115439146Y-78116976D01*
X115401520Y-78241009D01*
X115388816Y-78370000D01*
X112961184Y-78370000D01*
X112948480Y-78241009D01*
X112910854Y-78116976D01*
X112849754Y-78002666D01*
X112767528Y-77902472D01*
X112667334Y-77820246D01*
X112553024Y-77759146D01*
X112428991Y-77721520D01*
X112300000Y-77708816D01*
X111718500Y-77712000D01*
X111554000Y-77876500D01*
X111346000Y-77876500D01*
X111181500Y-77712000D01*
X110600000Y-77708816D01*
X110471009Y-77721520D01*
X110346976Y-77759146D01*
X110232666Y-77820246D01*
X110132472Y-77902472D01*
X110050246Y-78002666D01*
X109989146Y-78116976D01*
X109951520Y-78241009D01*
X109938816Y-78370000D01*
X109925000Y-78370000D01*
X109925000Y-75253739D01*
X123361392Y-75253739D01*
X123404603Y-75419272D01*
X123535218Y-75706885D01*
X123719434Y-75963489D01*
X123950171Y-76179224D01*
X124218562Y-76345799D01*
X124514293Y-76456813D01*
X124826000Y-76508000D01*
X125626000Y-76508000D01*
X125626000Y-75004000D01*
X125834000Y-75004000D01*
X125834000Y-76508000D01*
X126634000Y-76508000D01*
X126945707Y-76456813D01*
X127241438Y-76345799D01*
X127509829Y-76179224D01*
X127740566Y-75963489D01*
X127924782Y-75706885D01*
X128055397Y-75419272D01*
X128098608Y-75253739D01*
X127969749Y-75004000D01*
X125834000Y-75004000D01*
X125626000Y-75004000D01*
X123490251Y-75004000D01*
X123361392Y-75253739D01*
X109925000Y-75253739D01*
X109925000Y-74546261D01*
X123361392Y-74546261D01*
X123490251Y-74796000D01*
X125626000Y-74796000D01*
X125626000Y-73292000D01*
X124826000Y-73292000D01*
X124514293Y-73343187D01*
X124218562Y-73454201D01*
X123950171Y-73620776D01*
X123719434Y-73836511D01*
X123535218Y-74093115D01*
X123404603Y-74380728D01*
X123361392Y-74546261D01*
X109925000Y-74546261D01*
X109925000Y-63853739D01*
X123361392Y-63853739D01*
X123404603Y-64019272D01*
X123535218Y-64306885D01*
X123719434Y-64563489D01*
X123950171Y-64779224D01*
X124218562Y-64945799D01*
X124514293Y-65056813D01*
X124826000Y-65108000D01*
X125626000Y-65108000D01*
X125626000Y-63604000D01*
X125834000Y-63604000D01*
X125834000Y-65108000D01*
X126572952Y-65108000D01*
X126568816Y-65150000D01*
X126572000Y-65431500D01*
X126736500Y-65596000D01*
X128376000Y-65596000D01*
X128376000Y-64656500D01*
X128584000Y-64656500D01*
X128584000Y-65596000D01*
X130223500Y-65596000D01*
X130388000Y-65431500D01*
X130391184Y-65150000D01*
X130378480Y-65021009D01*
X130340854Y-64896976D01*
X130279754Y-64782666D01*
X130197528Y-64682472D01*
X130097334Y-64600246D01*
X129983024Y-64539146D01*
X129858991Y-64501520D01*
X129730000Y-64488816D01*
X128748500Y-64492000D01*
X128584000Y-64656500D01*
X128376000Y-64656500D01*
X128211500Y-64492000D01*
X127792863Y-64490642D01*
X127924782Y-64306885D01*
X128055397Y-64019272D01*
X128098608Y-63853739D01*
X127969749Y-63604000D01*
X125834000Y-63604000D01*
X125626000Y-63604000D01*
X123490251Y-63604000D01*
X123361392Y-63853739D01*
X109925000Y-63853739D01*
X109925000Y-63146261D01*
X123361392Y-63146261D01*
X123490251Y-63396000D01*
X125626000Y-63396000D01*
X125626000Y-63376000D01*
X125834000Y-63376000D01*
X125834000Y-63396000D01*
X127969749Y-63396000D01*
X128098608Y-63146261D01*
X128055397Y-62980728D01*
X127924782Y-62693115D01*
X127740566Y-62436511D01*
X127509829Y-62220776D01*
X127241438Y-62054201D01*
X126945707Y-61943187D01*
X126634000Y-61892000D01*
X124826000Y-61892000D01*
X124514293Y-61943187D01*
X124218562Y-62054201D01*
X123950171Y-62220776D01*
X123719434Y-62436511D01*
X123535218Y-62693115D01*
X123404603Y-62980728D01*
X123361392Y-63146261D01*
X109925000Y-63146261D01*
X109925000Y-58753772D01*
X112500000Y-58753772D01*
X112500000Y-59246228D01*
X112596074Y-59729223D01*
X112784529Y-60184194D01*
X113058124Y-60593657D01*
X113406343Y-60941876D01*
X113815806Y-61215471D01*
X114270777Y-61403926D01*
X114753772Y-61500000D01*
X115246228Y-61500000D01*
X115729223Y-61403926D01*
X116184194Y-61215471D01*
X116593657Y-60941876D01*
X116941876Y-60593657D01*
X117215471Y-60184194D01*
X117403926Y-59729223D01*
X117500000Y-59246228D01*
X117500000Y-58758062D01*
X122990378Y-58758062D01*
X123084569Y-59038275D01*
X123231617Y-59294728D01*
X123425871Y-59517566D01*
X123659866Y-59698225D01*
X123924610Y-59829763D01*
X124121939Y-59889619D01*
X124356000Y-59759469D01*
X124356000Y-58524000D01*
X123120087Y-58524000D01*
X122990378Y-58758062D01*
X117500000Y-58758062D01*
X117500000Y-58753772D01*
X117403926Y-58270777D01*
X117325707Y-58081938D01*
X122990378Y-58081938D01*
X123120087Y-58316000D01*
X124356000Y-58316000D01*
X124356000Y-57080531D01*
X124564000Y-57080531D01*
X124564000Y-58316000D01*
X124584000Y-58316000D01*
X124584000Y-58524000D01*
X124564000Y-58524000D01*
X124564000Y-59759469D01*
X124798061Y-59889619D01*
X124995390Y-59829763D01*
X125260134Y-59698225D01*
X125329689Y-59644524D01*
X125398057Y-59772432D01*
X125510525Y-59909475D01*
X125647568Y-60021943D01*
X125803919Y-60105514D01*
X125973569Y-60156977D01*
X126150000Y-60174354D01*
X127850000Y-60174354D01*
X128026431Y-60156977D01*
X128196081Y-60105514D01*
X128352432Y-60021943D01*
X128489475Y-59909475D01*
X128601943Y-59772432D01*
X128685514Y-59616081D01*
X128736977Y-59446431D01*
X128754354Y-59270000D01*
X128754354Y-57570000D01*
X128736977Y-57393569D01*
X128685514Y-57223919D01*
X128601943Y-57067568D01*
X128489475Y-56930525D01*
X128352432Y-56818057D01*
X128196081Y-56734486D01*
X128026431Y-56683023D01*
X127850000Y-56665646D01*
X126150000Y-56665646D01*
X125973569Y-56683023D01*
X125803919Y-56734486D01*
X125647568Y-56818057D01*
X125510525Y-56930525D01*
X125398057Y-57067568D01*
X125329689Y-57195476D01*
X125260134Y-57141775D01*
X124995390Y-57010237D01*
X124798061Y-56950381D01*
X124564000Y-57080531D01*
X124356000Y-57080531D01*
X124121939Y-56950381D01*
X123924610Y-57010237D01*
X123659866Y-57141775D01*
X123425871Y-57322434D01*
X123231617Y-57545272D01*
X123084569Y-57801725D01*
X122990378Y-58081938D01*
X117325707Y-58081938D01*
X117215471Y-57815806D01*
X116941876Y-57406343D01*
X116593657Y-57058124D01*
X116184194Y-56784529D01*
X115729223Y-56596074D01*
X115246228Y-56500000D01*
X114753772Y-56500000D01*
X114270777Y-56596074D01*
X113815806Y-56784529D01*
X113406343Y-57058124D01*
X113058124Y-57406343D01*
X112784529Y-57815806D01*
X112596074Y-58270777D01*
X112500000Y-58753772D01*
X109925000Y-58753772D01*
X109925000Y-57045236D01*
X109987914Y-56403591D01*
X110161122Y-55829898D01*
X110442462Y-55300776D01*
X110821218Y-54836375D01*
X111282961Y-54454388D01*
X111810108Y-54169360D01*
X112382577Y-53992152D01*
X113021479Y-53925000D01*
X191954764Y-53925000D01*
X192596409Y-53987914D01*
G36*
X155743023Y-124216431D02*
G01*
X155794486Y-124386081D01*
X155878057Y-124542432D01*
X155990525Y-124679475D01*
X156127568Y-124791943D01*
X156283919Y-124875514D01*
X156453569Y-124926977D01*
X156630000Y-124944354D01*
X158330000Y-124944354D01*
X158506431Y-124926977D01*
X158676081Y-124875514D01*
X158832432Y-124791943D01*
X158969475Y-124679475D01*
X159012503Y-124627045D01*
X159043048Y-124652112D01*
X159347064Y-124814612D01*
X159676940Y-124914679D01*
X159934032Y-124940000D01*
X160105968Y-124940000D01*
X160363060Y-124914679D01*
X160692936Y-124814612D01*
X160996952Y-124652112D01*
X161263424Y-124433424D01*
X161290000Y-124401041D01*
X161316576Y-124433424D01*
X161535001Y-124612681D01*
X161535000Y-128477331D01*
X161380898Y-128631433D01*
X161152726Y-128554353D01*
X160167078Y-129540000D01*
X160181221Y-129554143D01*
X160034143Y-129701221D01*
X160020000Y-129687078D01*
X159034353Y-130672726D01*
X159111434Y-130900899D01*
X158650533Y-131361800D01*
X152898051Y-131361800D01*
X152847700Y-131356841D01*
X152646765Y-131376631D01*
X152453551Y-131435242D01*
X152275485Y-131530420D01*
X152119409Y-131658509D01*
X152087312Y-131697619D01*
X149116055Y-134668877D01*
X149146984Y-134594209D01*
X149220000Y-134227134D01*
X149220000Y-133852866D01*
X149146984Y-133485791D01*
X149003758Y-133140013D01*
X148795826Y-132828821D01*
X148531179Y-132564174D01*
X148219987Y-132356242D01*
X147874209Y-132213016D01*
X147507134Y-132140000D01*
X147132866Y-132140000D01*
X146765791Y-132213016D01*
X146420013Y-132356242D01*
X146108821Y-132564174D01*
X145844174Y-132828821D01*
X145636242Y-133140013D01*
X145493016Y-133485791D01*
X145420000Y-133852866D01*
X145420000Y-134227134D01*
X145493016Y-134594209D01*
X145612430Y-134882500D01*
X143611168Y-134882500D01*
X146372781Y-132120888D01*
X146411891Y-132088791D01*
X146539980Y-131932715D01*
X146635158Y-131754648D01*
X146693769Y-131561435D01*
X146708600Y-131410851D01*
X146708600Y-131410844D01*
X146713558Y-131360501D01*
X146708600Y-131310158D01*
X146708600Y-131088672D01*
X146718311Y-131093577D01*
X147032960Y-131181109D01*
X147358640Y-131205574D01*
X147682835Y-131166032D01*
X147993086Y-131064002D01*
X148213215Y-130946341D01*
X148305647Y-130672726D01*
X152834353Y-130672726D01*
X152926785Y-130946341D01*
X153218311Y-131093577D01*
X153532960Y-131181109D01*
X153858640Y-131205574D01*
X154182835Y-131166032D01*
X154493086Y-131064002D01*
X154713215Y-130946341D01*
X154805647Y-130672726D01*
X153820000Y-129687078D01*
X152834353Y-130672726D01*
X148305647Y-130672726D01*
X147320000Y-129687078D01*
X147305858Y-129701221D01*
X147158780Y-129554143D01*
X147172922Y-129540000D01*
X147467078Y-129540000D01*
X148452726Y-130525647D01*
X148726341Y-130433215D01*
X148873577Y-130141689D01*
X148961109Y-129827040D01*
X148979768Y-129578640D01*
X152154426Y-129578640D01*
X152193968Y-129902835D01*
X152295998Y-130213086D01*
X152413659Y-130433215D01*
X152687274Y-130525647D01*
X153672922Y-129540000D01*
X153967078Y-129540000D01*
X154952726Y-130525647D01*
X155226341Y-130433215D01*
X155373577Y-130141689D01*
X155461109Y-129827040D01*
X155479768Y-129578640D01*
X158354426Y-129578640D01*
X158393968Y-129902835D01*
X158495998Y-130213086D01*
X158613659Y-130433215D01*
X158887274Y-130525647D01*
X159872922Y-129540000D01*
X158887274Y-128554353D01*
X158613659Y-128646785D01*
X158466423Y-128938311D01*
X158378891Y-129252960D01*
X158354426Y-129578640D01*
X155479768Y-129578640D01*
X155485574Y-129501360D01*
X155446032Y-129177165D01*
X155344002Y-128866914D01*
X155226341Y-128646785D01*
X154952726Y-128554353D01*
X153967078Y-129540000D01*
X153672922Y-129540000D01*
X152687274Y-128554353D01*
X152413659Y-128646785D01*
X152266423Y-128938311D01*
X152178891Y-129252960D01*
X152154426Y-129578640D01*
X148979768Y-129578640D01*
X148985574Y-129501360D01*
X148946032Y-129177165D01*
X148844002Y-128866914D01*
X148726341Y-128646785D01*
X148452726Y-128554353D01*
X147467078Y-129540000D01*
X147172922Y-129540000D01*
X147158780Y-129525858D01*
X147305858Y-129378780D01*
X147320000Y-129392922D01*
X148305647Y-128407274D01*
X152834353Y-128407274D01*
X153820000Y-129392922D01*
X154805647Y-128407274D01*
X159034353Y-128407274D01*
X160020000Y-129392922D01*
X161005647Y-128407274D01*
X160913215Y-128133659D01*
X160621689Y-127986423D01*
X160307040Y-127898891D01*
X159981360Y-127874426D01*
X159657165Y-127913968D01*
X159346914Y-128015998D01*
X159126785Y-128133659D01*
X159034353Y-128407274D01*
X154805647Y-128407274D01*
X154713215Y-128133659D01*
X154421689Y-127986423D01*
X154107040Y-127898891D01*
X153781360Y-127874426D01*
X153457165Y-127913968D01*
X153146914Y-128015998D01*
X152926785Y-128133659D01*
X152834353Y-128407274D01*
X148305647Y-128407274D01*
X148233768Y-128194500D01*
X152213269Y-124215000D01*
X155742882Y-124215000D01*
X155743023Y-124216431D01*
X155743023Y-124216431D01*
G37*
X155743023Y-124216431D02*
X155794486Y-124386081D01*
X155878057Y-124542432D01*
X155990525Y-124679475D01*
X156127568Y-124791943D01*
X156283919Y-124875514D01*
X156453569Y-124926977D01*
X156630000Y-124944354D01*
X158330000Y-124944354D01*
X158506431Y-124926977D01*
X158676081Y-124875514D01*
X158832432Y-124791943D01*
X158969475Y-124679475D01*
X159012503Y-124627045D01*
X159043048Y-124652112D01*
X159347064Y-124814612D01*
X159676940Y-124914679D01*
X159934032Y-124940000D01*
X160105968Y-124940000D01*
X160363060Y-124914679D01*
X160692936Y-124814612D01*
X160996952Y-124652112D01*
X161263424Y-124433424D01*
X161290000Y-124401041D01*
X161316576Y-124433424D01*
X161535001Y-124612681D01*
X161535000Y-128477331D01*
X161380898Y-128631433D01*
X161152726Y-128554353D01*
X160167078Y-129540000D01*
X160181221Y-129554143D01*
X160034143Y-129701221D01*
X160020000Y-129687078D01*
X159034353Y-130672726D01*
X159111434Y-130900899D01*
X158650533Y-131361800D01*
X152898051Y-131361800D01*
X152847700Y-131356841D01*
X152646765Y-131376631D01*
X152453551Y-131435242D01*
X152275485Y-131530420D01*
X152119409Y-131658509D01*
X152087312Y-131697619D01*
X149116055Y-134668877D01*
X149146984Y-134594209D01*
X149220000Y-134227134D01*
X149220000Y-133852866D01*
X149146984Y-133485791D01*
X149003758Y-133140013D01*
X148795826Y-132828821D01*
X148531179Y-132564174D01*
X148219987Y-132356242D01*
X147874209Y-132213016D01*
X147507134Y-132140000D01*
X147132866Y-132140000D01*
X146765791Y-132213016D01*
X146420013Y-132356242D01*
X146108821Y-132564174D01*
X145844174Y-132828821D01*
X145636242Y-133140013D01*
X145493016Y-133485791D01*
X145420000Y-133852866D01*
X145420000Y-134227134D01*
X145493016Y-134594209D01*
X145612430Y-134882500D01*
X143611168Y-134882500D01*
X146372781Y-132120888D01*
X146411891Y-132088791D01*
X146539980Y-131932715D01*
X146635158Y-131754648D01*
X146693769Y-131561435D01*
X146708600Y-131410851D01*
X146708600Y-131410844D01*
X146713558Y-131360501D01*
X146708600Y-131310158D01*
X146708600Y-131088672D01*
X146718311Y-131093577D01*
X147032960Y-131181109D01*
X147358640Y-131205574D01*
X147682835Y-131166032D01*
X147993086Y-131064002D01*
X148213215Y-130946341D01*
X148305647Y-130672726D01*
X152834353Y-130672726D01*
X152926785Y-130946341D01*
X153218311Y-131093577D01*
X153532960Y-131181109D01*
X153858640Y-131205574D01*
X154182835Y-131166032D01*
X154493086Y-131064002D01*
X154713215Y-130946341D01*
X154805647Y-130672726D01*
X153820000Y-129687078D01*
X152834353Y-130672726D01*
X148305647Y-130672726D01*
X147320000Y-129687078D01*
X147305858Y-129701221D01*
X147158780Y-129554143D01*
X147172922Y-129540000D01*
X147467078Y-129540000D01*
X148452726Y-130525647D01*
X148726341Y-130433215D01*
X148873577Y-130141689D01*
X148961109Y-129827040D01*
X148979768Y-129578640D01*
X152154426Y-129578640D01*
X152193968Y-129902835D01*
X152295998Y-130213086D01*
X152413659Y-130433215D01*
X152687274Y-130525647D01*
X153672922Y-129540000D01*
X153967078Y-129540000D01*
X154952726Y-130525647D01*
X155226341Y-130433215D01*
X155373577Y-130141689D01*
X155461109Y-129827040D01*
X155479768Y-129578640D01*
X158354426Y-129578640D01*
X158393968Y-129902835D01*
X158495998Y-130213086D01*
X158613659Y-130433215D01*
X158887274Y-130525647D01*
X159872922Y-129540000D01*
X158887274Y-128554353D01*
X158613659Y-128646785D01*
X158466423Y-128938311D01*
X158378891Y-129252960D01*
X158354426Y-129578640D01*
X155479768Y-129578640D01*
X155485574Y-129501360D01*
X155446032Y-129177165D01*
X155344002Y-128866914D01*
X155226341Y-128646785D01*
X154952726Y-128554353D01*
X153967078Y-129540000D01*
X153672922Y-129540000D01*
X152687274Y-128554353D01*
X152413659Y-128646785D01*
X152266423Y-128938311D01*
X152178891Y-129252960D01*
X152154426Y-129578640D01*
X148979768Y-129578640D01*
X148985574Y-129501360D01*
X148946032Y-129177165D01*
X148844002Y-128866914D01*
X148726341Y-128646785D01*
X148452726Y-128554353D01*
X147467078Y-129540000D01*
X147172922Y-129540000D01*
X147158780Y-129525858D01*
X147305858Y-129378780D01*
X147320000Y-129392922D01*
X148305647Y-128407274D01*
X152834353Y-128407274D01*
X153820000Y-129392922D01*
X154805647Y-128407274D01*
X159034353Y-128407274D01*
X160020000Y-129392922D01*
X161005647Y-128407274D01*
X160913215Y-128133659D01*
X160621689Y-127986423D01*
X160307040Y-127898891D01*
X159981360Y-127874426D01*
X159657165Y-127913968D01*
X159346914Y-128015998D01*
X159126785Y-128133659D01*
X159034353Y-128407274D01*
X154805647Y-128407274D01*
X154713215Y-128133659D01*
X154421689Y-127986423D01*
X154107040Y-127898891D01*
X153781360Y-127874426D01*
X153457165Y-127913968D01*
X153146914Y-128015998D01*
X152926785Y-128133659D01*
X152834353Y-128407274D01*
X148305647Y-128407274D01*
X148233768Y-128194500D01*
X152213269Y-124215000D01*
X155742882Y-124215000D01*
X155743023Y-124216431D01*
G36*
X168936576Y-124433424D02*
G01*
X169203048Y-124652112D01*
X169507064Y-124814612D01*
X169836940Y-124914679D01*
X170094032Y-124940000D01*
X170265968Y-124940000D01*
X170523060Y-124914679D01*
X170852936Y-124814612D01*
X171088065Y-124688933D01*
X171453712Y-125054581D01*
X171485809Y-125093691D01*
X171524918Y-125125787D01*
X171524919Y-125125788D01*
X171641885Y-125221780D01*
X171819951Y-125316958D01*
X172013165Y-125375569D01*
X172214100Y-125395359D01*
X172264451Y-125390400D01*
X173531180Y-125390400D01*
X173525912Y-125396819D01*
X166770190Y-132152543D01*
X166707134Y-132140000D01*
X166332866Y-132140000D01*
X165965791Y-132213016D01*
X165620013Y-132356242D01*
X165308821Y-132564174D01*
X165044174Y-132828821D01*
X164919773Y-133015000D01*
X161620227Y-133015000D01*
X161495826Y-132828821D01*
X161231179Y-132564174D01*
X161083122Y-132465245D01*
X162875641Y-130672726D01*
X165534353Y-130672726D01*
X165626785Y-130946341D01*
X165918311Y-131093577D01*
X166232960Y-131181109D01*
X166558640Y-131205574D01*
X166882835Y-131166032D01*
X167193086Y-131064002D01*
X167413215Y-130946341D01*
X167505647Y-130672726D01*
X166520000Y-129687078D01*
X165534353Y-130672726D01*
X162875641Y-130672726D01*
X163969727Y-129578640D01*
X164854426Y-129578640D01*
X164893968Y-129902835D01*
X164995998Y-130213086D01*
X165113659Y-130433215D01*
X165387274Y-130525647D01*
X166372922Y-129540000D01*
X166667078Y-129540000D01*
X167652726Y-130525647D01*
X167926341Y-130433215D01*
X168073577Y-130141689D01*
X168161109Y-129827040D01*
X168185574Y-129501360D01*
X168146032Y-129177165D01*
X168044002Y-128866914D01*
X167926341Y-128646785D01*
X167652726Y-128554353D01*
X166667078Y-129540000D01*
X166372922Y-129540000D01*
X165387274Y-128554353D01*
X165113659Y-128646785D01*
X164966423Y-128938311D01*
X164878891Y-129252960D01*
X164854426Y-129578640D01*
X163969727Y-129578640D01*
X165141093Y-128407274D01*
X165534353Y-128407274D01*
X166520000Y-129392922D01*
X167505647Y-128407274D01*
X167413215Y-128133659D01*
X167121689Y-127986423D01*
X166807040Y-127898891D01*
X166481360Y-127874426D01*
X166157165Y-127913968D01*
X165846914Y-128015998D01*
X165626785Y-128133659D01*
X165534353Y-128407274D01*
X165141093Y-128407274D01*
X167153781Y-126394588D01*
X167192891Y-126362491D01*
X167320980Y-126206415D01*
X167416158Y-126028348D01*
X167474769Y-125835135D01*
X167489600Y-125684551D01*
X167489600Y-125684541D01*
X167494558Y-125634201D01*
X167489600Y-125583861D01*
X167489600Y-124933654D01*
X167554032Y-124940000D01*
X167725968Y-124940000D01*
X167983060Y-124914679D01*
X168312936Y-124814612D01*
X168616952Y-124652112D01*
X168883424Y-124433424D01*
X168910000Y-124401041D01*
X168936576Y-124433424D01*
X168936576Y-124433424D01*
G37*
X168936576Y-124433424D02*
X169203048Y-124652112D01*
X169507064Y-124814612D01*
X169836940Y-124914679D01*
X170094032Y-124940000D01*
X170265968Y-124940000D01*
X170523060Y-124914679D01*
X170852936Y-124814612D01*
X171088065Y-124688933D01*
X171453712Y-125054581D01*
X171485809Y-125093691D01*
X171524918Y-125125787D01*
X171524919Y-125125788D01*
X171641885Y-125221780D01*
X171819951Y-125316958D01*
X172013165Y-125375569D01*
X172214100Y-125395359D01*
X172264451Y-125390400D01*
X173531180Y-125390400D01*
X173525912Y-125396819D01*
X166770190Y-132152543D01*
X166707134Y-132140000D01*
X166332866Y-132140000D01*
X165965791Y-132213016D01*
X165620013Y-132356242D01*
X165308821Y-132564174D01*
X165044174Y-132828821D01*
X164919773Y-133015000D01*
X161620227Y-133015000D01*
X161495826Y-132828821D01*
X161231179Y-132564174D01*
X161083122Y-132465245D01*
X162875641Y-130672726D01*
X165534353Y-130672726D01*
X165626785Y-130946341D01*
X165918311Y-131093577D01*
X166232960Y-131181109D01*
X166558640Y-131205574D01*
X166882835Y-131166032D01*
X167193086Y-131064002D01*
X167413215Y-130946341D01*
X167505647Y-130672726D01*
X166520000Y-129687078D01*
X165534353Y-130672726D01*
X162875641Y-130672726D01*
X163969727Y-129578640D01*
X164854426Y-129578640D01*
X164893968Y-129902835D01*
X164995998Y-130213086D01*
X165113659Y-130433215D01*
X165387274Y-130525647D01*
X166372922Y-129540000D01*
X166667078Y-129540000D01*
X167652726Y-130525647D01*
X167926341Y-130433215D01*
X168073577Y-130141689D01*
X168161109Y-129827040D01*
X168185574Y-129501360D01*
X168146032Y-129177165D01*
X168044002Y-128866914D01*
X167926341Y-128646785D01*
X167652726Y-128554353D01*
X166667078Y-129540000D01*
X166372922Y-129540000D01*
X165387274Y-128554353D01*
X165113659Y-128646785D01*
X164966423Y-128938311D01*
X164878891Y-129252960D01*
X164854426Y-129578640D01*
X163969727Y-129578640D01*
X165141093Y-128407274D01*
X165534353Y-128407274D01*
X166520000Y-129392922D01*
X167505647Y-128407274D01*
X167413215Y-128133659D01*
X167121689Y-127986423D01*
X166807040Y-127898891D01*
X166481360Y-127874426D01*
X166157165Y-127913968D01*
X165846914Y-128015998D01*
X165626785Y-128133659D01*
X165534353Y-128407274D01*
X165141093Y-128407274D01*
X167153781Y-126394588D01*
X167192891Y-126362491D01*
X167320980Y-126206415D01*
X167416158Y-126028348D01*
X167474769Y-125835135D01*
X167489600Y-125684551D01*
X167489600Y-125684541D01*
X167494558Y-125634201D01*
X167489600Y-125583861D01*
X167489600Y-124933654D01*
X167554032Y-124940000D01*
X167725968Y-124940000D01*
X167983060Y-124914679D01*
X168312936Y-124814612D01*
X168616952Y-124652112D01*
X168883424Y-124433424D01*
X168910000Y-124401041D01*
X168936576Y-124433424D01*
G36*
X144495800Y-115576037D02*
G01*
X144450531Y-115725266D01*
X144430741Y-115926200D01*
X144435701Y-115976560D01*
X144435700Y-117483949D01*
X144430741Y-117534300D01*
X144435700Y-117584650D01*
X144450531Y-117735234D01*
X144497500Y-117890069D01*
X144497500Y-117999139D01*
X144547458Y-118250296D01*
X144645455Y-118486881D01*
X144787724Y-118699802D01*
X144968798Y-118880876D01*
X145181719Y-119023145D01*
X145418304Y-119121142D01*
X145669461Y-119171100D01*
X145925539Y-119171100D01*
X146176696Y-119121142D01*
X146413281Y-119023145D01*
X146533100Y-118943084D01*
X146533101Y-125981630D01*
X144093729Y-128421003D01*
X144054609Y-128453109D01*
X143926520Y-128609185D01*
X143831342Y-128787253D01*
X143807177Y-128866914D01*
X143772731Y-128980466D01*
X143752941Y-129181400D01*
X143757900Y-129231751D01*
X143757901Y-129952531D01*
X141526748Y-132183684D01*
X141307134Y-132140000D01*
X140932866Y-132140000D01*
X140771800Y-132172038D01*
X140771800Y-131164095D01*
X140832960Y-131181109D01*
X141158640Y-131205574D01*
X141482835Y-131166032D01*
X141793086Y-131064002D01*
X142013215Y-130946341D01*
X142105647Y-130672726D01*
X141120000Y-129687078D01*
X141105858Y-129701221D01*
X140958780Y-129554143D01*
X140972922Y-129540000D01*
X141267078Y-129540000D01*
X142252726Y-130525647D01*
X142526341Y-130433215D01*
X142673577Y-130141689D01*
X142761109Y-129827040D01*
X142785574Y-129501360D01*
X142746032Y-129177165D01*
X142644002Y-128866914D01*
X142526341Y-128646785D01*
X142252726Y-128554353D01*
X141267078Y-129540000D01*
X140972922Y-129540000D01*
X140958780Y-129525858D01*
X141105858Y-129378780D01*
X141120000Y-129392922D01*
X142105647Y-128407274D01*
X142013215Y-128133659D01*
X141721689Y-127986423D01*
X141407040Y-127898891D01*
X141081360Y-127874426D01*
X140771800Y-127912183D01*
X140771800Y-100065667D01*
X144495801Y-96341668D01*
X144495800Y-115576037D01*
X144495800Y-115576037D01*
G37*
X144495800Y-115576037D02*
X144450531Y-115725266D01*
X144430741Y-115926200D01*
X144435701Y-115976560D01*
X144435700Y-117483949D01*
X144430741Y-117534300D01*
X144435700Y-117584650D01*
X144450531Y-117735234D01*
X144497500Y-117890069D01*
X144497500Y-117999139D01*
X144547458Y-118250296D01*
X144645455Y-118486881D01*
X144787724Y-118699802D01*
X144968798Y-118880876D01*
X145181719Y-119023145D01*
X145418304Y-119121142D01*
X145669461Y-119171100D01*
X145925539Y-119171100D01*
X146176696Y-119121142D01*
X146413281Y-119023145D01*
X146533100Y-118943084D01*
X146533101Y-125981630D01*
X144093729Y-128421003D01*
X144054609Y-128453109D01*
X143926520Y-128609185D01*
X143831342Y-128787253D01*
X143807177Y-128866914D01*
X143772731Y-128980466D01*
X143752941Y-129181400D01*
X143757900Y-129231751D01*
X143757901Y-129952531D01*
X141526748Y-132183684D01*
X141307134Y-132140000D01*
X140932866Y-132140000D01*
X140771800Y-132172038D01*
X140771800Y-131164095D01*
X140832960Y-131181109D01*
X141158640Y-131205574D01*
X141482835Y-131166032D01*
X141793086Y-131064002D01*
X142013215Y-130946341D01*
X142105647Y-130672726D01*
X141120000Y-129687078D01*
X141105858Y-129701221D01*
X140958780Y-129554143D01*
X140972922Y-129540000D01*
X141267078Y-129540000D01*
X142252726Y-130525647D01*
X142526341Y-130433215D01*
X142673577Y-130141689D01*
X142761109Y-129827040D01*
X142785574Y-129501360D01*
X142746032Y-129177165D01*
X142644002Y-128866914D01*
X142526341Y-128646785D01*
X142252726Y-128554353D01*
X141267078Y-129540000D01*
X140972922Y-129540000D01*
X140958780Y-129525858D01*
X141105858Y-129378780D01*
X141120000Y-129392922D01*
X142105647Y-128407274D01*
X142013215Y-128133659D01*
X141721689Y-127986423D01*
X141407040Y-127898891D01*
X141081360Y-127874426D01*
X140771800Y-127912183D01*
X140771800Y-100065667D01*
X144495801Y-96341668D01*
X144495800Y-115576037D01*
G36*
X157580400Y-114866049D02*
G01*
X157575441Y-114916400D01*
X157580400Y-114966750D01*
X157584000Y-115003302D01*
X157584000Y-115993500D01*
X157748500Y-116158000D01*
X158280000Y-116161184D01*
X158389803Y-116150370D01*
X161497515Y-119258083D01*
X161316576Y-119406576D01*
X161290000Y-119438959D01*
X161263424Y-119406576D01*
X160996952Y-119187888D01*
X160692936Y-119025388D01*
X160363060Y-118925321D01*
X160105968Y-118900000D01*
X159934032Y-118900000D01*
X159676940Y-118925321D01*
X159347064Y-119025388D01*
X159043048Y-119187888D01*
X158776576Y-119406576D01*
X158750000Y-119438959D01*
X158723424Y-119406576D01*
X158456952Y-119187888D01*
X158152936Y-119025388D01*
X157823060Y-118925321D01*
X157565968Y-118900000D01*
X157394032Y-118900000D01*
X157136940Y-118925321D01*
X156807064Y-119025388D01*
X156503048Y-119187888D01*
X156236576Y-119406576D01*
X156017888Y-119673048D01*
X155855388Y-119977064D01*
X155755321Y-120306940D01*
X155721533Y-120650000D01*
X155755321Y-120993060D01*
X155855388Y-121322936D01*
X156017888Y-121626952D01*
X156042955Y-121657497D01*
X155990525Y-121700525D01*
X155878057Y-121837568D01*
X155794486Y-121993919D01*
X155743023Y-122163569D01*
X155742882Y-122165000D01*
X154860678Y-122165000D01*
X154978076Y-122047602D01*
X155120345Y-121834681D01*
X155218342Y-121598096D01*
X155268300Y-121346939D01*
X155268300Y-121090861D01*
X155218342Y-120839704D01*
X155120345Y-120603119D01*
X154993300Y-120412982D01*
X154993300Y-119737451D01*
X154998259Y-119687100D01*
X154978469Y-119486165D01*
X154919858Y-119292951D01*
X154824680Y-119114885D01*
X154728688Y-118997919D01*
X154696591Y-118958809D01*
X154657481Y-118926712D01*
X153143896Y-117413129D01*
X153111791Y-117374009D01*
X153090188Y-117356280D01*
X156042467Y-114404002D01*
X156186498Y-114404002D01*
X156022000Y-114568500D01*
X156018816Y-115500000D01*
X156031520Y-115628991D01*
X156069146Y-115753024D01*
X156130246Y-115867334D01*
X156212472Y-115967528D01*
X156312666Y-116049754D01*
X156426976Y-116110854D01*
X156551009Y-116148480D01*
X156680000Y-116161184D01*
X157211500Y-116158000D01*
X157376000Y-115993500D01*
X157376000Y-114404000D01*
X157356000Y-114404000D01*
X157356000Y-114196000D01*
X157376000Y-114196000D01*
X157376000Y-114176000D01*
X157580401Y-114176000D01*
X157580400Y-114866049D01*
X157580400Y-114866049D01*
G37*
X157580400Y-114866049D02*
X157575441Y-114916400D01*
X157580400Y-114966750D01*
X157584000Y-115003302D01*
X157584000Y-115993500D01*
X157748500Y-116158000D01*
X158280000Y-116161184D01*
X158389803Y-116150370D01*
X161497515Y-119258083D01*
X161316576Y-119406576D01*
X161290000Y-119438959D01*
X161263424Y-119406576D01*
X160996952Y-119187888D01*
X160692936Y-119025388D01*
X160363060Y-118925321D01*
X160105968Y-118900000D01*
X159934032Y-118900000D01*
X159676940Y-118925321D01*
X159347064Y-119025388D01*
X159043048Y-119187888D01*
X158776576Y-119406576D01*
X158750000Y-119438959D01*
X158723424Y-119406576D01*
X158456952Y-119187888D01*
X158152936Y-119025388D01*
X157823060Y-118925321D01*
X157565968Y-118900000D01*
X157394032Y-118900000D01*
X157136940Y-118925321D01*
X156807064Y-119025388D01*
X156503048Y-119187888D01*
X156236576Y-119406576D01*
X156017888Y-119673048D01*
X155855388Y-119977064D01*
X155755321Y-120306940D01*
X155721533Y-120650000D01*
X155755321Y-120993060D01*
X155855388Y-121322936D01*
X156017888Y-121626952D01*
X156042955Y-121657497D01*
X155990525Y-121700525D01*
X155878057Y-121837568D01*
X155794486Y-121993919D01*
X155743023Y-122163569D01*
X155742882Y-122165000D01*
X154860678Y-122165000D01*
X154978076Y-122047602D01*
X155120345Y-121834681D01*
X155218342Y-121598096D01*
X155268300Y-121346939D01*
X155268300Y-121090861D01*
X155218342Y-120839704D01*
X155120345Y-120603119D01*
X154993300Y-120412982D01*
X154993300Y-119737451D01*
X154998259Y-119687100D01*
X154978469Y-119486165D01*
X154919858Y-119292951D01*
X154824680Y-119114885D01*
X154728688Y-118997919D01*
X154696591Y-118958809D01*
X154657481Y-118926712D01*
X153143896Y-117413129D01*
X153111791Y-117374009D01*
X153090188Y-117356280D01*
X156042467Y-114404002D01*
X156186498Y-114404002D01*
X156022000Y-114568500D01*
X156018816Y-115500000D01*
X156031520Y-115628991D01*
X156069146Y-115753024D01*
X156130246Y-115867334D01*
X156212472Y-115967528D01*
X156312666Y-116049754D01*
X156426976Y-116110854D01*
X156551009Y-116148480D01*
X156680000Y-116161184D01*
X157211500Y-116158000D01*
X157376000Y-115993500D01*
X157376000Y-114404000D01*
X157356000Y-114404000D01*
X157356000Y-114196000D01*
X157376000Y-114196000D01*
X157376000Y-114176000D01*
X157580401Y-114176000D01*
X157580400Y-114866049D01*
G36*
X181984773Y-104316854D02*
G01*
X181731606Y-104385173D01*
X181604336Y-104642635D01*
X181529740Y-104919980D01*
X181510685Y-105206547D01*
X181547902Y-105491327D01*
X181639962Y-105763374D01*
X181731606Y-105934827D01*
X181984775Y-106003147D01*
X182827922Y-105160000D01*
X182813780Y-105145858D01*
X182960858Y-104998780D01*
X182975000Y-105012922D01*
X182989143Y-104998780D01*
X183136221Y-105145858D01*
X183122078Y-105160000D01*
X183136221Y-105174143D01*
X182989143Y-105321221D01*
X182975000Y-105307078D01*
X182131853Y-106150225D01*
X182200173Y-106403394D01*
X182457635Y-106530664D01*
X182734980Y-106605260D01*
X183021547Y-106624315D01*
X183306327Y-106587098D01*
X183322000Y-106581794D01*
X183322000Y-107921514D01*
X183215020Y-107892740D01*
X182928453Y-107873685D01*
X182643673Y-107910902D01*
X182371626Y-108002962D01*
X182200173Y-108094606D01*
X182131853Y-108347775D01*
X182975000Y-109190922D01*
X182989143Y-109176780D01*
X183136221Y-109323858D01*
X183122078Y-109338000D01*
X183136221Y-109352143D01*
X182989143Y-109499221D01*
X182975000Y-109485078D01*
X182131853Y-110328225D01*
X182200173Y-110581394D01*
X182457635Y-110708664D01*
X182734980Y-110783260D01*
X183021547Y-110802315D01*
X183306327Y-110765098D01*
X183322001Y-110759794D01*
X183322001Y-112098514D01*
X183215020Y-112069740D01*
X182928453Y-112050685D01*
X182643673Y-112087902D01*
X182371626Y-112179962D01*
X182200173Y-112271606D01*
X182131853Y-112524775D01*
X182975000Y-113367922D01*
X182989143Y-113353780D01*
X183136221Y-113500858D01*
X183122078Y-113515000D01*
X183136221Y-113529143D01*
X182989143Y-113676221D01*
X182975000Y-113662078D01*
X182131853Y-114505225D01*
X182200173Y-114758394D01*
X182457635Y-114885664D01*
X182734980Y-114960260D01*
X183021547Y-114979315D01*
X183306327Y-114942098D01*
X183322001Y-114936794D01*
X183322001Y-115411530D01*
X176631228Y-122102305D01*
X176503424Y-121946576D01*
X176471041Y-121920000D01*
X176503424Y-121893424D01*
X176722112Y-121626952D01*
X176884612Y-121322936D01*
X176984679Y-120993060D01*
X177018467Y-120650000D01*
X176984679Y-120306940D01*
X176884612Y-119977064D01*
X176722112Y-119673048D01*
X176503424Y-119406576D01*
X176255916Y-119203452D01*
X179150981Y-116308388D01*
X179190091Y-116276291D01*
X179318180Y-116120215D01*
X179413358Y-115942148D01*
X179470367Y-115754216D01*
X179471969Y-115748936D01*
X179479176Y-115675757D01*
X179486800Y-115598351D01*
X179486800Y-115598344D01*
X179491758Y-115548001D01*
X179486800Y-115497658D01*
X179486800Y-113561547D01*
X181510685Y-113561547D01*
X181547902Y-113846327D01*
X181639962Y-114118374D01*
X181731606Y-114289827D01*
X181984775Y-114358147D01*
X182827922Y-113515000D01*
X181984775Y-112671853D01*
X181731606Y-112740173D01*
X181604336Y-112997635D01*
X181529740Y-113274980D01*
X181510685Y-113561547D01*
X179486800Y-113561547D01*
X179486800Y-109384547D01*
X181510685Y-109384547D01*
X181547902Y-109669327D01*
X181639962Y-109941374D01*
X181731606Y-110112827D01*
X181984775Y-110181147D01*
X182827922Y-109338000D01*
X181984775Y-108494853D01*
X181731606Y-108563173D01*
X181604336Y-108820635D01*
X181529740Y-109097980D01*
X181510685Y-109384547D01*
X179486800Y-109384547D01*
X179486800Y-108369918D01*
X179613845Y-108179781D01*
X179711842Y-107943196D01*
X179761800Y-107692039D01*
X179761800Y-107435961D01*
X179711842Y-107184804D01*
X179613845Y-106948219D01*
X179471576Y-106735298D01*
X179415873Y-106679595D01*
X181881694Y-104213775D01*
X181984773Y-104316854D01*
X181984773Y-104316854D01*
G37*
X181984773Y-104316854D02*
X181731606Y-104385173D01*
X181604336Y-104642635D01*
X181529740Y-104919980D01*
X181510685Y-105206547D01*
X181547902Y-105491327D01*
X181639962Y-105763374D01*
X181731606Y-105934827D01*
X181984775Y-106003147D01*
X182827922Y-105160000D01*
X182813780Y-105145858D01*
X182960858Y-104998780D01*
X182975000Y-105012922D01*
X182989143Y-104998780D01*
X183136221Y-105145858D01*
X183122078Y-105160000D01*
X183136221Y-105174143D01*
X182989143Y-105321221D01*
X182975000Y-105307078D01*
X182131853Y-106150225D01*
X182200173Y-106403394D01*
X182457635Y-106530664D01*
X182734980Y-106605260D01*
X183021547Y-106624315D01*
X183306327Y-106587098D01*
X183322000Y-106581794D01*
X183322000Y-107921514D01*
X183215020Y-107892740D01*
X182928453Y-107873685D01*
X182643673Y-107910902D01*
X182371626Y-108002962D01*
X182200173Y-108094606D01*
X182131853Y-108347775D01*
X182975000Y-109190922D01*
X182989143Y-109176780D01*
X183136221Y-109323858D01*
X183122078Y-109338000D01*
X183136221Y-109352143D01*
X182989143Y-109499221D01*
X182975000Y-109485078D01*
X182131853Y-110328225D01*
X182200173Y-110581394D01*
X182457635Y-110708664D01*
X182734980Y-110783260D01*
X183021547Y-110802315D01*
X183306327Y-110765098D01*
X183322001Y-110759794D01*
X183322001Y-112098514D01*
X183215020Y-112069740D01*
X182928453Y-112050685D01*
X182643673Y-112087902D01*
X182371626Y-112179962D01*
X182200173Y-112271606D01*
X182131853Y-112524775D01*
X182975000Y-113367922D01*
X182989143Y-113353780D01*
X183136221Y-113500858D01*
X183122078Y-113515000D01*
X183136221Y-113529143D01*
X182989143Y-113676221D01*
X182975000Y-113662078D01*
X182131853Y-114505225D01*
X182200173Y-114758394D01*
X182457635Y-114885664D01*
X182734980Y-114960260D01*
X183021547Y-114979315D01*
X183306327Y-114942098D01*
X183322001Y-114936794D01*
X183322001Y-115411530D01*
X176631228Y-122102305D01*
X176503424Y-121946576D01*
X176471041Y-121920000D01*
X176503424Y-121893424D01*
X176722112Y-121626952D01*
X176884612Y-121322936D01*
X176984679Y-120993060D01*
X177018467Y-120650000D01*
X176984679Y-120306940D01*
X176884612Y-119977064D01*
X176722112Y-119673048D01*
X176503424Y-119406576D01*
X176255916Y-119203452D01*
X179150981Y-116308388D01*
X179190091Y-116276291D01*
X179318180Y-116120215D01*
X179413358Y-115942148D01*
X179470367Y-115754216D01*
X179471969Y-115748936D01*
X179479176Y-115675757D01*
X179486800Y-115598351D01*
X179486800Y-115598344D01*
X179491758Y-115548001D01*
X179486800Y-115497658D01*
X179486800Y-113561547D01*
X181510685Y-113561547D01*
X181547902Y-113846327D01*
X181639962Y-114118374D01*
X181731606Y-114289827D01*
X181984775Y-114358147D01*
X182827922Y-113515000D01*
X181984775Y-112671853D01*
X181731606Y-112740173D01*
X181604336Y-112997635D01*
X181529740Y-113274980D01*
X181510685Y-113561547D01*
X179486800Y-113561547D01*
X179486800Y-109384547D01*
X181510685Y-109384547D01*
X181547902Y-109669327D01*
X181639962Y-109941374D01*
X181731606Y-110112827D01*
X181984775Y-110181147D01*
X182827922Y-109338000D01*
X181984775Y-108494853D01*
X181731606Y-108563173D01*
X181604336Y-108820635D01*
X181529740Y-109097980D01*
X181510685Y-109384547D01*
X179486800Y-109384547D01*
X179486800Y-108369918D01*
X179613845Y-108179781D01*
X179711842Y-107943196D01*
X179761800Y-107692039D01*
X179761800Y-107435961D01*
X179711842Y-107184804D01*
X179613845Y-106948219D01*
X179471576Y-106735298D01*
X179415873Y-106679595D01*
X181881694Y-104213775D01*
X181984773Y-104316854D01*
G36*
X151563828Y-101305857D02*
G01*
X151550741Y-101549272D01*
X151585394Y-101790563D01*
X151666454Y-102020457D01*
X151729393Y-102138205D01*
X151960054Y-102179868D01*
X152645922Y-101494000D01*
X152631780Y-101479858D01*
X152660485Y-101451153D01*
X152693100Y-101483768D01*
X152693100Y-101740978D01*
X152107132Y-102326946D01*
X152148795Y-102557607D01*
X152368672Y-102662849D01*
X152604857Y-102723172D01*
X152693100Y-102727916D01*
X152693101Y-106440209D01*
X152495496Y-106358358D01*
X152244339Y-106308400D01*
X151988261Y-106308400D01*
X151777000Y-106350422D01*
X151777000Y-103743751D01*
X151781959Y-103693400D01*
X151762169Y-103492465D01*
X151703558Y-103299251D01*
X151608380Y-103121185D01*
X151512388Y-103004219D01*
X151480291Y-102965109D01*
X151441181Y-102933012D01*
X150943996Y-102435827D01*
X150950940Y-102428883D01*
X151111267Y-102188938D01*
X151221701Y-101922325D01*
X151278000Y-101639290D01*
X151278000Y-101479569D01*
X151419981Y-101337588D01*
X151459091Y-101305491D01*
X151587180Y-101149415D01*
X151618979Y-101089923D01*
X151563828Y-101305857D01*
X151563828Y-101305857D01*
G37*
X151563828Y-101305857D02*
X151550741Y-101549272D01*
X151585394Y-101790563D01*
X151666454Y-102020457D01*
X151729393Y-102138205D01*
X151960054Y-102179868D01*
X152645922Y-101494000D01*
X152631780Y-101479858D01*
X152660485Y-101451153D01*
X152693100Y-101483768D01*
X152693100Y-101740978D01*
X152107132Y-102326946D01*
X152148795Y-102557607D01*
X152368672Y-102662849D01*
X152604857Y-102723172D01*
X152693100Y-102727916D01*
X152693101Y-106440209D01*
X152495496Y-106358358D01*
X152244339Y-106308400D01*
X151988261Y-106308400D01*
X151777000Y-106350422D01*
X151777000Y-103743751D01*
X151781959Y-103693400D01*
X151762169Y-103492465D01*
X151703558Y-103299251D01*
X151608380Y-103121185D01*
X151512388Y-103004219D01*
X151480291Y-102965109D01*
X151441181Y-102933012D01*
X150943996Y-102435827D01*
X150950940Y-102428883D01*
X151111267Y-102188938D01*
X151221701Y-101922325D01*
X151278000Y-101639290D01*
X151278000Y-101479569D01*
X151419981Y-101337588D01*
X151459091Y-101305491D01*
X151587180Y-101149415D01*
X151618979Y-101089923D01*
X151563828Y-101305857D01*
G36*
X128229000Y-82051000D02*
G01*
X128249000Y-82051000D01*
X128249000Y-82259000D01*
X128229000Y-82259000D01*
X128229000Y-83323500D01*
X128393500Y-83488000D01*
X128917700Y-83490999D01*
X128917700Y-83783764D01*
X128787365Y-83719336D01*
X128510020Y-83644740D01*
X128223453Y-83625685D01*
X127938673Y-83662902D01*
X127666626Y-83754962D01*
X127495173Y-83846606D01*
X127426853Y-84099775D01*
X128270000Y-84942922D01*
X128284143Y-84928780D01*
X128431221Y-85075858D01*
X128417078Y-85090000D01*
X128431221Y-85104143D01*
X128284143Y-85251221D01*
X128270000Y-85237078D01*
X127426853Y-86080225D01*
X127495173Y-86333394D01*
X127752635Y-86460664D01*
X128029980Y-86535260D01*
X128316547Y-86554315D01*
X128601327Y-86517098D01*
X128873374Y-86425038D01*
X128917700Y-86401345D01*
X128917700Y-91023670D01*
X128806742Y-91034598D01*
X128486291Y-91131806D01*
X128190961Y-91289663D01*
X127932103Y-91502103D01*
X127719663Y-91760961D01*
X127561806Y-92056291D01*
X127464598Y-92376742D01*
X127431775Y-92710000D01*
X127464598Y-93043258D01*
X127561806Y-93363709D01*
X127719663Y-93659039D01*
X127932103Y-93917897D01*
X128007775Y-93980000D01*
X127932103Y-94042103D01*
X127719663Y-94300961D01*
X127561806Y-94596291D01*
X127464598Y-94916742D01*
X127431775Y-95250000D01*
X127464598Y-95583258D01*
X127561806Y-95903709D01*
X127719663Y-96199039D01*
X127932103Y-96457897D01*
X128007775Y-96520000D01*
X127932103Y-96582103D01*
X127755268Y-96797576D01*
X127620552Y-96838442D01*
X127442485Y-96933620D01*
X127286409Y-97061709D01*
X127158320Y-97217785D01*
X127063142Y-97395852D01*
X127004531Y-97589065D01*
X126984741Y-97790000D01*
X126989700Y-97840351D01*
X126989701Y-100200730D01*
X124736662Y-102453770D01*
X124667435Y-102440000D01*
X124399600Y-102440000D01*
X124399600Y-101769809D01*
X124455469Y-101585635D01*
X124470300Y-101435051D01*
X124470300Y-101435050D01*
X124475259Y-101384700D01*
X124470300Y-101334349D01*
X124470300Y-95300351D01*
X124475259Y-95250000D01*
X124455469Y-95049065D01*
X124396858Y-94855852D01*
X124301680Y-94677785D01*
X124173591Y-94521709D01*
X124017515Y-94393620D01*
X123839448Y-94298442D01*
X123704732Y-94257576D01*
X123527897Y-94042103D01*
X123518370Y-94034284D01*
X123587528Y-93977528D01*
X123669754Y-93877334D01*
X123730854Y-93763024D01*
X123768480Y-93638991D01*
X123781184Y-93510000D01*
X123778000Y-92978500D01*
X123613500Y-92814000D01*
X122024000Y-92814000D01*
X122024000Y-92834000D01*
X121816000Y-92834000D01*
X121816000Y-92814000D01*
X120226500Y-92814000D01*
X120062000Y-92978500D01*
X120058816Y-93510000D01*
X120071520Y-93638991D01*
X120109146Y-93763024D01*
X120170246Y-93877334D01*
X120252472Y-93977528D01*
X120321630Y-94034284D01*
X120312103Y-94042103D01*
X120099663Y-94300961D01*
X120015800Y-94457858D01*
X120015800Y-91910000D01*
X120058816Y-91910000D01*
X120062000Y-92441500D01*
X120226500Y-92606000D01*
X121816000Y-92606000D01*
X121816000Y-91416500D01*
X122024000Y-91416500D01*
X122024000Y-92606000D01*
X123613500Y-92606000D01*
X123778000Y-92441500D01*
X123781184Y-91910000D01*
X123768480Y-91781009D01*
X123730854Y-91656976D01*
X123669754Y-91542666D01*
X123587528Y-91442472D01*
X123487334Y-91360246D01*
X123373024Y-91299146D01*
X123248991Y-91261520D01*
X123120000Y-91248816D01*
X122188500Y-91252000D01*
X122024000Y-91416500D01*
X121816000Y-91416500D01*
X121651500Y-91252000D01*
X120720000Y-91248816D01*
X120591009Y-91261520D01*
X120466976Y-91299146D01*
X120352666Y-91360246D01*
X120252472Y-91442472D01*
X120170246Y-91542666D01*
X120109146Y-91656976D01*
X120071520Y-91781009D01*
X120058816Y-91910000D01*
X120015800Y-91910000D01*
X120015800Y-90477373D01*
X120154128Y-90534670D01*
X120482565Y-90600000D01*
X120817435Y-90600000D01*
X121145872Y-90534670D01*
X121455252Y-90406521D01*
X121733687Y-90220477D01*
X121970477Y-89983687D01*
X122156521Y-89705252D01*
X122284670Y-89395872D01*
X122350000Y-89067435D01*
X122350000Y-88732565D01*
X122336230Y-88663338D01*
X124637702Y-86361866D01*
X124686313Y-86410477D01*
X124964748Y-86596521D01*
X125274128Y-86724670D01*
X125602565Y-86790000D01*
X125937435Y-86790000D01*
X126265872Y-86724670D01*
X126575252Y-86596521D01*
X126853687Y-86410477D01*
X127090477Y-86173687D01*
X127255566Y-85926614D01*
X127279775Y-85933147D01*
X128122922Y-85090000D01*
X127279775Y-84246853D01*
X127255566Y-84253386D01*
X127090477Y-84006313D01*
X127057594Y-83973430D01*
X127125042Y-83810596D01*
X127166728Y-83601027D01*
X127202432Y-83581943D01*
X127313114Y-83491109D01*
X127856500Y-83488000D01*
X128021000Y-83323500D01*
X128021000Y-82259000D01*
X128001000Y-82259000D01*
X128001000Y-82051000D01*
X128021000Y-82051000D01*
X128021000Y-82031000D01*
X128229000Y-82031000D01*
X128229000Y-82051000D01*
X128229000Y-82051000D01*
G37*
X128229000Y-82051000D02*
X128249000Y-82051000D01*
X128249000Y-82259000D01*
X128229000Y-82259000D01*
X128229000Y-83323500D01*
X128393500Y-83488000D01*
X128917700Y-83490999D01*
X128917700Y-83783764D01*
X128787365Y-83719336D01*
X128510020Y-83644740D01*
X128223453Y-83625685D01*
X127938673Y-83662902D01*
X127666626Y-83754962D01*
X127495173Y-83846606D01*
X127426853Y-84099775D01*
X128270000Y-84942922D01*
X128284143Y-84928780D01*
X128431221Y-85075858D01*
X128417078Y-85090000D01*
X128431221Y-85104143D01*
X128284143Y-85251221D01*
X128270000Y-85237078D01*
X127426853Y-86080225D01*
X127495173Y-86333394D01*
X127752635Y-86460664D01*
X128029980Y-86535260D01*
X128316547Y-86554315D01*
X128601327Y-86517098D01*
X128873374Y-86425038D01*
X128917700Y-86401345D01*
X128917700Y-91023670D01*
X128806742Y-91034598D01*
X128486291Y-91131806D01*
X128190961Y-91289663D01*
X127932103Y-91502103D01*
X127719663Y-91760961D01*
X127561806Y-92056291D01*
X127464598Y-92376742D01*
X127431775Y-92710000D01*
X127464598Y-93043258D01*
X127561806Y-93363709D01*
X127719663Y-93659039D01*
X127932103Y-93917897D01*
X128007775Y-93980000D01*
X127932103Y-94042103D01*
X127719663Y-94300961D01*
X127561806Y-94596291D01*
X127464598Y-94916742D01*
X127431775Y-95250000D01*
X127464598Y-95583258D01*
X127561806Y-95903709D01*
X127719663Y-96199039D01*
X127932103Y-96457897D01*
X128007775Y-96520000D01*
X127932103Y-96582103D01*
X127755268Y-96797576D01*
X127620552Y-96838442D01*
X127442485Y-96933620D01*
X127286409Y-97061709D01*
X127158320Y-97217785D01*
X127063142Y-97395852D01*
X127004531Y-97589065D01*
X126984741Y-97790000D01*
X126989700Y-97840351D01*
X126989701Y-100200730D01*
X124736662Y-102453770D01*
X124667435Y-102440000D01*
X124399600Y-102440000D01*
X124399600Y-101769809D01*
X124455469Y-101585635D01*
X124470300Y-101435051D01*
X124470300Y-101435050D01*
X124475259Y-101384700D01*
X124470300Y-101334349D01*
X124470300Y-95300351D01*
X124475259Y-95250000D01*
X124455469Y-95049065D01*
X124396858Y-94855852D01*
X124301680Y-94677785D01*
X124173591Y-94521709D01*
X124017515Y-94393620D01*
X123839448Y-94298442D01*
X123704732Y-94257576D01*
X123527897Y-94042103D01*
X123518370Y-94034284D01*
X123587528Y-93977528D01*
X123669754Y-93877334D01*
X123730854Y-93763024D01*
X123768480Y-93638991D01*
X123781184Y-93510000D01*
X123778000Y-92978500D01*
X123613500Y-92814000D01*
X122024000Y-92814000D01*
X122024000Y-92834000D01*
X121816000Y-92834000D01*
X121816000Y-92814000D01*
X120226500Y-92814000D01*
X120062000Y-92978500D01*
X120058816Y-93510000D01*
X120071520Y-93638991D01*
X120109146Y-93763024D01*
X120170246Y-93877334D01*
X120252472Y-93977528D01*
X120321630Y-94034284D01*
X120312103Y-94042103D01*
X120099663Y-94300961D01*
X120015800Y-94457858D01*
X120015800Y-91910000D01*
X120058816Y-91910000D01*
X120062000Y-92441500D01*
X120226500Y-92606000D01*
X121816000Y-92606000D01*
X121816000Y-91416500D01*
X122024000Y-91416500D01*
X122024000Y-92606000D01*
X123613500Y-92606000D01*
X123778000Y-92441500D01*
X123781184Y-91910000D01*
X123768480Y-91781009D01*
X123730854Y-91656976D01*
X123669754Y-91542666D01*
X123587528Y-91442472D01*
X123487334Y-91360246D01*
X123373024Y-91299146D01*
X123248991Y-91261520D01*
X123120000Y-91248816D01*
X122188500Y-91252000D01*
X122024000Y-91416500D01*
X121816000Y-91416500D01*
X121651500Y-91252000D01*
X120720000Y-91248816D01*
X120591009Y-91261520D01*
X120466976Y-91299146D01*
X120352666Y-91360246D01*
X120252472Y-91442472D01*
X120170246Y-91542666D01*
X120109146Y-91656976D01*
X120071520Y-91781009D01*
X120058816Y-91910000D01*
X120015800Y-91910000D01*
X120015800Y-90477373D01*
X120154128Y-90534670D01*
X120482565Y-90600000D01*
X120817435Y-90600000D01*
X121145872Y-90534670D01*
X121455252Y-90406521D01*
X121733687Y-90220477D01*
X121970477Y-89983687D01*
X122156521Y-89705252D01*
X122284670Y-89395872D01*
X122350000Y-89067435D01*
X122350000Y-88732565D01*
X122336230Y-88663338D01*
X124637702Y-86361866D01*
X124686313Y-86410477D01*
X124964748Y-86596521D01*
X125274128Y-86724670D01*
X125602565Y-86790000D01*
X125937435Y-86790000D01*
X126265872Y-86724670D01*
X126575252Y-86596521D01*
X126853687Y-86410477D01*
X127090477Y-86173687D01*
X127255566Y-85926614D01*
X127279775Y-85933147D01*
X128122922Y-85090000D01*
X127279775Y-84246853D01*
X127255566Y-84253386D01*
X127090477Y-84006313D01*
X127057594Y-83973430D01*
X127125042Y-83810596D01*
X127166728Y-83601027D01*
X127202432Y-83581943D01*
X127313114Y-83491109D01*
X127856500Y-83488000D01*
X128021000Y-83323500D01*
X128021000Y-82259000D01*
X128001000Y-82259000D01*
X128001000Y-82051000D01*
X128021000Y-82051000D01*
X128021000Y-82031000D01*
X128229000Y-82031000D01*
X128229000Y-82051000D01*
G36*
X183136221Y-100968858D02*
G01*
X183122078Y-100983000D01*
X183136221Y-100997143D01*
X182989143Y-101144221D01*
X182975000Y-101130078D01*
X182960858Y-101144221D01*
X182813780Y-100997143D01*
X182827922Y-100983000D01*
X182813780Y-100968858D01*
X182960858Y-100821780D01*
X182975000Y-100835922D01*
X182989143Y-100821780D01*
X183136221Y-100968858D01*
X183136221Y-100968858D01*
G37*
X183136221Y-100968858D02*
X183122078Y-100983000D01*
X183136221Y-100997143D01*
X182989143Y-101144221D01*
X182975000Y-101130078D01*
X182960858Y-101144221D01*
X182813780Y-100997143D01*
X182827922Y-100983000D01*
X182813780Y-100968858D01*
X182960858Y-100821780D01*
X182975000Y-100835922D01*
X182989143Y-100821780D01*
X183136221Y-100968858D01*
G36*
X171536221Y-100400858D02*
G01*
X171522078Y-100415000D01*
X171536221Y-100429143D01*
X171494700Y-100470663D01*
X171494700Y-100359337D01*
X171536221Y-100400858D01*
X171536221Y-100400858D01*
G37*
X171536221Y-100400858D02*
X171522078Y-100415000D01*
X171536221Y-100429143D01*
X171494700Y-100470663D01*
X171494700Y-100359337D01*
X171536221Y-100400858D01*
G36*
X183102501Y-92580738D02*
G01*
X183102501Y-92676462D01*
X182989143Y-92789821D01*
X182975000Y-92775678D01*
X182960858Y-92789821D01*
X182813780Y-92642743D01*
X182827922Y-92628600D01*
X182813780Y-92614458D01*
X182960858Y-92467380D01*
X182975000Y-92481522D01*
X182989143Y-92467380D01*
X183102501Y-92580738D01*
X183102501Y-92580738D01*
G37*
X183102501Y-92580738D02*
X183102501Y-92676462D01*
X182989143Y-92789821D01*
X182975000Y-92775678D01*
X182960858Y-92789821D01*
X182813780Y-92642743D01*
X182827922Y-92628600D01*
X182813780Y-92614458D01*
X182960858Y-92467380D01*
X182975000Y-92481522D01*
X182989143Y-92467380D01*
X183102501Y-92580738D01*
G36*
X183102501Y-88403538D02*
G01*
X183102501Y-88499262D01*
X182989143Y-88612621D01*
X182975000Y-88598478D01*
X182960858Y-88612621D01*
X182813780Y-88465543D01*
X182827922Y-88451400D01*
X182813780Y-88437258D01*
X182960858Y-88290180D01*
X182975000Y-88304322D01*
X182989143Y-88290180D01*
X183102501Y-88403538D01*
X183102501Y-88403538D01*
G37*
X183102501Y-88403538D02*
X183102501Y-88499262D01*
X182989143Y-88612621D01*
X182975000Y-88598478D01*
X182960858Y-88612621D01*
X182813780Y-88465543D01*
X182827922Y-88451400D01*
X182813780Y-88437258D01*
X182960858Y-88290180D01*
X182975000Y-88304322D01*
X182989143Y-88290180D01*
X183102501Y-88403538D01*
G36*
X183102500Y-84226237D02*
G01*
X183102500Y-84321963D01*
X182989143Y-84435321D01*
X182975000Y-84421178D01*
X182960858Y-84435321D01*
X182813780Y-84288243D01*
X182827922Y-84274100D01*
X182813780Y-84259958D01*
X182960858Y-84112880D01*
X182975000Y-84127022D01*
X182989143Y-84112880D01*
X183102500Y-84226237D01*
X183102500Y-84226237D01*
G37*
X183102500Y-84226237D02*
X183102500Y-84321963D01*
X182989143Y-84435321D01*
X182975000Y-84421178D01*
X182960858Y-84435321D01*
X182813780Y-84288243D01*
X182827922Y-84274100D01*
X182813780Y-84259958D01*
X182960858Y-84112880D01*
X182975000Y-84127022D01*
X182989143Y-84112880D01*
X183102500Y-84226237D01*
G36*
X183102500Y-80048937D02*
G01*
X183102500Y-80144663D01*
X182989143Y-80258021D01*
X182975000Y-80243878D01*
X182960858Y-80258021D01*
X182813780Y-80110943D01*
X182827922Y-80096800D01*
X182813780Y-80082658D01*
X182960858Y-79935580D01*
X182975000Y-79949722D01*
X182989143Y-79935580D01*
X183102500Y-80048937D01*
X183102500Y-80048937D01*
G37*
X183102500Y-80048937D02*
X183102500Y-80144663D01*
X182989143Y-80258021D01*
X182975000Y-80243878D01*
X182960858Y-80258021D01*
X182813780Y-80110943D01*
X182827922Y-80096800D01*
X182813780Y-80082658D01*
X182960858Y-79935580D01*
X182975000Y-79949722D01*
X182989143Y-79935580D01*
X183102500Y-80048937D01*
G36*
X166328712Y-67538681D02*
G01*
X166360809Y-67577791D01*
X166516885Y-67705880D01*
X166694952Y-67801058D01*
X166888165Y-67859669D01*
X166999522Y-67870637D01*
X166928356Y-68042446D01*
X166871500Y-68328282D01*
X166871500Y-68619718D01*
X166928356Y-68905554D01*
X167039884Y-69174806D01*
X167201797Y-69417126D01*
X167407874Y-69623203D01*
X167650194Y-69785116D01*
X167863823Y-69873604D01*
X167824543Y-69887454D01*
X167706795Y-69950393D01*
X167665132Y-70181054D01*
X168351000Y-70866922D01*
X169036868Y-70181054D01*
X168995205Y-69950393D01*
X168836353Y-69874360D01*
X169051806Y-69785116D01*
X169294126Y-69623203D01*
X169444700Y-69472629D01*
X169444700Y-70426094D01*
X169414607Y-70369795D01*
X169183946Y-70328132D01*
X168498078Y-71014000D01*
X169183946Y-71699868D01*
X169414607Y-71658205D01*
X169444700Y-71595333D01*
X169444700Y-72555371D01*
X169294126Y-72404797D01*
X169051806Y-72242884D01*
X168838177Y-72154396D01*
X168877457Y-72140546D01*
X168995205Y-72077607D01*
X169036868Y-71846946D01*
X168351000Y-71161078D01*
X168336858Y-71175221D01*
X168189780Y-71028143D01*
X168203922Y-71014000D01*
X167518054Y-70328132D01*
X167287393Y-70369795D01*
X167182151Y-70589672D01*
X167121828Y-70825857D01*
X167119307Y-70872740D01*
X160900900Y-64654333D01*
X160900900Y-64586761D01*
X160850942Y-64335604D01*
X160752945Y-64099019D01*
X160610676Y-63886098D01*
X160429602Y-63705024D01*
X160216681Y-63562755D01*
X159980096Y-63464758D01*
X159792700Y-63427483D01*
X159792700Y-61002668D01*
X166328712Y-67538681D01*
X166328712Y-67538681D01*
G37*
X166328712Y-67538681D02*
X166360809Y-67577791D01*
X166516885Y-67705880D01*
X166694952Y-67801058D01*
X166888165Y-67859669D01*
X166999522Y-67870637D01*
X166928356Y-68042446D01*
X166871500Y-68328282D01*
X166871500Y-68619718D01*
X166928356Y-68905554D01*
X167039884Y-69174806D01*
X167201797Y-69417126D01*
X167407874Y-69623203D01*
X167650194Y-69785116D01*
X167863823Y-69873604D01*
X167824543Y-69887454D01*
X167706795Y-69950393D01*
X167665132Y-70181054D01*
X168351000Y-70866922D01*
X169036868Y-70181054D01*
X168995205Y-69950393D01*
X168836353Y-69874360D01*
X169051806Y-69785116D01*
X169294126Y-69623203D01*
X169444700Y-69472629D01*
X169444700Y-70426094D01*
X169414607Y-70369795D01*
X169183946Y-70328132D01*
X168498078Y-71014000D01*
X169183946Y-71699868D01*
X169414607Y-71658205D01*
X169444700Y-71595333D01*
X169444700Y-72555371D01*
X169294126Y-72404797D01*
X169051806Y-72242884D01*
X168838177Y-72154396D01*
X168877457Y-72140546D01*
X168995205Y-72077607D01*
X169036868Y-71846946D01*
X168351000Y-71161078D01*
X168336858Y-71175221D01*
X168189780Y-71028143D01*
X168203922Y-71014000D01*
X167518054Y-70328132D01*
X167287393Y-70369795D01*
X167182151Y-70589672D01*
X167121828Y-70825857D01*
X167119307Y-70872740D01*
X160900900Y-64654333D01*
X160900900Y-64586761D01*
X160850942Y-64335604D01*
X160752945Y-64099019D01*
X160610676Y-63886098D01*
X160429602Y-63705024D01*
X160216681Y-63562755D01*
X159980096Y-63464758D01*
X159792700Y-63427483D01*
X159792700Y-61002668D01*
X166328712Y-67538681D01*
G36*
X137895646Y-60590000D02*
G01*
X137913023Y-60766431D01*
X137964486Y-60936081D01*
X138048057Y-61092432D01*
X138160525Y-61229475D01*
X138297568Y-61341943D01*
X138453919Y-61425514D01*
X138623569Y-61476977D01*
X138800000Y-61494354D01*
X140600000Y-61494354D01*
X140776431Y-61476977D01*
X140946081Y-61425514D01*
X141102432Y-61341943D01*
X141239475Y-61229475D01*
X141262353Y-61201598D01*
X141387380Y-61285139D01*
X141714959Y-61420827D01*
X142062716Y-61490000D01*
X142417284Y-61490000D01*
X142561706Y-61461273D01*
X147443601Y-66343170D01*
X147443601Y-71064032D01*
X136391273Y-60011706D01*
X136420000Y-59867284D01*
X136420000Y-59512716D01*
X136350827Y-59164959D01*
X136297038Y-59035100D01*
X137895646Y-59035100D01*
X137895646Y-60590000D01*
X137895646Y-60590000D01*
G37*
X137895646Y-60590000D02*
X137913023Y-60766431D01*
X137964486Y-60936081D01*
X138048057Y-61092432D01*
X138160525Y-61229475D01*
X138297568Y-61341943D01*
X138453919Y-61425514D01*
X138623569Y-61476977D01*
X138800000Y-61494354D01*
X140600000Y-61494354D01*
X140776431Y-61476977D01*
X140946081Y-61425514D01*
X141102432Y-61341943D01*
X141239475Y-61229475D01*
X141262353Y-61201598D01*
X141387380Y-61285139D01*
X141714959Y-61420827D01*
X142062716Y-61490000D01*
X142417284Y-61490000D01*
X142561706Y-61461273D01*
X147443601Y-66343170D01*
X147443601Y-71064032D01*
X136391273Y-60011706D01*
X136420000Y-59867284D01*
X136420000Y-59512716D01*
X136350827Y-59164959D01*
X136297038Y-59035100D01*
X137895646Y-59035100D01*
X137895646Y-60590000D01*
M02*
