M48
; DRILL file {KiCad (5.1.0-0)} date Tuesday, 04 February 2020 at 17:27:56
; FORMAT={-:-/ absolute / inch / decimal}
; #@! TF.CreationDate,2020-02-04T17:27:56+00:00
; #@! TF.GenerationSoftware,Kicad,Pcbnew,(5.1.0-0)
; #@! TF.FileFunction,Plated,1,2,PTH
FMAT,2
INCH
T1C0.0157
T2C0.0287
T3C0.0299
T4C0.0299
T5C0.0315
T6C0.0354
T7C0.0394
T8C0.0433
%
G90
G05
T1
X4.9557Y-3.2847
X5.3999Y-4.1545
X5.4331Y-2.4409
X5.4354Y-2.8316
X5.5594Y-2.6907
X5.6299Y-2.5197
X5.6645Y-5.1
X5.7Y-3.7247
X5.7023Y-3.533
X5.7319Y-3.3202
X5.7401Y-4.6406
X5.7554Y-3.5911
X5.7554Y-4.5759
X5.7808Y-4.614
X5.7833Y-3.5193
X5.9611Y-4.5864
X5.9888Y-4.2366
X5.9912Y-4.6819
X6.0155Y-2.5778
X6.0409Y-4.2897
X6.0617Y-4.7724
X6.0824Y-3.7602
X6.0936Y-3.6099
X6.1206Y-3.8312
X6.1824Y-3.8533
X6.1903Y-3.7352
X6.2406Y-3.6835
X6.2421Y-2.8958
X6.2535Y-3.815
X6.2835Y-2.5478
X6.2992Y-2.4016
X6.3002Y-2.9533
X6.3172Y-2.6908
X6.3391Y-3.6169
X6.3516Y-3.1958
X6.352Y-3.0576
X6.3758Y-3.5812
X6.3954Y-3.6679
X6.4388Y-3.2958
X6.4645Y-3.5838
X6.5259Y-4.6666
X6.5269Y-3.3958
X6.5665Y-3.462
X6.6279Y-2.322
X6.6557Y-4.3729
X6.8021Y-4.0496
X6.8355Y-4.3949
X6.8762Y-3.0765
X6.8827Y-3.3176
X6.9184Y-3.2831
X6.9857Y-2.9855
X6.9928Y-3.0456
X6.9946Y-2.8958
X7.0261Y-4.2348
X7.1276Y-2.5947
X7.146Y-3.1525
X7.1677Y-4.732
X7.2668Y-2.6605
X7.2863Y-4.0762
X7.338Y-2.6732
X7.3636Y-2.4805
X7.4092Y-2.5653
X7.4361Y-2.8809
X7.4539Y-2.8298
X7.5532Y-3.8448
T2
X5.2881Y-2.6959
X5.2881Y-2.7959
X5.2881Y-2.8959
X5.2881Y-2.9959
X5.2881Y-3.0959
X5.2881Y-3.1959
X5.2881Y-3.2959
X5.2881Y-3.3959
X5.2881Y-3.4959
X5.2881Y-3.5959
X5.2881Y-3.6959
X5.2881Y-3.7959
X5.2881Y-3.8959
X5.2881Y-3.9959
X5.2881Y-4.0959
X5.2881Y-4.1959
X5.2881Y-4.2959
X5.2881Y-4.3959
X5.2881Y-4.4959
X5.2881Y-4.5959
X5.8981Y-2.6959
X5.8981Y-2.7959
X5.8981Y-2.8959
X5.8981Y-2.9959
X5.8981Y-3.0959
X5.8981Y-3.1959
X5.8981Y-3.2959
X5.8981Y-3.3959
X5.8981Y-3.4959
X5.8981Y-3.5959
X5.8981Y-3.6959
X5.8981Y-3.7959
X5.8981Y-3.8959
X5.8981Y-3.9959
X5.8981Y-4.0959
X5.8981Y-4.1959
X5.8981Y-4.2959
X5.8981Y-4.3959
X5.8981Y-4.4959
X5.8981Y-4.5959
T3
X6.0155Y-2.6958
X6.0155Y-2.7958
X6.0155Y-2.8958
X6.0155Y-2.9958
X6.0155Y-3.0958
X6.0155Y-3.1958
X6.0155Y-3.2958
X6.0155Y-3.3958
X6.0155Y-3.4958
X6.0155Y-3.5958
X6.0155Y-3.6958
X6.0155Y-3.7958
X6.0155Y-3.8958
X6.0155Y-3.9958
X6.628Y-2.6958
X6.628Y-2.7958
X6.628Y-2.8958
X6.628Y-2.9958
X6.628Y-3.0958
X6.628Y-3.1958
X6.628Y-3.2958
X6.628Y-3.3958
X6.628Y-3.4958
X6.628Y-3.5958
X6.628Y-3.6958
X6.628Y-3.7958
X6.628Y-3.8958
X6.628Y-3.9958
T4
X6.747Y-2.6533
X6.747Y-2.7533
X6.747Y-2.8533
X6.747Y-2.9533
X6.747Y-3.0533
X6.747Y-3.1533
X6.747Y-3.2533
X6.747Y-3.3533
X6.747Y-3.4533
X6.747Y-3.5533
X6.747Y-3.6533
X6.747Y-3.7533
X6.747Y-3.8533
X6.747Y-3.9533
X7.0596Y-2.6533
X7.0596Y-2.7533
X7.0596Y-2.8533
X7.0596Y-2.9533
X7.0596Y-3.0533
X7.0596Y-3.1533
X7.0596Y-3.2533
X7.0596Y-3.3533
X7.0596Y-3.4533
X7.0596Y-3.5533
X7.0596Y-3.6533
X7.0596Y-3.7533
X7.0596Y-3.8533
X7.0596Y-3.9533
T5
X7.2037Y-3.6468
X7.6037Y-3.6468
X7.2037Y-4.4691
X7.6037Y-4.4691
X4.8Y-3.65
X4.8Y-3.75
X4.8Y-3.85
X4.8Y-3.95
X5.1Y-3.65
X5.1Y-3.75
X5.1Y-3.85
X5.1Y-3.95
X7.2037Y-3.9757
X7.6037Y-3.9757
X7.2037Y-2.66
X7.6037Y-2.66
X6.2Y-4.2
X6.2Y-4.5
X6.3Y-4.2
X6.3Y-4.5
X6.4Y-4.2
X6.4Y-4.5
X6.5Y-4.5
X6.6Y-4.2
X4.35Y-3.65
X7.2037Y-2.989
X7.6037Y-2.989
X4.35Y-4.05
X6.5Y-4.2
X4.75Y-3.1
X4.75Y-3.5
X7.2037Y-3.3179
X7.6037Y-3.3179
X6.6Y-4.5
X4.9516Y-3.35
X5.05Y-3.35
X7.2037Y-3.8113
X7.6037Y-3.8113
X7.2037Y-4.3046
X7.6037Y-4.3046
X4.5Y-3.65
X4.5Y-4.05
X4.9016Y-4.1
X5.0Y-4.1
X7.2037Y-4.1402
X7.6037Y-4.1402
X7.2037Y-3.4823
X7.6037Y-3.4823
X7.2037Y-3.1534
X7.6037Y-3.1534
X6.7Y-4.2
X6.7Y-4.5
X6.8Y-4.2
X6.8Y-4.5
X6.9Y-4.2
X6.9Y-4.5
X7.2037Y-2.8245
X7.6037Y-2.8245
T6
X5.2Y-2.35
X5.3Y-2.35
X6.4Y-2.35
X6.5Y-2.35
X5.8Y-2.35
X5.9Y-2.35
X7.3Y-2.35
X7.4Y-2.35
X4.6531Y-4.2701
X4.6531Y-4.4
X4.7516Y-4.2701
X4.7516Y-4.4
X4.85Y-4.2701
X5.5Y-2.35
X6.7Y-2.35
X6.8Y-2.35
X7.0Y-2.35
X7.1Y-2.35
X5.6Y-2.35
X6.1Y-2.35
X6.2Y-2.35
X4.85Y-4.4
T7
X6.2Y-4.75
X6.2Y-4.85
X6.3Y-4.75
X6.3Y-4.85
X6.4Y-4.75
X6.4Y-4.85
X6.5Y-4.75
X6.5Y-4.85
X6.6Y-4.75
X6.6Y-4.85
X6.7Y-4.75
X6.7Y-4.85
X6.8Y-4.75
X6.8Y-4.85
X6.9Y-4.75
X6.9Y-4.85
X4.9Y-2.3
X5.0Y-2.3
T8
X6.3Y-5.1
X6.3Y-5.2772
X6.5559Y-5.1
X6.5559Y-5.2772
X5.3Y-5.1
X5.3Y-5.2772
X5.5559Y-5.1
X5.5559Y-5.2772
X6.8Y-5.1
X6.8Y-5.2772
X7.0559Y-5.1
X7.0559Y-5.2772
X4.6Y-4.7
X4.6Y-4.8772
X4.8559Y-4.7
X4.8559Y-4.8772
X5.8Y-5.1
X5.8Y-5.2772
X6.0559Y-5.1
X6.0559Y-5.2772
T6
G00X4.9815Y-2.5
M15
G01X4.9185Y-2.5
M16
G05
G00X4.9815Y-2.9488
M15
G01X4.9185Y-2.9488
M16
G05
T0
M30
